EBGaramond12-Italic.sfdir
StartChar: exclam
Encoding: 814 33 813
GlifName: exclam
Width: 287
VWidth: 0
Flags: W
LayerCount: 2
Back
SplineSet
144 205 m 256
 154 205 165 222 174 244 c 256
 220 357 294 535 314 598 c 256
 323 627 305 649 278 649 c 256
 249 649 230 626 222 598 c 256
 204 534 162 358 138 244 c 256
 132 215 134 205 144 205 c 256
85 -14 m 256
 124 -14 157 16 157 54 c 256
 157 81 136 106 108 106 c 256
 68 106 36 76 36 38 c 256
 36 11 57 -14 85 -14 c 256
EndSplineSet
Fore
SplineSet
144 205 m 256
 154 205 165 222 174 244 c 256
 220 357 294 535 306 574 c 256
 319 613 308 649 281 649 c 256
 255 649 228 618 215 574 c 256
 204 534 162 358 138 244 c 256
 132 215 134 205 144 205 c 256
85 -14 m 256
 124 -14 157 16 157 54 c 256
 157 81 136 106 108 106 c 256
 68 106 36 76 36 38 c 256
 36 11 57 -14 85 -14 c 256
EndSplineSet
PickledDataWithLists: "(dp0
Vpublic.markColor
p1
V0.67,0.95,0.38,1
p2
s."
Substitution2: "'smcp' Lowercase to Small Capitals in Latin lookup 21 subtable" exclam.sc
Substitution2: "'c2sc' Capitals to Small Capitals in Latin lookup 20 subtable" exclam.sc
Substitution2: "'sups' Superscript in Latin lookup 10 subtable" exclam.sups
Substitution2: "'sinf' Scientific Inferiors in Latin lookup 9 subtable" exclam.sinf
Substitution2: "'subs' Subscript in Latin lookup 8 subtable" exclam.subs
Comment: "+AAoA-exclam+AAoA"
EndChar
StartChar: numbersign
Encoding: 1122 35 1121
GlifName: numbersign
Width: 449
VWidth: 0
Flags: W
LayerCount: 2
Back
SplineSet
42 70 m 256
 55 68 69 66 75 78 c 258
 155 244 l 257
 268 226 l 257
 189 64 l 257
 189 61 l 258
 189 55 190 49 196 48 c 256
 208 46 222 44 228 57 c 258
 307 220 l 257
 365 211 l 258
 387 208 404 241 405 251 c 256
 406 258 402 264 395 265 c 257
 334 275 l 257
 396 403 l 257
 451 395 l 258
 473 392 489 427 492 436 c 256
 494 443 489 448 482 449 c 257
 423 459 l 257
 500 618 l 257
 501 620 502 621 502 623 c 256
 502 629 502 635 496 636 c 256
 482 638 467 640 461 627 c 258
 382 465 l 257
 271 482 l 257
 346 640 l 257
 347 643 348 643 348 645 c 256
 348 651 348 657 343 658 c 256
 330 661 314 661 308 648 c 258
 231 489 l 257
 162 501 l 258
 142 504 131 469 129 459 c 256
 128 453 133 446 140 444 c 257
 204 434 l 257
 141 306 l 257
 75 318 l 258
 54 322 43 285 42 275 c 256
 41 268 45 262 53 261 c 257
 115 250 l 257
 35 86 l 257
 35 83 l 258
 35 78 36 71 42 70 c 256
182 299 m 257
 244 428 l 257
 355 411 l 257
 295 281 l 257
 182 299 l 257
EndSplineSet
Fore
SplineSet
-20 -88 m 256
 -7 -88 12 -86 19 -73 c 258
 108 106 l 257
 221 112 l 257
 137 -62 l 257
 136 -65 l 258
 134 -71 137 -77 143 -77 c 256
 156 -77 174 -75 180 -62 c 258
 265 114 l 257
 320 117 l 258
 342 118 362 155 363 165 c 256
 364 172 360 177 353 177 c 257
 294 174 l 257
 361 312 l 257
 415 315 l 258
 437 316 456 354 457 364 c 256
 458 371 454 375 447 375 c 257
 391 372 l 257
 473 544 l 258
 474 546 474 547 475 549 c 256
 478 555 474 561 469 561 c 256
 455 561 436 558 429 544 c 258
 344 370 l 257
 235 364 l 257
 317 533 l 257
 317 535 319 536 319 538 c 256
 319 544 319 550 314 550 c 256
 300 550 279 547 272 533 c 258
 189 362 l 257
 120 359 l 258
 100 358 86 321 85 311 c 256
 84 304 89 299 96 299 c 257
 157 302 l 257
 91 164 l 257
 26 161 l 258
 4 160 -8 123 -9 113 c 256
 -10 106 -6 101 1 101 c 257
 61 104 l 257
 -27 -73 l 257
 -28 -76 l 258
 -30 -82 -26 -88 -20 -88 c 256
137 166 m 257
 204 304 l 257
 315 310 l 257
 250 172 l 257
 137 166 l 257
EndSplineSet
PickledDataWithLists: "(dp0
Vpublic.markColor
p1
V0.67,0.95,0.38,1
p2
s."
Substitution2: "'smcp' Lowercase to Small Capitals in Latin lookup 21 subtable" numbersign.sc
Substitution2: "'c2sc' Capitals to Small Capitals in Latin lookup 20 subtable" numbersign.sc
Substitution2: "'sups' Superscript in Latin lookup 10 subtable" numbersign.sups
Substitution2: "'sinf' Scientific Inferiors in Latin lookup 9 subtable" numbersign.sinf
Substitution2: "'subs' Subscript in Latin lookup 8 subtable" numbersign.subs
Comment: "+AAoA-numbersign+AAoA"
EndChar
StartChar: dollar
Encoding: 724 36 723
GlifName: dollar
Width: 483
VWidth: 0
Flags: W
LayerCount: 2
Back
SplineSet
192 -15 m 256
 339 -15 419 74 419 184 c 256
 419 240 389 290 321 352 c 256
 253 415 229 453 229 506 c 256
 229 566 281 635 352 635 c 256
 422 635 469 585 469 492 c 256
 469 477 471 466 481 466 c 256
 485 466 494 478 497 498 c 256
 512 601 535 626 535 629 c 256
 535 634 533 645 523 645 c 256
 516 645 511 643 506 640 c 256
 501 637 496 635 487 635 c 256
 477 635 459 644 433 652 c 256
 410 658 385 664 364 664 c 256
 246 664 155 588 155 482 c 256
 155 401 197 352 256 298 c 256
 320 238 334 205 334 153 c 256
 334 77 276 15 189 15 c 256
 106 15 70 75 70 152 c 256
 70 179 69 191 58 191 c 256
 48 191 44 185 42 171 c 256
 31 92 -4 31 -4 19 c 256
 -4 11 9 0 15 0 c 256
 20 0 27 5 35 10 c 256
 42 13 49 16 56 16 c 256
 60 16 72 11 89 4 c 256
 123 -9 158 -15 192 -15 c 256
EndSplineSet
Fore
SplineSet
189 -15 m 256
 342 -15 425 74 425 184 c 256
 425 240 394 290 323 352 c 256
 252 415 226 453 226 506 c 256
 226 566 282 635 356 635 c 256
 428 635 477 585 477 492 c 256
 477 477 479 466 490 466 c 256
 494 466 503 478 506 498 c 256
 522 601 546 626 546 629 c 256
 546 634 544 645 533 645 c 256
 526 645 521 643 516 640 c 256
 511 637 505 635 496 635 c 256
 486 635 467 644 440 652 c 256
 416 658 390 664 368 664 c 256
 245 664 151 588 151 482 c 256
 151 401 194 352 256 298 c 256
 322 238 339 205 339 153 c 256
 339 77 276 15 186 15 c 256
 100 15 62 75 62 152 c 256
 62 179 61 191 50 191 c 256
 39 191 35 185 33 171 c 256
 21 92 -15 31 -15 19 c 256
 -15 11 -1 0 5 0 c 256
 10 0 17 5 26 10 c 256
 33 13 40 16 47 16 c 256
 52 16 64 11 82 4 c 256
 117 -9 154 -15 189 -15 c 256
93 -95 m 256
 103 -95 117 -91 121 -80 c 257
 455 712 l 257
 458 720 455 729 448 729 c 256
 436 729 422 725 416 712 c 257
 83 -80 l 257
 80 -88 85 -95 93 -95 c 256
EndSplineSet
PickledDataWithLists: "(dp0
Vcom.schriftgestaltung.Glyphs.glyph.leftMetricsKey
p1
VS
p2
sVcom.schriftgestaltung.Glyphs.glyph.rightMetricsKey
p3
g2
s."
Substitution2: "'smcp' Lowercase to Small Capitals in Latin lookup 21 subtable" dollar.sc
Substitution2: "'c2sc' Capitals to Small Capitals in Latin lookup 20 subtable" dollar.sc
Substitution2: "'sups' Superscript in Latin lookup 10 subtable" dollar.sups
Substitution2: "'sinf' Scientific Inferiors in Latin lookup 9 subtable" dollar.sinf
Substitution2: "'subs' Subscript in Latin lookup 8 subtable" dollar.subs
Comment: "+AAoA-dollar+AAoA"
EndChar
StartChar: percent
Encoding: 1217 37 1216
GlifName: percent
Width: 644
VWidth: 0
Flags: W
LayerCount: 2
Back
SplineSet
618 638 m 258
 36 -11 l 257
 29 -18 38 -26 46 -26 c 256
 60 -26 73 -24 84 -11 c 258
 666 638 l 258
 672 645 666 655 659 655 c 256
 643 655 631 652 618 638 c 258
286 630 m 256
 201 630 122 534 96 448 c 256
 68 356 79 268 159 268 c 256
 247 268 321 365 350 459 c 256
 376 544 363 630 286 630 c 256
268 603 m 256
 305 603 300 513 281 447 c 256
 262 382 218 292 176 292 c 256
 134 292 144 389 164 459 c 256
 182 520 231 603 268 603 c 256
541 348 m 256
 456 348 377 252 351 166 c 256
 323 74 334 -14 414 -14 c 256
 502 -14 576 83 605 177 c 256
 631 262 618 348 541 348 c 256
523 321 m 256
 560 321 555 231 536 165 c 256
 517 100 473 10 431 10 c 256
 389 10 399 107 419 177 c 256
 437 238 486 321 523 321 c 256
EndSplineSet
Fore
Refer: 3047 -1 N 1 0 0 1 0 0 2
Refer: 869 8260 N 1 0 0 1 304 0 2
Refer: 3047 -1 N 1 0 0 1 276 -280 2
PickledDataWithLists: "(dp0
Vcom.schriftgestaltung.Glyphs.ComponentInfo
p1
(lp2
(dp3
Valignment
p4
I-1
sVindex
p5
I0
sVname
p6
Vzero.ordn
p7
sa(dp8
g4
I-1
sg5
I1
sg6
Vfraction
p9
sa(dp10
g4
I-1
sg5
I2
sg6
Vzero.ordn
p11
sasVcom.schriftgestaltung.Glyphs.glyph.leftMetricsKey
p12
Vzero.ordn
p13
sVcom.schriftgestaltung.Glyphs.glyph.rightMetricsKey
p14
Vzero.ordn
p15
sVpublic.markColor
p16
V0.67,0.95,0.38,1
p17
s."
Substitution2: "'smcp' Lowercase to Small Capitals in Latin lookup 21 subtable" percent.sc
Substitution2: "'c2sc' Capitals to Small Capitals in Latin lookup 20 subtable" percent.sc
Substitution2: "'sups' Superscript in Latin lookup 10 subtable" percent.sups
Substitution2: "'sinf' Scientific Inferiors in Latin lookup 9 subtable" percent.sinf
Substitution2: "'subs' Subscript in Latin lookup 8 subtable" percent.subs
Comment: "+AAoA-percent+AAoA"
EndChar
StartChar: ampersand
Encoding: 535 38 534
GlifName: ampersand
Width: 822
VWidth: 0
Flags: W
LayerCount: 2
Back
SplineSet
287 464 m 256
 322 464 356 449 356 419 c 256
 356 386 330 368 297 368 c 256
 242 368 199 401 199 525 c 256
 199 612 263 657 313 658 c 256
 335 658 351 644 351 621 c 256
 351 603 372 591 383 591 c 256
 411 591 427 610 427 636 c 256
 427 684 392 717 331 718 c 256
 225 720 147 634 147 534 c 256
 147 388 226 328 299 328 c 256
 353 328 399 363 399 416 c 256
 399 467 353 498 290 499 c 256
 201 500 90 431 90 249 c 256
 90 116 195 -15 413 -15 c 256
 631 -15 757 130 757 300 c 256
 757 355 750 396 722 446 c 256
 716 456 724 459 732 459 c 256
 869 459 910 539 910 607 c 256
 910 669 878 716 822 716 c 256
 762 716 733 679 733 647 c 256
 733 618 752 593 787 593 c 256
 836 593 832 645 813 650 c 256
 796 655 790 689 817 689 c 256
 844 689 869 667 869 630 c 256
 869 571 835 528 728 527 c 258
 641 526 l 258
 542 525 486 453 486 391 c 256
 486 336 522 285 601 285 c 256
 665 285 687 385 619 385 c 256
 584 385 594 343 563 343 c 256
 535 343 524 366 524 391 c 256
 524 430 550 458 595 458 c 256
 688 458 719 402 719 322 c 256
 719 191 626 68 436 68 c 256
 217 68 139 173 139 289 c 256
 139 420 224 464 287 464 c 256
  PathStart: -2
EndSplineSet
Fore
SplineSet
413 -15 m 256
 615 -15 757 115 757 300 c 256
 757 361 748 400 722 446 c 256
 717 454 721 459 732 459 c 256
 841 459 910 516 910 607 c 256
 910 673 875 716 822 716 c 256
 771 716 733 686 733 647 c 256
 733 615 755 593 787 593 c 256
 810 593 828 608 828 627 c 256
 828 636 823 647 813 650 c 256
 802 653 798 662 798 671 c 256
 798 680 806 689 817 689 c 256
 847 689 869 664 869 630 c 256
 869 562 822 528 728 527 c 258
 641 526 l 258
 555 525 486 465 486 391 c 256
 486 327 532 285 601 285 c 256
 636 285 661 314 662 343 c 256
 663 367 649 385 619 385 c 256
 600 385 594 372 588 361 c 256
 583 352 577 343 563 343 c 256
 535 343 524 366 524 391 c 256
 524 430 550 458 595 458 c 256
 688 458 719 402 719 322 c 256
 719 191 626 68 436 68 c 256
 217 68 146 173 146 289 c 256
 146 392 200 464 287 464 c 256
 328 464 356 445 356 419 c 256
 356 388 333 368 297 368 c 256
 231 368 199 419 199 525 c 256
 199 603 255 658 322 658 c 256
 345 658 360 643 360 621 c 256
 360 607 377 591 392 591 c 256
 419 591 436 609 436 636 c 256
 436 686 399 717 340 718 c 256
 237 720 147 638 147 534 c 256
 147 412 209 328 299 328 c 256
 356 328 399 366 399 416 c 256
 399 465 356 498 290 499 c 256
 177 500 90 394 90 249 c 256
 90 93 223 -15 413 -15 c 256
EndSplineSet
Guideline: "" "" 615 607 0 0 0
Substitution2: "'smcp' Lowercase to Small Capitals in Latin lookup 21 subtable" ampersand.sc
Substitution2: "'c2sc' Capitals to Small Capitals in Latin lookup 20 subtable" ampersand.sc
Substitution2: "'sups' Superscript in Latin lookup 10 subtable" ampersand.sups
Substitution2: "'sinf' Scientific Inferiors in Latin lookup 9 subtable" ampersand.sinf
Substitution2: "'subs' Subscript in Latin lookup 8 subtable" ampersand.subs
Comment: "+AAoA-ampersand+AAoA"
EndChar
StartChar: quotesingle
Encoding: 1280 39 1279
GlifName: quotesingle
Width: 200
VWidth: 0
Flags: W
LayerCount: 2
Fore
SplineSet
150 444 m 256
 155 444 168 457 176 469 c 256
 201 506 235 555 265 624 c 256
 274 645 284 676 270 676 c 256
 255 676 242 667 223 655 c 256
 212 648 198 633 195 619 c 256
 186 577 178 547 167 515 c 256
 162 500 157 484 151 467 c 256
 148 458 145 444 150 444 c 256
EndSplineSet
PickledDataWithLists: "(dp0
Vpublic.markColor
p1
V0.67,0.95,0.38,1
p2
s."
Substitution2: "'smcp' Lowercase to Small Capitals in Latin lookup 21 subtable" quotesingle.sc
Substitution2: "'c2sc' Capitals to Small Capitals in Latin lookup 20 subtable" quotesingle.sc
Substitution2: "'sups' Superscript in Latin lookup 10 subtable" quotesingle.sups
Substitution2: "'sinf' Scientific Inferiors in Latin lookup 9 subtable" quotesingle.sinf
Substitution2: "'subs' Subscript in Latin lookup 8 subtable" quotesingle.subs
Comment: "+AAoA-quotesingle+AAoA"
EndChar
StartChar: parenleft
Encoding: 1202 40 1201
GlifName: parenleft
Width: 308
VWidth: 0
Flags: W
LayerCount: 2
Back
SplineSet
122 -216 m 256
 131 -216 135 -206 131 -194 c 256
 100 -100 87 -26 87 48 c 256
 87 306 231 513 394 676 c 256
 405 687 408 694 408 699 c 256
 408 703 403 705 398 705 c 256
 390 705 379 701 369 693 c 256
 167 532 30 311 30 72 c 256
 30 -5 44 -83 80 -177 c 256
 90 -203 106 -216 122 -216 c 256
EndSplineSet
Fore
SplineSet
122 -216 m 256
 131 -216 135 -206 131 -194 c 256
 100 -100 101 -26 101 89 c 256
 101 306 240 513 394 676 c 256
 405 687 408 694 408 699 c 256
 408 703 403 705 398 705 c 256
 390 705 379 701 369 693 c 256
 167 532 30 311 30 72 c 256
 30 -5 44 -83 80 -177 c 256
 90 -203 106 -216 122 -216 c 256
EndSplineSet
Guideline: "" "" -9 40 73 0 0
Guideline: "" "" 6 -107 73 0 0
Substitution2: "'ss04' Style Set 4 in Latin lookup 35 subtable" uni2619
Substitution2: "'ss02' Style Set 2 in Latin lookup 32 subtable" uni261C
Substitution2: "'smcp' Lowercase to Small Capitals in Latin lookup 21 subtable" parenleft.sc
Substitution2: "'c2sc' Capitals to Small Capitals in Latin lookup 20 subtable" parenleft.sc
Substitution2: "'sups' Superscript in Latin lookup 10 subtable" parenleft.sups
Substitution2: "'sinf' Scientific Inferiors in Latin lookup 9 subtable" parenleft.sinf
Substitution2: "'subs' Subscript in Latin lookup 8 subtable" parenleft.subs
Comment: "+AAoA-parenleft+AAoA"
EndChar
StartChar: asterisk
Encoding: 573 42 572
GlifName: asterisk
Width: 339
VWidth: 0
Flags: W
LayerCount: 2
Back
SplineSet
213 378 m 256
 221 378 226 385 230 393 c 257
 244 425 255 453 264 480 c 257
 283 459 305 437 328 411 c 257
 331.152 407.848 338.239 405 344 405 c 256
 350.558 405 358 409.524 358 419 c 256
 358 424 356 430 353 434 c 257
 333 463 315 485 297 507 c 257
 327 514 357 521 387 528 c 257
 394.686 530.196 404 536.191 404 545 c 256
 404 553.249 394.44 562 386 562 c 256
 378 562 315.596 553.928 288 549 c 257
 296.656 577.533 316 638 316 645 c 256
 316 654.16 310.271 664 300 664 c 256
 292 664 287 657 283 649 c 257
 269 617 258 589 249 562 c 257
 230 583 208 605 185 631 c 257
 181.848 634.152 174.761 637 169 637 c 256
 162.442 637 155 632.476 155 623 c 256
 155 618 157 612 160 608 c 257
 180 579 198 557 216 535 c 257
 216 535 138.496 516.583 126 513 c 256
 118.319 510.798 109 504.809 109 496 c 256
 109 487.751 118.592 479.265 127 480 c 256
 161 483 197 488 225 493 c 257
 225 493 200 418 198 404 c 256
 195.795 391.493 202.073 378 213 378 c 256
EndSplineSet
Fore
SplineSet
211 378 m 256
 219 378 225 387 229 395 c 256
 243 427 255 453 264 480 c 257
 283 459 305 441 328 415 c 256
 331 412 341 405 347 405 c 256
 354 405 357 408 357 417 c 256
 357 422 352 433 349 437 c 256
 329 466 315 485 297 507 c 257
 327 514 355 523 385 530 c 256
 393 532 404 536.191 404 545 c 256
 404 553.249 393 558 385 558 c 256
 377 558 315.596 553.928 288 549 c 257
 296.656 577.533 312 638 312 645 c 256
 312 654 312 664 302 664 c 256
 294 664 289 655 285 647 c 256
 271 615 258 589 249 562 c 257
 230 583 211 601 186 625 c 256
 183 628 173 636 167 636 c 256
 160 636 158 633 158 624 c 256
 158 619 160 613 163 609 c 256
 183 580 198 557 216 535 c 257
 216 535 140 514 128 510 c 256
 120 508 109 503 109 494 c 256
 109 486 120 484 128 484 c 256
 161 485 197 488 225 493 c 257
 225 493 204 418 202 404 c 256
 200 391 200 378 211 378 c 256
EndSplineSet
PickledDataWithLists: "(dp0
Vpublic.markColor
p1
V0.67,0.95,0.38,1
p2
s."
Substitution2: "'ss04' Style Set 4 in Latin lookup 35 subtable" uni2766
Substitution2: "'smcp' Lowercase to Small Capitals in Latin lookup 21 subtable" asterisk.sc
Substitution2: "'c2sc' Capitals to Small Capitals in Latin lookup 20 subtable" asterisk.sc
Substitution2: "'sups' Superscript in Latin lookup 10 subtable" asterisk.sups
Substitution2: "'sinf' Scientific Inferiors in Latin lookup 9 subtable" asterisk.sinf
Substitution2: "'subs' Subscript in Latin lookup 8 subtable" asterisk.subs
Comment: "+AAoA-asterisk+AAoA"
EndChar
StartChar: plus
Encoding: 1240 43 1239
GlifName: plus
Width: 590
VWidth: 0
Flags: W
LayerCount: 2
Fore
SplineSet
282 -8 m 256
 291 -8 330 -5 330 16 c 258
 330 218 l 258
 330 221 331 222 334 222 c 258
 519 222 l 258
 538 222 544 241 550 258 c 257
 553 265 544 272 537 272 c 258
 334 272 l 258
 331 272 330 271 330 278 c 258
 330 469 l 258
 330 476 323 482 316 482 c 256
 310 482 270 473 270 451 c 258
 270 280 l 258
 270 274 269 272 263 272 c 258
 74 272 l 258
 56 272 50 243 50 234 c 256
 50 228 57 222 64 222 c 258
 266 222 l 258
 269 222 270 220 270 217 c 258
 270 6 l 258
 270 -1 276 -8 282 -8 c 256
EndSplineSet
PickledDataWithLists: "(dp0
Vpublic.markColor
p1
V0.67,0.95,0.38,1
p2
s."
Substitution2: "'smcp' Lowercase to Small Capitals in Latin lookup 21 subtable" plus.sc
Substitution2: "'c2sc' Capitals to Small Capitals in Latin lookup 20 subtable" plus.sc
Substitution2: "'sups' Superscript in Latin lookup 10 subtable" plus.sups
Substitution2: "'sinf' Scientific Inferiors in Latin lookup 9 subtable" plus.sinf
Substitution2: "'subs' Subscript in Latin lookup 8 subtable" plus.subs
Comment: "+AAoA-plus+AAoA"
EndChar
StartChar: comma
Encoding: 685 44 684
GlifName: comma
Width: 215
VWidth: 0
Flags: W
LayerCount: 2
Back
SplineSet
-32 -129 m 256
 29 -129 125 -50 125 50 c 256
 125 84 101 120 67 120 c 256
 32 120 4 103 4 80 c 256
 4 64 19 60 34 55 c 256
 49 50 65 45 65 25 c 256
 65 -25 27 -73 -31 -104 c 256
 -46 -112 -56 -115 -56 -121 c 256
 -56 -128 -42 -129 -32 -129 c 256
EndSplineSet
Fore
SplineSet
-32 -129 m 256
 29 -129 125 -50 125 50 c 256
 125 97 95 120 59 120 c 256
 32 120 4 103 4 80 c 256
 4 60 19 52 34 44 c 256
 49 37 66 28 66 6 c 256
 66 -35 33 -75 -25 -106 c 256
 -40 -114 -50 -117 -50 -123 c 256
 -50 -130 -42 -129 -32 -129 c 256
EndSplineSet
PickledDataWithLists: "(dp0
Vpublic.markColor
p1
V0.67,0.95,0.38,1
p2
s."
Substitution2: "'smcp' Lowercase to Small Capitals in Latin lookup 21 subtable" comma.sc
Substitution2: "'c2sc' Capitals to Small Capitals in Latin lookup 20 subtable" comma.sc
Substitution2: "'sups' Superscript in Latin lookup 10 subtable" comma.sups
Substitution2: "'sinf' Scientific Inferiors in Latin lookup 9 subtable" comma.sinf
Substitution2: "'subs' Subscript in Latin lookup 8 subtable" comma.subs
Comment: "+AAoA-comma+AAoA"
EndChar
StartChar: hyphen
Encoding: 956 45 955
GlifName: hyphen
Width: 268
VWidth: 0
Flags: W
LayerCount: 2
Fore
SplineSet
38 170 m 256
 97 178 155 187 214 195 c 256
 234 198 250 224 250 247 c 256
 250 254 248 256 242 255 c 256
 181 247 120 238 59 230 c 256
 48 229 27 206 27 184 c 256
 27 177 33 169 38 170 c 256
EndSplineSet
PickledDataWithLists: "(dp0
Vpublic.markColor
p1
V0.67,0.95,0.38,1
p2
s."
Substitution2: "'smcp' Lowercase to Small Capitals in Latin lookup 21 subtable" hyphen.sc
Substitution2: "'c2sc' Capitals to Small Capitals in Latin lookup 20 subtable" hyphen.sc
Substitution2: "'sups' Superscript in Latin lookup 10 subtable" hyphen.sups
Substitution2: "'sinf' Scientific Inferiors in Latin lookup 9 subtable" hyphen.sinf
Substitution2: "'subs' Subscript in Latin lookup 8 subtable" hyphen.subs
Comment: "+AAoA-hyphen+AAoA"
EndChar
StartChar: period
Encoding: 1223 46 1222
GlifName: period
Width: 215
VWidth: 0
Flags: W
LayerCount: 2
Fore
SplineSet
49 -14 m 256
 85 -14 114 15 114 51 c 256
 114 77 95 101 69 101 c 256
 33 101 4 72 4 36 c 256
 4 10 23 -14 49 -14 c 256
EndSplineSet
PickledDataWithLists: "(dp0
Vpublic.markColor
p1
V0.67,0.95,0.38,1
p2
s."
Substitution2: "'smcp' Lowercase to Small Capitals in Latin lookup 21 subtable" period.sc
Substitution2: "'c2sc' Capitals to Small Capitals in Latin lookup 20 subtable" period.sc
Substitution2: "'sups' Superscript in Latin lookup 10 subtable" period.sups
Substitution2: "'sinf' Scientific Inferiors in Latin lookup 9 subtable" period.sinf
Substitution2: "'subs' Subscript in Latin lookup 8 subtable" period.subs
Comment: "+AAoA-period+AAoA"
EndChar
StartChar: slash
Encoding: 1367 47 1366
GlifName: slash
Width: 276
VWidth: 0
Flags: W
LayerCount: 2
Fore
SplineSet
-46 -62 m 256
 -30 -62 -16 -61 -8 -47 c 258
 394 648 l 257
 398 654 394 665 387 665 c 256
 370 665 355 663 346 648 c 258
 -56 -47 l 257
 -60 -53 -53 -62 -46 -62 c 256
EndSplineSet
PickledDataWithLists: "(dp0
Vpublic.markColor
p1
V0.67,0.95,0.38,1
p2
s."
Substitution2: "'smcp' Lowercase to Small Capitals in Latin lookup 21 subtable" slash.sc
Substitution2: "'c2sc' Capitals to Small Capitals in Latin lookup 20 subtable" slash.sc
Substitution2: "'sups' Superscript in Latin lookup 10 subtable" slash.sups
Substitution2: "'sinf' Scientific Inferiors in Latin lookup 9 subtable" slash.sinf
Substitution2: "'subs' Subscript in Latin lookup 8 subtable" slash.subs
Comment: "+AAoA-slash+AAoA"
EndChar
StartChar: zero
Encoding: 48 48 83
Width: 440
VWidth: 0
Flags: MW
LayerCount: 2
Fore
SplineSet
298 384 m 16
 206 384 108 176 108 45 c 8
 108 28 121 15 138 15 c 16
 221 15 327 203 327 354 c 8
 327 370 314 384 298 384 c 16
308 414 m 8
 354 414 391 376 391 330 c 8
 391 160 268 -15 123 -15 c 8
 78 -15 45 24 45 69 c 16
 45 226 163 414 308 414 c 8
EndSplineSet
Validated: 1
Substitution2: "'tnum' Tabular Numbers lookup 35 subtable" zero.taboldstyle
Substitution2: "'lnum' Lining Figures lookup 33 subtable" zero.lnum
Substitution2: "Single Substitution lookup 32 subtable" zero.ordn
Substitution2: "Single Substitution lookup 31 subtable" zero.subs
Substitution2: "sups subtable" zero.sups
Substitution2: "sinf subtable" zero.sinf
Substitution2: "ordn subtable" zero.ordn
Substitution2: "subs subtable" zero.subs
EndChar
StartChar: one
Encoding: 1159 49 1158
GlifName: one
Width: 480
VWidth: 0
Flags: W
LayerCount: 2
Back
SplineSet
44 -3 m 256
 94 -3 147 2 197 2 c 256
 242 2 275 -3 328 -3 c 256
 335 -3 342 2 344 8 c 256
 346 14 340 20 333 22 c 256
 277 38 244 37 259 86 c 258
 404 557 l 258
 413 585 421 608 430 628 c 257
 432 633 427 637 422 637 c 256
 418 637 413 635 409 633 c 256
 366 612 296 579 241 574 c 256
 231 573 218 567 218 556 c 256
 218 549 226 544 233 543 c 256
 286 535 321 524 306 477 c 258
 190 103 l 258
 174 52 118 35 51 22 c 256
 41 20 32 15 32 6 c 256
 32 1 39 -3 44 -3 c 256
EndSplineSet
Fore
SplineSet
44 -3 m 256
 94 -3 147 2 197 2 c 256
 242 2 288 -3 341 -3 c 256
 348 -3 355 2 357 8 c 256
 359 14 353 20 346 22 c 256
 290 38 244 37 259 86 c 258
 404 557 l 258
 413 585 421 608 430 628 c 257
 432 633 427 637 422 637 c 256
 418 637 413 635 409 633 c 256
 366 612 296 579 241 574 c 256
 231 573 218 567 218 556 c 256
 218 549 226 544 233 543 c 256
 286 535 321 524 306 477 c 258
 190 103 l 258
 174 52 118 35 51 22 c 256
 41 20 32 15 32 6 c 256
 32 1 39 -3 44 -3 c 256
EndSplineSet
PickledDataWithLists: "(dp0
Vpublic.markColor
p1
V0.67,0.95,0.38,1
p2
s."
Substitution2: "'case' Case-Sensitive Forms in Latin lookup 24 subtable" one.lf
Substitution2: "'smcp' Lowercase to Small Capitals in Latin lookup 21 subtable" one.sc
Substitution2: "'c2sc' Capitals to Small Capitals in Latin lookup 20 subtable" one.sc
Substitution2: "'onum' Oldstyle Figures in Latin lookup 18 subtable" one.tosf
Substitution2: "'pnum' Proportional Numbers in Latin lookup 16 subtable" one.lf
Substitution2: "'sups' Superscript in Latin lookup 10 subtable" onesuperior
Substitution2: "'sinf' Scientific Inferiors in Latin lookup 9 subtable" oneinferior
Substitution2: "'subs' Subscript in Latin lookup 8 subtable" one.subs
Comment: "+AAoA-one.tablining+AAoA"
EndChar
StartChar: colon
Encoding: 678 58 677
GlifName: colon
Width: 216
VWidth: 0
Flags: W
LayerCount: 2
Back
SplineSet
79 101 m 256
 43 101 14 72 14 36 c 256
 14 10 33 -14 59 -14 c 256
 95 -14 124 15 124 51 c 256
 124 77 105 101 79 101 c 256
160 383 m 256
 124 383 95 354 95 318 c 256
 95 292 114 268 140 268 c 256
 176 268 205 297 205 333 c 256
 205 359 186 383 160 383 c 256
EndSplineSet
Fore
Refer: 1222 46 N 1 0 0 1 86 276 2
Refer: 1222 46 N 1 0 0 1 1 0 2
PickledDataWithLists: "(dp0
Vcom.schriftgestaltung.Glyphs.glyph.leftMetricsKey
p1
Vperiod
p2
sVcom.schriftgestaltung.Glyphs.glyph.rightMetricsKey
p3
Vperiod
p4
sVpublic.markColor
p5
V0.67,0.95,0.38,1
p6
s."
Substitution2: "'smcp' Lowercase to Small Capitals in Latin lookup 21 subtable" colon.sc
Substitution2: "'c2sc' Capitals to Small Capitals in Latin lookup 20 subtable" colon.sc
Substitution2: "'sups' Superscript in Latin lookup 10 subtable" colon.sups
Substitution2: "'sinf' Scientific Inferiors in Latin lookup 9 subtable" colon.sinf
Substitution2: "'subs' Subscript in Latin lookup 8 subtable" colon.subs
Comment: "+AAoA-colon+AAoA"
EndChar
StartChar: less
Encoding: 1043 60 1042
GlifName: less
Width: 590
VWidth: 0
Flags: W
LayerCount: 2
Fore
SplineSet
520 -4 m 257
 527 -6 537 0 537 11 c 256
 537 20 532 46 513 55 c 258
 133 229 l 257
 130 230 129 233 132 234 c 257
 505 408 l 258
 525 417 537 436 537 454 c 256
 537 469 527 471 516 466 c 258
 86 268 l 258
 66 259 53 231 53 222 c 256
 53 216 77 203 94 195 c 258
 520 -4 l 257
EndSplineSet
PickledDataWithLists: "(dp0
Vpublic.markColor
p1
V0.67,0.95,0.38,1
p2
s."
Substitution2: "'ss04' Style Set 4 in Latin lookup 35 subtable" bullet.03
Substitution2: "'ss02' Style Set 2 in Latin lookup 32 subtable" bullet.02
Substitution2: "'smcp' Lowercase to Small Capitals in Latin lookup 21 subtable" less.sc
Substitution2: "'c2sc' Capitals to Small Capitals in Latin lookup 20 subtable" less.sc
Substitution2: "'sups' Superscript in Latin lookup 10 subtable" less.sups
Substitution2: "'sinf' Scientific Inferiors in Latin lookup 9 subtable" less.sinf
Substitution2: "'subs' Subscript in Latin lookup 8 subtable" less.subs
Comment: "+AAoA-less+AAoA"
EndChar
StartChar: equal
Encoding: 801 61 800
GlifName: equal
Width: 590
VWidth: 0
Flags: W
LayerCount: 2
Fore
SplineSet
81 314 m 258
 526 314 l 258
 542 314 558 339 558 353 c 256
 558 359 550 364 544 364 c 258
 91 364 l 258
 73 364 67 335 67 326 c 256
 67 320 74 314 81 314 c 258
81 143 m 258
 526 143 l 258
 542 143 558 164 558 182 c 256
 558 188 550 193 544 193 c 258
 91 193 l 258
 73 193 67 164 67 155 c 256
 67 149 74 143 81 143 c 258
EndSplineSet
PickledDataWithLists: "(dp0
Vpublic.markColor
p1
V0.67,0.95,0.38,1
p2
s."
Substitution2: "'smcp' Lowercase to Small Capitals in Latin lookup 21 subtable" equal.sc
Substitution2: "'c2sc' Capitals to Small Capitals in Latin lookup 20 subtable" equal.sc
Substitution2: "'sups' Superscript in Latin lookup 10 subtable" equal.sups
Substitution2: "'sinf' Scientific Inferiors in Latin lookup 9 subtable" equal.sinf
Substitution2: "'subs' Subscript in Latin lookup 8 subtable" equal.subs
Comment: "+AAoA-equal+AAoA"
EndChar
StartChar: greater
Encoding: 917 62 916
GlifName: greater
Width: 590
VWidth: 0
Flags: W
LayerCount: 2
Fore
SplineSet
78 -2 m 258
 504 195 l 258
 524 204 537 232 537 241 c 256
 537 247 513 260 496 268 c 258
 67 468 l 257
 66 468 65 469 64 469 c 256
 58 469 53 461 53 456 c 256
 53 447 58 417 77 408 c 258
 457 234 l 257
 460 233 461 230 458 229 c 257
 85 55 l 258
 65 46 54 25 54 13 c 256
 54 -5 65 -8 78 -2 c 258
EndSplineSet
PickledDataWithLists: "(dp0
Vpublic.markColor
p1
V0.67,0.95,0.38,1
p2
s."
Substitution2: "'ss04' Style Set 4 in Latin lookup 35 subtable" uni2767.01
Substitution2: "'ss02' Style Set 2 in Latin lookup 32 subtable" bullet.01
Substitution2: "'smcp' Lowercase to Small Capitals in Latin lookup 21 subtable" greater.sc
Substitution2: "'c2sc' Capitals to Small Capitals in Latin lookup 20 subtable" greater.sc
Substitution2: "'sups' Superscript in Latin lookup 10 subtable" greater.sups
Substitution2: "'sinf' Scientific Inferiors in Latin lookup 9 subtable" greater.sinf
Substitution2: "'subs' Subscript in Latin lookup 8 subtable" greater.subs
Comment: "+AAoA-greater+AAoA"
EndChar
StartChar: question
Encoding: 1259 63 1258
GlifName: question
Width: 316
VWidth: 0
Flags: W
LayerCount: 2
Back
SplineSet
150 176 m 256
 154 176 161 177 161 182 c 256
 161 189 159 196 156 204 c 256
 153 215 150 227 150 241 c 256
 150 273 161 291 201 312 c 258
 289 357 l 258
 337 382 368 424 368 496 c 256
 368 588 318 661 238 661 c 256
 207 661 170 641 170 607 c 256
 170 589 179 580 194 580 c 256
 203 580 209 585 221 589 c 256
 229 592 239 594 254 594 c 256
 304 594 333 561 333 519 c 256
 333 460 290 428 240 404 c 256
 126 352 110 320 110 268 c 256
 110 230 144 176 150 176 c 256
134 -14 m 256
 168 -14 196 14 196 48 c 256
 196 72 178 95 153 95 c 256
 119 95 92 68 92 33 c 256
 92 9 110 -14 134 -14 c 256
EndSplineSet
Fore
SplineSet
150 176 m 256
 154 176 161 177 161 182 c 256
 161 189 159 196 156 204 c 256
 153 215 150 227 150 241 c 256
 150 273 161 291 201 312 c 258
 289 357 l 258
 337 382 368 424 368 496 c 256
 368 588 318 661 238 661 c 256
 202 661 170 634 170 607 c 256
 170 589 179 580 194 580 c 256
 203 580 209 585 221 589 c 256
 229 592 238 597 255 597 c 256
 305 597 337 572 337 526 c 256
 337 467 290 428 240 404 c 256
 126 352 110 320 110 268 c 256
 110 230 144 176 150 176 c 256
134 -14 m 256
 168 -14 196 14 196 48 c 256
 196 72 178 95 153 95 c 256
 119 95 92 68 92 33 c 256
 92 9 110 -14 134 -14 c 256
EndSplineSet
PickledDataWithLists: "(dp0
Vpublic.markColor
p1
V0.67,0.95,0.38,1
p2
s."
Substitution2: "'smcp' Lowercase to Small Capitals in Latin lookup 21 subtable" question.sc
Substitution2: "'c2sc' Capitals to Small Capitals in Latin lookup 20 subtable" question.sc
Substitution2: "'sups' Superscript in Latin lookup 10 subtable" question.sups
Substitution2: "'sinf' Scientific Inferiors in Latin lookup 9 subtable" question.sinf
Substitution2: "'subs' Subscript in Latin lookup 8 subtable" question.subs
Comment: "+AAoA-question+AAoA"
EndChar
StartChar: at
Encoding: 579 64 578
GlifName: at
Width: 761
VWidth: 0
Flags: W
LayerCount: 2
Back
SplineSet
286 -131 m 256
 429 -131 564 -41 572 -17 c 256
 574 -8 571 -4 562 -4 c 256
 557 -4 548 -8 540 -14 c 256
 476 -63 402 -91 310 -91 c 256
 175 -91 86 -35 86 109 c 256
 86 311 280 470 441 470 c 256
 600 470 680 381 680 283 c 256
 680 184 607 74 500 74 c 256
 468 74 474 104 485 127 c 258
 561 288 l 258
 569 304 583 328 600 352 c 257
 604 356 588 360 584 360 c 256
 574 360 563 341 553 341 c 256
 549 341 546 343 532 347 c 256
 512 353 491 357 470 357 c 256
 296 357 199 237 196 146 c 256
 194 91 227 47 298 47 c 256
 349 47 395 81 410 91 c 256
 421 98 424 96 424 88 c 256
 423 65 427 32 471 32 c 256
 632 32 728 172 728 288 c 256
 728 385 635 507 463 507 c 256
 202 507 32 280 32 91 c 256
 32 -30 110 -131 286 -131 c 256
328 81 m 256
 284 81 264 115 264 158 c 256
 266 230 327 326 439 326 c 256
 471 326 495 313 495 285 c 256
 495 284 494 265 488 255 c 258
 437 152 l 258
 421 121 409 111 395 103 c 256
 370 89 352 81 328 81 c 256
EndSplineSet
Fore
SplineSet
306 -137 m 256
 449 -137 584 -50 592 -26 c 256
 595 -17 591 -13 582 -13 c 256
 577 -13 568 -17 560 -23 c 256
 496 -71 422 -97 330 -97 c 256
 179 -97 86 -39 86 109 c 256
 86 311 280 470 441 470 c 256
 600 470 680 381 680 283 c 256
 680 184 607 74 500 74 c 256
 468 74 474 104 485 127 c 258
 561 288 l 258
 569 304 583 328 600 352 c 257
 604 356 588 360 584 360 c 256
 574 360 563 341 553 341 c 256
 549 341 546 343 532 347 c 256
 512 353 491 357 470 357 c 256
 296 357 199 237 196 146 c 256
 194 91 227 47 298 47 c 256
 349 47 395 81 410 91 c 256
 421 98 424 96 424 88 c 256
 423 65 427 32 471 32 c 256
 632 32 728 172 728 288 c 256
 728 385 635 507 463 507 c 256
 202 507 32 280 32 91 c 256
 32 -34 117 -137 306 -137 c 256
328 81 m 256
 284 81 264 115 264 158 c 256
 266 230 327 326 439 326 c 256
 485 326 502 318 502 300 c 256
 502 291 498 280 492 266 c 258
 437 152 l 258
 422 121 409 111 395 103 c 256
 370 89 352 81 328 81 c 256
EndSplineSet
Substitution2: "'smcp' Lowercase to Small Capitals in Latin lookup 21 subtable" at.sc
Substitution2: "'c2sc' Capitals to Small Capitals in Latin lookup 20 subtable" at.sc
Substitution2: "'sups' Superscript in Latin lookup 10 subtable" at.sups
Substitution2: "'sinf' Scientific Inferiors in Latin lookup 9 subtable" at.sinf
Substitution2: "'subs' Subscript in Latin lookup 8 subtable" at.subs
Comment: "+AAoA-at+AAoA"
EndChar
StartChar: A
Encoding: 1 65 1
GlifName: A_
Width: 658
VWidth: 0
Flags: W
AnchorPoint: "bottom.cap" 256 -30 basechar 0
AnchorPoint: "top.cap" 598 675 basechar 0
LayerCount: 2
Back
SplineSet
-36 -5 m 256
 -5 -5 48 1 89 1 c 256
 123 1 150 -1 167 -1 c 256
 183 -1 195 3 195 12 c 256
 195 22 185 29 170 34 c 256
 147 42 125 52 163 102 c 258
 261 231 l 258
 272 245 283 247 304 249 c 258
 421 258 l 258
 440 259 455 251 450 231 c 258
 419 112 l 258
 404 56 387 43 321 32 c 256
 304 29 291 21 293 12 c 256
 295 4 301 0 317 0 c 256
 339 0 380 1 416 1 c 256
 458 1 511 -5 537 -5 c 256
 559 -5 568 -1 568 7 c 256
 568 16 557 19 536 25 c 256
 498 36 488 58 501 122 c 258
 605 644 l 258
 610 670 606 676 600 676 c 256
 593 676 589 670 570 649 c 256
 554 632 550 622 522 622 c 256
 514 622 500 599 476 569 c 256
 356 415 253 271 105 108 c 256
 72 71 30 44 -26 29 c 256
 -48 23 -62 18 -60 8 c 256
 -58 -1 -52 -5 -36 -5 c 256
329 283 m 258
 293 280 301 292 311 305 c 258
 494 549 l 258
 501 559 508 561 513 561 c 256
 520 561 520 554 516 538 c 258
 468 319 l 258
 463 298 455 292 441 291 c 258
 329 283 l 258
EndSplineSet
Fore
SplineSet
-36 -5 m 256
 -5 -5 48 1 89 1 c 256
 123 1 150 -1 167 -1 c 256
 183 -1 195 3 195 12 c 256
 195 22 185 29 170 34 c 256
 147 42 126 53 163 102 c 258
 266 238 l 258
 276 252 288 256 309 256 c 258
 421 258 l 258
 440 258 455 251 450 231 c 258
 419 112 l 258
 404 56 387 43 321 32 c 256
 304 29 291 21 293 12 c 256
 295 4 301 0 317 0 c 256
 339 0 380 1 416 1 c 256
 458 1 511 -5 537 -5 c 256
 559 -5 568 -1 568 7 c 256
 568 16 557 19 536 25 c 256
 498 36 488 58 501 122 c 258
 605 644 l 258
 610 670 606 676 600 676 c 256
 593 676 589 670 570 649 c 256
 554 632 550 622 522 622 c 256
 514 622 500 599 476 569 c 256
 356 415 253 271 105 108 c 256
 72 71 30 44 -26 29 c 256
 -48 23 -62 18 -60 8 c 256
 -58 -1 -52 -5 -36 -5 c 256
334 290 m 258
 298 290 306 299 316 312 c 258
 494 549 l 258
 501 559 508 561 513 561 c 256
 520 561 520 554 516 538 c 258
 468 319 l 258
 463 298 455 291 441 291 c 258
 334 290 l 258
EndSplineSet
PickledDataWithLists: "(dp0
Vpublic.markColor
p1
V0.67,0.95,0.38,1
p2
s."
Substitution2: "'swsh' Swash in Latin lookup 30 subtable" A.swsh
Substitution2: "'c2pc' Capitals to Petite Capitals in Latin lookup 22 subtable" A.pc
Substitution2: "'c2sc' Capitals to Small Capitals in Latin lookup 20 subtable" A.sc
Substitution2: "Single Substitution lookup 13 subtable" ordfeminine
Substitution2: "'sups' Superscript in Latin lookup 10 subtable" A.sups
Substitution2: "'sinf' Scientific Inferiors in Latin lookup 9 subtable" A.sinf
Substitution2: "'subs' Subscript in Latin lookup 8 subtable" A.subs
Comment: "+AAoA-A+AAoA"
EndChar
StartChar: B
Encoding: 34 66 34
GlifName: B_
Width: 572
VWidth: 0
Flags: W
AnchorPoint: "bottom.cap" 243 -30 basechar 0
AnchorPoint: "top.cap" 401 675 basechar 0
LayerCount: 2
Back
SplineSet
4 -5 m 256
 58 -5 78 3 126 3 c 256
 163 3 196 -4 252 -4 c 256
 405 -4 521 76 521 182 c 256
 521 285 472 326 395 356 c 256
 390 358 387 365 398 366 c 256
 474 376 577 430 577 525 c 256
 577 595 527 655 392 655 c 256
 367 655 320 645 290 645 c 256
 262 645 248 650 215 650 c 256
 199 650 182 647 182 638 c 256
 182 628 189 625 209 621 c 256
 254 613 264 598 249 549 c 258
 112 99 l 258
 97 51 65 33 16 24 c 256
 -7 20 -20 16 -20 6 c 256
 -20 -3 -12 -5 4 -5 c 256
249 21 m 256
 226 21 213 32 199 45 c 256
 183 59 182 84 189 108 c 258
 253 327 l 258
 256 339 264 346 274 346 c 256
 383 346 434 297 434 205 c 256
 434 99 339 21 249 21 c 256
285 371 m 256
 275 371 270 374 273 386 c 258
 335 609 l 258
 338 621 348 625 373 625 c 256
 451 625 496 580 496 525 c 256
 496 457 443 411 377 383 c 257
 345 376 316 371 285 371 c 256
EndSplineSet
Fore
SplineSet
4 -5 m 256
 58 -5 78 3 126 3 c 256
 163 3 196 -4 252 -4 c 256
 405 -4 520 76 520 192 c 256
 520 285 472 326 395 356 c 256
 390 358 387 365 398 366 c 256
 474 376 577 430 577 525 c 256
 577 595 527 655 392 655 c 256
 367 655 320 645 290 645 c 256
 262 645 248 650 215 650 c 256
 199 650 182 647 182 638 c 256
 182 628 189 625 209 621 c 256
 254 613 264 598 249 549 c 258
 112 99 l 258
 97 51 65 33 16 24 c 256
 -7 20 -20 16 -20 6 c 256
 -20 -3 -12 -5 4 -5 c 256
249 21 m 256
 226 21 213 32 199 45 c 256
 183 59 182 84 189 108 c 258
 253 327 l 258
 256 339 264 346 274 346 c 256
 383 346 439 297 439 205 c 256
 439 99 339 21 249 21 c 256
285 371 m 256
 275 371 270 374 273 386 c 258
 335 609 l 258
 338 621 348 625 373 625 c 256
 451 625 496 580 496 525 c 256
 496 457 443 411 377 383 c 257
 345 376 316 371 285 371 c 256
EndSplineSet
PickledDataWithLists: "(dp0
Vcom.schriftgestaltung.Glyphs.glyph.leftMetricsKey
p1
VH
p2
sVpublic.markColor
p3
V0.67,0.95,0.38,1
p4
s."
Substitution2: "'swsh' Swash in Latin lookup 30 subtable" B.swsh
Substitution2: "'c2pc' Capitals to Petite Capitals in Latin lookup 22 subtable" B.pc
Substitution2: "'c2sc' Capitals to Small Capitals in Latin lookup 20 subtable" B.sc
Substitution2: "'sups' Superscript in Latin lookup 10 subtable" B.sups
Substitution2: "'sinf' Scientific Inferiors in Latin lookup 9 subtable" B.sinf
Substitution2: "'subs' Subscript in Latin lookup 8 subtable" B.subs
Comment: "+AAoA-B+AAoA"
EndChar
StartChar: C
Encoding: 43 67 43
GlifName: C_
Width: 631
VWidth: 0
Flags: W
AnchorPoint: "top.cap" 488 675 basechar 0
LayerCount: 2
Back
SplineSet
330 -14 m 256
 365 -14 393 -7 413 0 c 256
 431 6 445 11 454 11 c 256
 462 11 469 7 475 2 c 256
 482 -3 489 -9 494 -9 c 256
 507 -9 566 118 566 138 c 256
 566 151 565 158 559 158 c 256
 548 158 542 149 536 139 c 256
 498 75 448 19 357 19 c 256
 272 19 166 70 166 232 c 256
 166 458 342 630 486 630 c 256
 532 630 566 614 589 585 c 256
 612 556 610 523 604 493 c 256
 602 481 607 467 619 467 c 256
 626 467 635 477 637 487 c 256
 646 532 682 599 704 629 c 257
 708 634 709 645 697 645 c 256
 682 645 665 630 653 630 c 256
 639 630 621 638 596 646 c 256
 559 659 522 665 485 665 c 256
 268 665 78 479 78 240 c 256
 78 84 221 -14 330 -14 c 256
EndSplineSet
Fore
SplineSet
330 -14 m 256
 365 -14 393 -7 413 0 c 256
 431 6 445 11 454 11 c 256
 462 11 469 7 475 2 c 256
 482 -3 489 -9 494 -9 c 256
 507 -9 566 118 566 138 c 256
 566 151 565 158 559 158 c 256
 548 158 542 149 536 139 c 256
 496 71 459 17 357 17 c 256
 272 17 166 70 166 232 c 256
 166 458 338 634 482 634 c 256
 528 634 566 614 589 585 c 256
 612 556 610 523 604 493 c 256
 602 481 607 467 619 467 c 256
 626 467 635 477 637 487 c 256
 646 532 682 599 704 629 c 257
 708 634 709 645 697 645 c 256
 690 645 682 641 674 638 c 256
 666 634 659 630 653 630 c 256
 639 630 621 638 596 646 c 256
 559 659 522 665 485 665 c 256
 268 665 78 479 78 240 c 256
 78 84 221 -14 330 -14 c 256
EndSplineSet
PickledDataWithLists: "(dp0
Vcom.schriftgestaltung.Glyphs.glyph.leftMetricsKey
p1
VO
p2
sVpublic.markColor
p3
V0.67,0.95,0.38,1
p4
s."
Substitution2: "'swsh' Swash in Latin lookup 30 subtable" C.swsh
Substitution2: "'c2pc' Capitals to Petite Capitals in Latin lookup 22 subtable" C.pc
Substitution2: "'c2sc' Capitals to Small Capitals in Latin lookup 20 subtable" C.sc
Substitution2: "'sups' Superscript in Latin lookup 10 subtable" C.sups
Substitution2: "'sinf' Scientific Inferiors in Latin lookup 9 subtable" C.sinf
Substitution2: "'subs' Subscript in Latin lookup 8 subtable" C.subs
Comment: "+AAoA-C+AAoA"
EndChar
StartChar: D
Encoding: 68 68 68
GlifName: D_
Width: 752
VWidth: 0
Flags: W
AnchorPoint: "bottom.cap" 301 -30 basechar 0
AnchorPoint: "top.cap" 475 675 basechar 0
LayerCount: 2
Back
SplineSet
317 -7 m 256
 570 -7 765 174 765 377 c 256
 765 560 619 655 432 655 c 256
 385 655 369 649 329 649 c 256
 287 649 245 653 192 653 c 256
 176 653 162 650 162 642 c 256
 162 633 166 626 186 622 c 256
 230 613 288 608 273 560 c 258
 123 99 l 258
 107 51 95 26 32 24 c 256
 9 23 -4 15 -4 6 c 256
 -4 -2 4 -5 20 -5 c 256
 69 -5 87 0 124 0 c 256
 197 0 298 -7 317 -7 c 256
325 28 m 256
 194 28 183 52 211 141 c 258
 347 567 l 258
 358 601 365 618 449 618 c 256
 584 618 679 548 679 395 c 256
 679 207 524 28 325 28 c 256
EndSplineSet
Fore
SplineSet
317 -7 m 256
 570 -7 745 174 745 377 c 256
 745 560 619 655 432 655 c 256
 385 655 369 649 329 649 c 256
 287 649 245 653 192 653 c 256
 176 653 162 650 162 642 c 256
 162 633 166 626 186 622 c 256
 230 613 288 608 273 560 c 258
 123 99 l 258
 107 51 95 26 32 24 c 256
 9 23 -4 15 -4 6 c 256
 -4 -2 4 -5 20 -5 c 256
 69 -5 87 0 124 0 c 256
 197 0 298 -7 317 -7 c 256
322 23 m 256
 230 23 183 52 211 141 c 258
 347 571 l 258
 358 605 358 622 442 622 c 256
 577 622 659 548 659 395 c 256
 659 207 521 23 322 23 c 256
EndSplineSet
PickledDataWithLists: "(dp0
Vcom.schriftgestaltung.Glyphs.glyph.leftMetricsKey
p1
V=|H-15
p2
sVcom.schriftgestaltung.Glyphs.glyph.rightMetricsKey
p3
VO
p4
sVpublic.markColor
p5
V0.67,0.95,0.38,1
p6
s."
Substitution2: "'swsh' Swash in Latin lookup 30 subtable" D.swsh
Substitution2: "'c2pc' Capitals to Petite Capitals in Latin lookup 22 subtable" D.pc
Substitution2: "'c2sc' Capitals to Small Capitals in Latin lookup 20 subtable" D.sc
Substitution2: "'sups' Superscript in Latin lookup 10 subtable" D.sups
Substitution2: "'sinf' Scientific Inferiors in Latin lookup 9 subtable" D.sinf
Substitution2: "'subs' Subscript in Latin lookup 8 subtable" D.subs
Comment: "+AAoA-D+AAoA"
EndChar
StartChar: E
Encoding: 81 69 81
GlifName: E_
Width: 576
VWidth: 0
Flags: W
AnchorPoint: "bottom.cap" 288 -30 basechar 0
AnchorPoint: "top.cap" 426 675 basechar 0
LayerCount: 2
Back
SplineSet
-13 -5 m 256
 37 -5 63 1 112 1 c 256
 205 1 328 -5 465 -5 c 256
 481 -5 490 3 498 16 c 256
 512 39 537 96 537 114 c 256
 537 122 536 134 530 134 c 256
 522 134 517 124 512 116 c 256
 495 88 478 67 458 53 c 256
 437 38 411 30 378 30 c 258
 223 30 l 258
 181 30 169 45 189 113 c 258
 240 291 l 258
 248 320 265 322 288 322 c 258
 403 320 l 258
 426 320 441 305 441 264 c 256
 441 257 443 237 454 237 c 256
 461 237 465 249 467 258 c 256
 473 287 479 309 487 331 c 256
 494 350 502 369 514 392 c 256
 521 406 520 420 510 420 c 256
 495 420 486 400 479 389 c 256
 465 367 442 353 408 352 c 258
 284 349 l 258
 263 348 261 356 268 380 c 258
 335 588 l 258
 342 610 352 618 384 618 c 258
 518 618 l 258
 564 618 569 605 565 541 c 256
 564 526 569 516 576 516 c 256
 582 516 591 521 593 535 c 256
 601 593 621 629 621 641 c 256
 621 646 615 654 610 654 c 256
 605 654 584 650 559 650 c 258
 314 650 l 258
 272 650 220 653 205 653 c 256
 189 653 174 650 174 642 c 256
 174 633 179 626 199 622 c 256
 254 611 258 594 244 549 c 258
 107 99 l 258
 93 54 65 36 -1 24 c 256
 -24 20 -37 15 -37 6 c 256
 -37 -2 -29 -5 -13 -5 c 256
EndSplineSet
Fore
SplineSet
-8 -5 m 256
 42 -5 63 1 112 1 c 256
 205 1 328 -5 465 -5 c 256
 481 -5 490 3 498 16 c 256
 512 39 537 96 537 114 c 256
 537 122 536 134 530 134 c 256
 522 134 517 124 512 116 c 256
 495 88 478 67 458 53 c 256
 437 38 411 26 378 26 c 258
 223 26 l 258
 181 26 170 41 189 109 c 258
 240 291 l 258
 248 320 265 322 288 322 c 258
 403 320 l 258
 426 320 441 305 441 264 c 256
 441 257 443 237 454 237 c 256
 461 237 465 249 467 258 c 256
 473 287 479 309 487 331 c 256
 494 350 502 369 514 392 c 256
 521 406 520 420 510 420 c 256
 498 420 486 400 477 389 c 256
 461 369 442 353 408 352 c 258
 284 349 l 258
 263 348 260 356 268 380 c 258
 335 592 l 258
 342 614 352 622 384 622 c 258
 506 622 l 258
 559 622 569 602 565 541 c 256
 564 526 569 516 576 516 c 256
 582 516 591 521 593 535 c 256
 601 593 623 635 623 647 c 256
 623 652 617 660 612 660 c 256
 607 660 584 650 475 650 c 258
 314 650 l 258
 272 650 208 653 193 653 c 256
 177 653 162 650 162 642 c 256
 162 633 168 628 188 625 c 256
 247 617 262 606 244 549 c 258
 107 99 l 258
 93 54 70 35 4 24 c 256
 -19 20 -32 15 -32 6 c 256
 -32 -2 -24 -5 -8 -5 c 256
EndSplineSet
PickledDataWithLists: "(dp0
Vcom.schriftgestaltung.Glyphs.glyph.leftMetricsKey
p1
VD
p2
sVpublic.markColor
p3
V0.67,0.95,0.38,1
p4
s."
Substitution2: "'swsh' Swash in Latin lookup 30 subtable" E.swsh
Substitution2: "'c2pc' Capitals to Petite Capitals in Latin lookup 22 subtable" E.pc
Substitution2: "'c2sc' Capitals to Small Capitals in Latin lookup 20 subtable" E.sc
Substitution2: "'sups' Superscript in Latin lookup 10 subtable" E.sups
Substitution2: "'sinf' Scientific Inferiors in Latin lookup 9 subtable" E.sinf
Substitution2: "'subs' Subscript in Latin lookup 8 subtable" E.subs
Comment: "+AAoA-E+AAoA"
EndChar
StartChar: F
Encoding: 132 70 132
GlifName: F_
Width: 509
VWidth: 0
Flags: W
AnchorPoint: "bottom.cap" 118 -30 basechar 0
AnchorPoint: "top.cap" 435 675 basechar 0
LayerCount: 2
Fore
SplineSet
14 -5 m 256
 64 -5 87 2 133 2 c 256
 172 2 190 -5 240 -5 c 256
 256 -5 270 -3 270 6 c 256
 270 16 265 20 245 24 c 256
 192 35 172 44 192 113 c 258
 243 291 l 258
 251 320 268 322 291 322 c 256
 309 322 383 322 406 320 c 256
 427 319 443 308 443 269 c 256
 443 262 447 246 458 246 c 256
 465 246 468 254 471 263 c 256
 484 314 494 343 517 394 c 256
 521 403 515 410 508 410 c 256
 503 410 491 400 482 389 c 256
 464 367 438 353 411 352 c 258
 276 349 l 258
 267 349 266 363 269 374 c 256
 284 423 334 579 338 588 c 256
 345 604 352 618 377 618 c 258
 521 618 l 258
 540 618 551 613 558 606 c 256
 571 593 569 570 569 546 c 256
 569 535 570 523 580 523 c 256
 593 523 596 533 597 540 c 256
 601 567 613 607 620 630 c 256
 623 640 625 647 625 652 c 256
 625 659 624 662 617 662 c 256
 612 662 567 650 476 650 c 258
 317 650 l 258
 275 650 223 653 208 653 c 256
 192 653 177 650 177 642 c 256
 177 633 182 626 202 622 c 256
 246 613 263 597 247 549 c 258
 110 99 l 258
 95 50 75 33 26 24 c 256
 3 20 -10 16 -10 6 c 256
 -10 -3 -2 -5 14 -5 c 256
EndSplineSet
PickledDataWithLists: "(dp0
Vcom.schriftgestaltung.Glyphs.glyph.leftMetricsKey
p1
VH
p2
sVpublic.markColor
p3
V0.67,0.95,0.38,1
p4
s."
Substitution2: "'swsh' Swash in Latin lookup 30 subtable" F.swsh
Substitution2: "'c2pc' Capitals to Petite Capitals in Latin lookup 22 subtable" F.pc
Substitution2: "'c2sc' Capitals to Small Capitals in Latin lookup 20 subtable" F.sc
Substitution2: "'sups' Superscript in Latin lookup 10 subtable" F.sups
Substitution2: "'sinf' Scientific Inferiors in Latin lookup 9 subtable" F.sinf
Substitution2: "'subs' Subscript in Latin lookup 8 subtable" F.subs
Comment: "+AAoA-F+AAoA"
EndChar
StartChar: G
Encoding: 140 71 140
GlifName: G_
Width: 687
VWidth: 0
Flags: W
AnchorPoint: "bottom.cap" 383 -30 basechar 0
AnchorPoint: "top" 510 675 basechar 0
AnchorPoint: "top.cap" 515 675 basechar 0
LayerCount: 2
Back
SplineSet
389 -14 m 256
 461 -14 544 26 563 42 c 257
 567 48 574 55 576 60 c 257
 567 71 562 80 562 92 c 256
 562 107 580 174 598 213 c 256
 610 240 625 251 655 256 c 256
 676 260 687 269 687 276 c 256
 687 284 678 290 666 290 c 256
 633 290 614 284 581 284 c 256
 535 284 510 290 464 290 c 256
 446 290 432 284 432 275 c 256
 432 266 449 261 463 259 c 256
 473 257 491 254 508 249 c 256
 526 244 533 233 526 208 c 258
 498 100 l 258
 489 64 447 23 402 23 c 256
 289 23 169 95 169 228 c 256
 169 431 306 628 491 628 c 256
 543 628 579 608 596 585 c 256
 617 557 618 523 613 493 c 256
 610 475 615 464 628 464 c 256
 635 464 643 474 646 487 c 256
 655 532 691 599 713 629 c 257
 717 634 718 645 706 645 c 256
 699 645 693 642 686 638 c 256
 678 634 670 629 663 629 c 256
 647 629 631 636 611 644 c 256
 587 653 557 663 514 663 c 256
 268 663 81 486 81 254 c 256
 81 73 217 -14 389 -14 c 256
EndSplineSet
Fore
SplineSet
389 -14 m 256
 448 -14 558 22 573 60 c 257
 565 72 562 80 562 92 c 256
 562 107 580 174 598 213 c 256
 610 240 625 251 655 256 c 256
 676 260 687 269 687 276 c 256
 687 284 678 290 666 290 c 256
 633 290 614 284 581 284 c 256
 535 284 510 290 464 290 c 256
 446 290 432 284 432 275 c 256
 432 266 449 263 463 260 c 256
 473 258 491 255 508 250 c 256
 526 245 532 234 526 209 c 258
 498 100 l 258
 486 53 450 14 389 14 c 256
 288 14 169 95 169 228 c 256
 169 431 310 634 495 634 c 256
 547 634 579 608 596 585 c 256
 617 557 618 523 613 493 c 256
 610 475 615 464 628 464 c 256
 635 464 643 474 646 487 c 256
 655 532 691 599 713 629 c 257
 717 634 718 645 706 645 c 256
 699 645 693 642 686 638 c 256
 678 634 670 629 663 629 c 256
 647 629 631 636 611 644 c 256
 587 653 557 663 514 663 c 256
 268 663 81 486 81 254 c 256
 81 73 217 -14 389 -14 c 256
EndSplineSet
PickledDataWithLists: "(dp0
Vcom.schriftgestaltung.Glyphs.glyph.leftMetricsKey
p1
VO
p2
sVpublic.markColor
p3
V0.67,0.95,0.38,1
p4
s."
Substitution2: "'swsh' Swash in Latin lookup 30 subtable" G.swsh
Substitution2: "'c2pc' Capitals to Petite Capitals in Latin lookup 22 subtable" G.pc
Substitution2: "'c2sc' Capitals to Small Capitals in Latin lookup 20 subtable" G.sc
Substitution2: "'sups' Superscript in Latin lookup 10 subtable" G.sups
Substitution2: "'sinf' Scientific Inferiors in Latin lookup 9 subtable" G.sinf
Substitution2: "'subs' Subscript in Latin lookup 8 subtable" G.subs
Comment: "+AAoA-G+AAoA"
EndChar
StartChar: H
Encoding: 161 72 161
GlifName: H_
Width: 751
VWidth: 0
Flags: W
AnchorPoint: "bottom.cap" 305 -30 basechar 0
AnchorPoint: "top.cap" 511 675 basechar 0
LayerCount: 2
Back
SplineSet
3 -5 m 256
 53 -5 67 0 107 0 c 256
 149 0 165 -5 215 -5 c 256
 231 -5 245 -2 245 6 c 256
 245 15 240 20 220 24 c 256
 180 32 158 64 171 106 c 258
 232 296 l 257
 234 304 236 307 240 307 c 258
 585 307 l 258
 591 307 587 299 585 292 c 258
 523 97 l 258
 509 54 479 31 437 24 c 256
 414 20 401 15 401 6 c 256
 401 -2 409 -5 425 -5 c 256
 475 -5 487 0 526 0 c 256
 564 0 571 -5 621 -5 c 256
 637 -5 651 -2 651 6 c 256
 651 15 646 20 626 24 c 256
 582 33 583 51 598 100 c 258
 737 552 l 258
 749 590 758 613 807 622 c 256
 830 626 844 633 844 642 c 256
 844 650 836 653 820 653 c 256
 770 653 768 650 735 650 c 256
 693 650 678 653 628 653 c 256
 612 653 598 650 598 642 c 256
 598 633 602 626 622 622 c 256
 666 613 673 588 662 552 c 258
 601 357 l 258
 598 348 596 345 591 345 c 258
 256 345 l 258
 250 345 244 346 246 354 c 257
 307 551 l 258
 319 590 343 613 392 622 c 256
 415 626 429 633 429 642 c 256
 429 650 421 653 405 653 c 256
 355 653 344 650 306 650 c 256
 269 650 261 653 211 653 c 256
 195 653 181 650 181 642 c 256
 181 633 185 626 205 622 c 256
 249 613 247 597 233 551 c 258
 95 99 l 258
 80 51 65 33 16 24 c 256
 -7 20 -20 15 -20 6 c 256
 -20 -2 -13 -5 3 -5 c 256
EndSplineSet
Fore
SplineSet
3 -5 m 256
 53 -5 67 0 107 0 c 256
 149 0 165 -5 215 -5 c 256
 231 -5 245 -2 245 6 c 256
 245 15 240 20 220 24 c 256
 178 32 155 47 173 104 c 258
 232 296 l 257
 234 304 236 307 240 307 c 258
 585 307 l 258
 591 307 587 299 585 292 c 258
 523 97 l 258
 509 54 479 31 437 24 c 256
 414 20 401 15 401 6 c 256
 401 -2 409 -5 425 -5 c 256
 475 -5 487 0 526 0 c 256
 564 0 571 -5 621 -5 c 256
 637 -5 651 -2 651 6 c 256
 651 15 646 20 626 24 c 256
 589 31 582 49 592 81 c 258
 737 552 l 258
 749 590 758 613 807 622 c 256
 830 626 844 633 844 642 c 256
 844 650 836 653 820 653 c 256
 770 653 768 650 735 650 c 256
 693 650 678 653 628 653 c 256
 612 653 598 650 598 642 c 256
 598 633 602 626 622 622 c 256
 666 613 673 588 662 552 c 258
 601 357 l 258
 598 348 596 345 591 345 c 258
 256 345 l 258
 250 345 244 346 246 354 c 257
 307 551 l 258
 319 590 343 613 392 622 c 256
 415 626 429 633 429 642 c 256
 429 650 421 653 405 653 c 256
 355 653 344 650 306 650 c 256
 269 650 261 653 211 653 c 256
 195 653 181 650 181 642 c 256
 181 633 185 626 205 622 c 256
 249 613 247 597 233 551 c 258
 84 72 l 258
 75 43 56 37 14 25 c 256
 -9 18 -20 15 -20 6 c 256
 -20 -2 -13 -5 3 -5 c 256
EndSplineSet
PickledDataWithLists: "(dp0
Vpublic.markColor
p1
V0.67,0.95,0.38,1
p2
s."
Substitution2: "'swsh' Swash in Latin lookup 30 subtable" H.swsh
Substitution2: "'c2pc' Capitals to Petite Capitals in Latin lookup 22 subtable" H.pc
Substitution2: "'c2sc' Capitals to Small Capitals in Latin lookup 20 subtable" H.sc
Substitution2: "'sups' Superscript in Latin lookup 10 subtable" H.sups
Substitution2: "'sinf' Scientific Inferiors in Latin lookup 9 subtable" H.sinf
Substitution2: "'subs' Subscript in Latin lookup 8 subtable" H.subs
Comment: "+AAoA-H+AAoA"
EndChar
StartChar: I
Encoding: 177 73 177
GlifName: I_
Width: 362
VWidth: 0
Flags: W
AnchorPoint: "bottom.cap" 118 -30 basechar 0
AnchorPoint: "top.cap" 331 675 basechar 0
LayerCount: 2
Fore
SplineSet
4 -5 m 256
 54 -5 78 0 124 0 c 256
 167 0 182 -5 232 -5 c 256
 248 -5 262 -2 262 6 c 256
 262 15 257 20 237 24 c 256
 193 33 172 51 186 98 c 258
 324 550 l 258
 338 597 363 613 412 622 c 256
 435 626 449 633 449 642 c 256
 449 650 441 653 425 653 c 256
 375 653 363 650 323 650 c 256
 280 650 265 653 215 653 c 256
 199 653 185 650 185 642 c 256
 185 633 189 626 209 622 c 256
 253 613 264 597 250 550 c 258
 112 98 l 258
 98 51 65 33 16 24 c 256
 -7 20 -20 15 -20 6 c 256
 -20 -2 -12 -5 4 -5 c 256
EndSplineSet
PickledDataWithLists: "(dp0
Vcom.schriftgestaltung.Glyphs.glyph.leftMetricsKey
p1
VH
p2
sVcom.schriftgestaltung.Glyphs.glyph.rightMetricsKey
p3
g2
sVpublic.markColor
p4
V0.67,0.95,0.38,1
p5
s."
Substitution2: "'swsh' Swash in Latin lookup 30 subtable" I.swsh
Substitution2: "'c2pc' Capitals to Petite Capitals in Latin lookup 22 subtable" I.pc
Substitution2: "'c2sc' Capitals to Small Capitals in Latin lookup 20 subtable" I.sc
Substitution2: "'sups' Superscript in Latin lookup 10 subtable" I.sups
Substitution2: "'sinf' Scientific Inferiors in Latin lookup 9 subtable" I.sinf
Substitution2: "'subs' Subscript in Latin lookup 8 subtable" I.subs
Comment: "+AAoA-I+AAoA"
EndChar
StartChar: J
Encoding: 209 74 209
GlifName: J_
Width: 293
VWidth: 0
Flags: W
AnchorPoint: "top.cap" 295 675 basechar 0
LayerCount: 2
Back
SplineSet
-95 -200 m 256
 -40 -200 2 -173 39 -134 c 256
 77 -94 109 -68 173 142 c 258
 298 551 l 258
 313 597 324 613 373 622 c 256
 396 626 409 633 409 642 c 256
 409 650 402 653 386 653 c 256
 336 653 331 650 297 650 c 256
 254 650 240 653 190 653 c 256
 174 653 159 650 159 642 c 256
 159 633 164 626 184 622 c 256
 228 613 238 597 223 551 c 258
 55 0 l 258
 25 -97 -11 -158 -55 -158 c 256
 -71 -158 -83 -152 -90 -129 c 256
 -96 -111 -104 -103 -128 -103 c 256
 -145 -103 -178 -130 -178 -158 c 256
 -178 -180 -155 -200 -95 -200 c 256
EndSplineSet
Fore
SplineSet
-95 -200 m 256
 -40 -200 2 -173 39 -134 c 256
 77 -94 109 -68 173 142 c 258
 298 551 l 258
 313 597 324 613 373 622 c 256
 396 626 409 633 409 642 c 256
 409 650 402 653 386 653 c 256
 336 653 331 650 297 650 c 256
 254 650 240 653 190 653 c 256
 174 653 159 650 159 642 c 256
 159 633 164 626 184 622 c 256
 228 613 237 597 223 551 c 258
 54 -5 l 258
 15 -134 -15 -162 -54 -162 c 256
 -76 -162 -96 -147 -112 -135 c 256
 -133 -120 -149 -102 -160 -102 c 256
 -177 -102 -184 -119 -184 -147 c 256
 -184 -169 -155 -200 -95 -200 c 256
EndSplineSet
PickledDataWithLists: "(dp0
Vpublic.markColor
p1
V0.67,0.95,0.38,1
p2
s."
Substitution2: "'ss07' Style Set 7 in Latin lookup 38 subtable" J.hist
Substitution2: "'swsh' Swash in Latin lookup 30 subtable" J.swsh
Substitution2: "'hist' Historical Forms in Latin lookup 27 subtable" J.hist
Substitution2: "'c2pc' Capitals to Petite Capitals in Latin lookup 22 subtable" J.pc
Substitution2: "'c2sc' Capitals to Small Capitals in Latin lookup 20 subtable" J.sc
Substitution2: "'hist' Historical Forms in Latin lookup 19 subtable" J.hist
Substitution2: "'sups' Superscript in Latin lookup 10 subtable" J.sups
Substitution2: "'sinf' Scientific Inferiors in Latin lookup 9 subtable" J.sinf
Substitution2: "'subs' Subscript in Latin lookup 8 subtable" J.subs
Comment: "+AAoA-J+AAoA"
EndChar
StartChar: K
Encoding: 220 75 220
GlifName: K_
Width: 699
VWidth: 0
Flags: W
AnchorPoint: "bottom.cap" 321 -30 basechar 0
AnchorPoint: "top.cap" 477 675 basechar 0
LayerCount: 2
Back
SplineSet
7 -5 m 256
 57 -5 80 2 126 2 c 256
 164 2 173 -5 223 -5 c 256
 239 -5 253 -2 253 6 c 256
 253 15 248 20 228 24 c 256
 184 33 171 53 187 110 c 258
 241 302 l 258
 243 310 246 323 251 323 c 256
 256 323 277 318 284 306 c 258
 424 72 l 258
 443 40 442 36 403 27 c 256
 384 23 373 19 373 10 c 256
 373 2 380 -1 396 -1 c 256
 438 -1 440 0 463 0 c 256
 514 0 561 -5 616 -5 c 256
 632 -5 646 -2 646 6 c 256
 646 15 642 23 621 24 c 256
 569 27 535 64 515 95 c 258
 358 337 l 257
 354 344 354 350 359 355 c 256
 448 438 509 497 595 558 c 256
 650 597 707 615 756 624 c 256
 779 628 793 635 793 644 c 256
 793 651 788 655 776 655 c 256
 740 655 677 651 624 651 c 258
 574 651 l 258
 558 651 543 648 543 640 c 256
 543 631 545 622 566 620 c 256
 582 619 590 614 590 609 c 256
 590 598 572 581 554 567 c 258
 339 385 l 258
 312 362 292 347 272 347 c 256
 262 347 258 350 261 360 c 258
 317 551 l 258
 333 604 340 613 389 622 c 256
 412 626 426 633 426 642 c 256
 426 650 418 653 402 653 c 256
 352 653 346 651 311 651 c 256
 271 651 258 653 208 653 c 256
 192 653 177 650 177 642 c 256
 177 633 182 626 202 622 c 256
 246 613 257 597 243 551 c 258
 105 101 l 258
 90 51 68 33 19 24 c 256
 -4 20 -17 15 -17 6 c 256
 -17 -2 -9 -5 7 -5 c 256
EndSplineSet
Fore
SplineSet
7 -5 m 256
 57 -5 80 2 126 2 c 256
 164 2 173 -5 223 -5 c 256
 239 -5 253 -2 253 6 c 256
 253 15 248 20 228 24 c 256
 184 33 171 53 187 110 c 258
 241 302 l 258
 243 310 246 323 251 323 c 256
 256 323 277 318 284 306 c 258
 424 72 l 258
 443 40 442 36 403 27 c 256
 384 23 373 19 373 10 c 256
 373 2 380 -1 396 -1 c 256
 438 -1 440 0 463 0 c 256
 555 0 568 -5 623 -5 c 256
 639 -5 653 -2 653 6 c 256
 653 15 649 18 628 24 c 256
 595 33 568 40 537 70 c 256
 490 116 433 198 355 339 c 257
 351 346 351 352 356 357 c 256
 447 439 509 496 595 558 c 256
 650 597 707 615 756 624 c 256
 779 628 793 635 793 644 c 256
 793 651 788 655 776 655 c 256
 740 655 677 651 624 651 c 258
 574 651 l 258
 558 651 538 648 538 640 c 256
 538 631 547 625 562 620 c 256
 578 615 581 609 581 605 c 256
 581 594 567 582 550 567 c 258
 339 385 l 258
 312 362 292 347 272 347 c 256
 262 347 258 350 261 360 c 258
 317 551 l 258
 333 604 340 613 389 622 c 256
 412 626 426 633 426 642 c 256
 426 650 418 653 402 653 c 256
 352 653 346 651 311 651 c 256
 271 651 258 653 208 653 c 256
 192 653 177 650 177 642 c 256
 177 633 182 626 202 622 c 256
 246 613 257 597 243 551 c 258
 105 101 l 258
 90 51 68 33 19 24 c 256
 -4 20 -17 15 -17 6 c 256
 -17 -2 -9 -5 7 -5 c 256
EndSplineSet
PickledDataWithLists: "(dp0
Vcom.schriftgestaltung.Glyphs.glyph.leftMetricsKey
p1
VH
p2
sVpublic.markColor
p3
V0.67,0.95,0.38,1
p4
s."
Substitution2: "'swsh' Swash in Latin lookup 30 subtable" K.swsh
Substitution2: "'c2pc' Capitals to Petite Capitals in Latin lookup 22 subtable" K.pc
Substitution2: "'c2sc' Capitals to Small Capitals in Latin lookup 20 subtable" K.sc
Substitution2: "'sups' Superscript in Latin lookup 10 subtable" K.sups
Substitution2: "'sinf' Scientific Inferiors in Latin lookup 9 subtable" K.sinf
Substitution2: "'subs' Subscript in Latin lookup 8 subtable" K.subs
Comment: "+AAoA-K+AAoA"
EndChar
StartChar: L
Encoding: 235 76 235
GlifName: L_
Width: 583
VWidth: 0
Flags: W
AnchorPoint: "bottom.cap" 301 -30 basechar 0
AnchorPoint: "top.cap" 353 675 basechar 0
LayerCount: 2
Back
SplineSet
14 -5 m 257
 14 -5 101 0 151 0 c 256
 251 0 358 -5 492 -5 c 256
 502 -5 508 3 511 12 c 256
 525 55 548 87 578 139 c 257
 578 140 580 142 580 144 c 256
 580 153 582 162 574 162 c 256
 565 162 548 140 543 132 c 256
 518 93 502 84 469 61 c 256
 446 45 410 35 405 35 c 258
 259 35 l 258
 193 35 187 55 200 96 c 258
 346 567 l 258
 358 606 399 613 452 622 c 256
 476 626 489 633 491 642 c 256
 493 650 483 653 466 653 c 256
 412 653 388 650 339 650 c 256
 295 650 282 653 228 653 c 256
 211 653 198 650 195 642 c 256
 192 633 200 626 222 622 c 256
 269 613 279 608 264 560 c 258
 120 96 l 258
 106 52 72 34 17 24 c 257
 13 23 -7 19 -10 7 c 256
 -12 0 -4 -5 14 -5 c 257
EndSplineSet
Fore
SplineSet
4 -5 m 256
 54 -5 80 1 129 1 c 256
 222 1 329 -5 480 -5 c 256
 489 -5 498 3 503 11 c 256
 521 39 554 132 554 150 c 256
 554 158 552 162 546 162 c 256
 538 162 536 160 530 152 c 256
 509 121 494 97 469 72 c 256
 443 46 401 30 328 30 c 258
 248 30 l 258
 198 30 191 62 206 113 c 258
 341 567 l 258
 353 606 390 620 442 625 c 256
 465 627 481 631 481 642 c 256
 481 650 474 653 458 653 c 256
 408 653 382 648 336 648 c 256
 295 648 282 653 232 653 c 256
 216 653 202 650 202 642 c 256
 202 633 207 626 227 622 c 256
 271 613 279 608 264 560 c 258
 123 99 l 258
 109 52 65 33 16 24 c 256
 -7 20 -20 15 -20 6 c 256
 -20 -2 -12 -5 4 -5 c 256
EndSplineSet
PickledDataWithLists: "(dp0
Vcom.schriftgestaltung.Glyphs.glyph.leftMetricsKey
p1
VH
p2
sVpublic.markColor
p3
V0.67,0.95,0.38,1
p4
s."
Substitution2: "'swsh' Swash in Latin lookup 30 subtable" L.swsh
Substitution2: "'c2pc' Capitals to Petite Capitals in Latin lookup 22 subtable" L.pc
Substitution2: "'c2sc' Capitals to Small Capitals in Latin lookup 20 subtable" L.sc
Substitution2: "'sups' Superscript in Latin lookup 10 subtable" L.sups
Substitution2: "'sinf' Scientific Inferiors in Latin lookup 9 subtable" L.sinf
Substitution2: "'subs' Subscript in Latin lookup 8 subtable" L.subs
Comment: "+AAoA-L+AAoA"
EndChar
StartChar: M
Encoding: 253 77 253
GlifName: M_
Width: 991
VWidth: 0
Flags: W
AnchorPoint: "bottom.cap" 382 -30 basechar 0
AnchorPoint: "top.cap" 637 675 basechar 0
LayerCount: 2
Back
SplineSet
395 -14 m 256
 399 -14 406 -6 420 10 c 258
 839 504 l 258
 845 511 853 509 851 502 c 258
 737 104 l 258
 724 57 696 38 653 28 c 256
 631 23 618 17 618 9 c 256
 618 1 625 -3 641 -3 c 256
 691 -3 712 8 758 8 c 256
 804 8 829 -3 879 -3 c 256
 895 -3 909 3 909 9 c 256
 909 18 903 23 883 26 c 256
 839 33 821 65 842 154 c 258
 931 536 l 258
 948 607 962 613 1023 621 c 256
 1055 625 1064 632 1064 643 c 256
 1064 652 1047 658 1031 658 c 256
 1013 658 959 650 944 650 c 258
 906 650 l 258
 897 650 891 646 885 636 c 256
 875 618 865 599 848 570 c 257
 729 429 616 296 493 157 c 256
 477 139 464 130 463 160 c 258
 450 605 l 258
 449 643 442 653 417 653 c 256
 374 653 289 658 255 658 c 256
 229 658 213 653 213 642 c 256
 213 632 223 629 252 625 c 256
 334 614 343 582 317 532 c 258
 118 144 l 258
 72 56 42 33 -15 23 c 256
 -38 19 -50 13 -50 4 c 256
 -50 -4 -42 -6 -26 -6 c 256
 24 -6 26 0 60 0 c 256
 106 0 118 -3 168 -3 c 256
 184 -3 202 1 202 9 c 256
 202 18 192 23 172 26 c 256
 143 31 131 52 175 146 c 258
 345 509 l 258
 359 539 373 541 374 512 c 258
 386 11 l 258
 386 -4 390 -14 395 -14 c 256
EndSplineSet
Fore
SplineSet
387 -14 m 256
 391 -14 399 -6 412 10 c 258
 529 162 l 257
 824 504 l 258
 830 511 838 509 836 502 c 256
 802 365 772 256 723 104 c 256
 708 59 690 38 647 28 c 256
 625 23 612 17 612 9 c 256
 612 1 619 -3 635 -3 c 256
 685 -3 697 8 743 8 c 256
 789 8 814 -3 864 -3 c 256
 880 -3 894 3 894 9 c 256
 894 18 888 23 868 26 c 256
 824 33 810 65 827 154 c 256
 851 281 880 413 916 536 c 256
 937 607 947 613 1008 621 c 256
 1040 625 1049 632 1049 643 c 256
 1049 652 1032 658 1016 658 c 256
 998 658 944 650 929 650 c 258
 891 650 l 258
 882 650 876 646 870 636 c 256
 859 618 854 603 839 575 c 257
 720 434 607 299 484 160 c 256
 468 142 455 133 454 163 c 258
 446 585 l 257
 448 636 442 653 417 653 c 256
 374 653 289 658 255 658 c 256
 229 658 213 653 213 642 c 256
 213 632 223 629 252 625 c 256
 334 614 343 582 317 532 c 258
 118 144 l 258
 72 56 42 33 -15 23 c 256
 -38 19 -50 13 -50 4 c 256
 -50 -4 -42 -6 -26 -6 c 256
 24 -6 26 0 60 0 c 256
 106 0 118 -3 168 -3 c 256
 184 -3 202 1 202 9 c 256
 202 18 192 23 172 26 c 256
 143 31 135 52 175 146 c 256
 227 267 283 388 345 509 c 256
 360 539 373 541 374 512 c 256
 381 345 383 178 378 11 c 256
 378 -4 382 -14 387 -14 c 256
EndSplineSet
PickledDataWithLists: "(dp0
Vpublic.markColor
p1
V0.67,0.95,0.38,1
p2
s."
Substitution2: "'swsh' Swash in Latin lookup 30 subtable" M.swsh
Substitution2: "'c2pc' Capitals to Petite Capitals in Latin lookup 22 subtable" M.pc
Substitution2: "'c2sc' Capitals to Small Capitals in Latin lookup 20 subtable" M.sc
Substitution2: "'sups' Superscript in Latin lookup 10 subtable" M.sups
Substitution2: "'sinf' Scientific Inferiors in Latin lookup 9 subtable" M.sinf
Substitution2: "'subs' Subscript in Latin lookup 8 subtable" M.subs
Comment: "+AAoA-M+AAoA"
EndChar
StartChar: N
Encoding: 262 78 262
GlifName: N_
Width: 771
VWidth: 0
Flags: W
AnchorPoint: "bottom.cap" 382 -30 basechar 0
AnchorPoint: "top.cap" 534 675 basechar 0
LayerCount: 2
Back
SplineSet
16 -5 m 256
 66 -5 82 0 123 0 c 256
 157 0 172 -5 222 -5 c 256
 238 -5 252 -2 252 6 c 256
 252 15 243 19 223 23 c 256
 172 33 158 57 168 96 c 256
 199 218 249 353 288 475 c 256
 295 497 301 500 308 500 c 256
 315 500 323 491 332 476 c 256
 419 332 490 172 571 26 c 256
 583 5 592 0 613 0 c 258
 690 0 l 258
 694 0 698 0 698 6 c 256
 698 19 690 25 679 33 c 256
 668 40 654 47 646 66 c 256
 639 82 636 92 642 113 c 256
 655 158 782 531 792 555 c 256
 814 607 834 618 885 622 c 256
 908 624 922 633 922 642 c 256
 922 650 915 653 899 653 c 256
 842 653 813 647 774 647 c 256
 735 647 703 651 667 651 c 256
 651 651 636 648 636 640 c 256
 636 631 641 623 661 620 c 256
 725 610 750 591 739 544 c 256
 732 513 637 198 620 155 c 256
 614 140 612 135 607 135 c 256
 600 135 590 148 587 154 c 258
 328 636 l 258
 323 646 313 653 302 653 c 256
 268 653 227 658 173 658 c 256
 166 658 148 657 148 644 c 256
 148 630 162 621 191 616 c 256
 282 601 290 577 262 502 c 258
 108 89 l 258
 96 57 84 38 21 24 c 256
 -2 19 -8 15 -8 6 c 256
 -8 -2 0 -5 16 -5 c 256
EndSplineSet
Fore
SplineSet
16 -5 m 256
 66 -5 82 0 123 0 c 256
 157 0 172 -5 222 -5 c 256
 238 -5 252 -2 252 6 c 256
 252 15 243 19 223 23 c 256
 172 33 152 58 161 96 c 256
 196 241 249 406 276 505 c 256
 282 527 293 539 300 539 c 256
 307 539 316 530 324 515 c 256
 402 369 479 172 551 21 c 256
 561 0 572 -5 593 -5 c 256
 610 -5 633 0 670 0 c 256
 674 0 678 0 678 6 c 256
 678 19 670 25 659 33 c 256
 648 41 634 47 626 66 c 256
 619 82 616 92 622 113 c 256
 635 158 762 531 772 555 c 256
 794 607 804 618 855 622 c 256
 878 624 892 633 892 642 c 256
 892 650 885 653 869 653 c 256
 812 653 793 647 754 647 c 256
 715 647 683 651 647 651 c 256
 631 651 614 647 614 639 c 256
 614 630 621 623 641 620 c 256
 705 610 730 591 719 544 c 256
 712 513 617 198 600 155 c 256
 594 140 592 135 587 135 c 256
 580 135 570 148 567 154 c 258
 338 636 l 258
 333 646 323 653 312 653 c 256
 278 653 237 658 183 658 c 256
 176 658 158 657 158 644 c 256
 158 633 174 627 197 625 c 256
 273 620 271 586 252 526 c 258
 113 95 l 258
 103 63 84 38 21 24 c 256
 -2 19 -8 15 -8 6 c 256
 -8 -2 0 -5 16 -5 c 256
EndSplineSet
PickledDataWithLists: "(dp0
Vpublic.markColor
p1
V0.67,0.95,0.38,1
p2
s."
Substitution2: "'swsh' Swash in Latin lookup 30 subtable" N.swsh
Substitution2: "'c2pc' Capitals to Petite Capitals in Latin lookup 22 subtable" N.pc
Substitution2: "'c2sc' Capitals to Small Capitals in Latin lookup 20 subtable" N.sc
Substitution2: "'sups' Superscript in Latin lookup 10 subtable" N.sups
Substitution2: "'sinf' Scientific Inferiors in Latin lookup 9 subtable" N.sinf
Substitution2: "'subs' Subscript in Latin lookup 8 subtable" N.subs
Comment: "+AAoA-N+AAoA"
EndChar
StartChar: O
Encoding: 278 79 277
GlifName: O_
Width: 694
VWidth: 0
Flags: W
AnchorPoint: "bottom.cap" 298 -30 basechar 0
AnchorPoint: "top.cap" 489 675 basechar 0
LayerCount: 2
Back
SplineSet
303 -14 m 256
 558 -14 703 215 703 407 c 256
 703 545 629 664 468 664 c 256
 213 664 68 435 68 243 c 256
 68 105 142 -14 303 -14 c 256
306 17 m 256
 199 17 153 111 153 205 c 256
 153 399 287 636 465 636 c 256
 572 636 618 539 618 445 c 256
 618 251 492 17 306 17 c 256
EndSplineSet
Fore
SplineSet
303 -14 m 256
 553 -14 693 215 693 407 c 256
 693 545 624 664 468 664 c 256
 218 664 78 435 78 243 c 256
 78 105 147 -14 303 -14 c 256
306 17 m 256
 204 17 163 111 163 205 c 256
 163 399 292 636 465 636 c 256
 567 636 608 539 608 445 c 256
 608 251 487 17 306 17 c 256
EndSplineSet
PickledDataWithLists: "(dp0
Vpublic.markColor
p1
V0.67,0.95,0.38,1
p2
s."
Substitution2: "'swsh' Swash in Latin lookup 30 subtable" O.swsh
Substitution2: "'c2pc' Capitals to Petite Capitals in Latin lookup 22 subtable" O.pc
Substitution2: "'c2sc' Capitals to Small Capitals in Latin lookup 20 subtable" O.sc
Substitution2: "Single Substitution lookup 14 subtable" ordmasculine
Substitution2: "'sups' Superscript in Latin lookup 10 subtable" O.sups
Substitution2: "'sinf' Scientific Inferiors in Latin lookup 9 subtable" O.sinf
Substitution2: "'subs' Subscript in Latin lookup 8 subtable" O.subs
Comment: "+AAoA-O+AAoA"
EndChar
StartChar: P
Encoding: 314 80 313
GlifName: P_
Width: 566
VWidth: 0
Flags: W
AnchorPoint: "top.cap" 422 675 basechar 0
LayerCount: 2
Back
SplineSet
25 -5 m 256
 75 -5 100 2 148 2 c 256
 183 2 199 -5 249 -5 c 256
 265 -5 279 -2 279 6 c 256
 279 15 274 20 254 24 c 256
 202 35 189 58 206 111 c 258
 352 588 l 258
 361 618 365 630 382 630 c 256
 482 630 535 563 535 480 c 256
 535 376 468 313 383 290 c 256
 365 286 347 282 328 280 c 256
 316 279 305 275 305 267 c 256
 305 256 334 254 347 254 c 256
 488 254 620 343 620 472 c 256
 620 587 534 657 408 657 c 256
 382 657 334 652 297 652 c 256
 287 652 218 653 208 653 c 256
 192 653 178 650 178 642 c 256
 178 633 182 624 202 622 c 256
 268 616 281 596 258 522 c 258
 129 100 l 258
 114 51 86 33 37 24 c 256
 14 20 1 15 1 6 c 256
 1 -2 9 -5 25 -5 c 256
EndSplineSet
Fore
SplineSet
25 -5 m 256
 75 -5 100 2 148 2 c 256
 183 2 199 -5 249 -5 c 256
 265 -5 279 -2 279 6 c 256
 279 15 274 20 254 24 c 256
 202 35 189 58 206 111 c 258
 352 588 l 258
 361 618 365 630 382 630 c 256
 482 630 535 563 535 480 c 256
 535 376 468 313 383 290 c 256
 365 286 347 282 328 280 c 256
 316 279 305 275 305 267 c 256
 305 256 334 254 347 254 c 256
 488 254 620 343 620 472 c 256
 620 587 534 656 408 656 c 256
 382 656 318 652 297 652 c 256
 268 652 218 653 208 653 c 256
 192 653 177 650 177 642 c 256
 177 633 182 629 202 627 c 256
 268 621 281 596 263 537 c 258
 129 100 l 258
 114 51 86 33 37 24 c 256
 14 20 1 15 1 6 c 256
 1 -2 9 -5 25 -5 c 256
EndSplineSet
PickledDataWithLists: "(dp0
Vcom.schriftgestaltung.Glyphs.glyph.leftMetricsKey
p1
VH
p2
sVpublic.markColor
p3
V0.67,0.95,0.38,1
p4
s."
Substitution2: "'swsh' Swash in Latin lookup 30 subtable" P.swsh
Substitution2: "'c2pc' Capitals to Petite Capitals in Latin lookup 22 subtable" P.pc
Substitution2: "'c2sc' Capitals to Small Capitals in Latin lookup 20 subtable" P.sc
Substitution2: "'sups' Superscript in Latin lookup 10 subtable" P.sups
Substitution2: "'sinf' Scientific Inferiors in Latin lookup 9 subtable" P.sinf
Substitution2: "'subs' Subscript in Latin lookup 8 subtable" P.subs
Comment: "+AAoA-P+AAoA"
EndChar
StartChar: Q
Encoding: 327 81 326
GlifName: Q_
Width: 694
VWidth: 0
Flags: W
LayerCount: 2
Back
SplineSet
304 -14 m 256
 554 -14 694 215 694 407 c 256
 694 545 625 664 469 664 c 256
 219 664 79 435 79 243 c 256
 79 105 148 -14 304 -14 c 256
307 17 m 256
 205 17 164 111 164 205 c 256
 164 399 293 636 466 636 c 256
 568 636 609 539 609 445 c 256
 609 251 488 17 307 17 c 256
EndSplineSet
Fore
SplineSet
544 -270 m 256
 616 -270 683 -217 704 -171 c 256
 711 -157 699 -145 684 -165 c 256
 661 -196 627 -217 584 -217 c 256
 535 -217 475 -180 412 -142 c 256
 361 -111 297 -85 239 -85 c 256
 222 -85 205 -88 188 -93 c 257
 209 -100 l 257
 338 -60 391 -26 478 29 c 256
 626 122 699 272 699 407 c 256
 699 545 625 664 469 664 c 256
 214 664 79 435 79 243 c 256
 79 105 153 -14 314 -14 c 256
 336 -14 357 -10 363 -10 c 257
 398 8 l 257
 390 7 382 7 374 7 c 256
 216 7 164 111 164 205 c 256
 164 399 287 635 456 635 c 256
 567 635 614 539 614 445 c 256
 614 220 494 56 313 -26 c 256
 241 -59 47 -115 47 -152 c 256
 47 -162 48 -161 59 -161 c 256
 71 -161 86 -152 106 -144 c 256
 122 -138 144 -135 167 -135 c 256
 233 -135 293 -165 350 -198 c 256
 410 -232 473 -270 544 -270 c 256
EndSplineSet
PickledDataWithLists: "(dp0
Vcom.schriftgestaltung.Glyphs.glyph.leftMetricsKey
p1
VO
p2
sVpublic.markColor
p3
V0.67,0.95,0.38,1
p4
s."
Substitution2: "'ss06' Style Set 6 in Latin lookup 37 subtable" Q.long
Substitution2: "'swsh' Swash in Latin lookup 30 subtable" Q.swsh
Substitution2: "'c2pc' Capitals to Petite Capitals in Latin lookup 22 subtable" Q.pc
Substitution2: "'c2sc' Capitals to Small Capitals in Latin lookup 20 subtable" Q.sc
Substitution2: "'sups' Superscript in Latin lookup 10 subtable" Q.sups
Substitution2: "'sinf' Scientific Inferiors in Latin lookup 9 subtable" Q.sinf
Substitution2: "'subs' Subscript in Latin lookup 8 subtable" Q.subs
Comment: "+AAoA-Q+AAoA"
EndChar
StartChar: R
Encoding: 340 82 339
GlifName: R_
Width: 687
VWidth: 0
Flags: W
AnchorPoint: "bottom.cap" 337 -30 basechar 0
AnchorPoint: "top.cap" 416 675 basechar 0
LayerCount: 2
Back
SplineSet
27 -5 m 256
 77 -5 102 2 150 2 c 256
 185 2 189 -5 239 -5 c 256
 255 -5 269 -2 269 6 c 256
 269 15 264 20 244 24 c 256
 200 33 193 63 208 111 c 258
 260 276 l 258
 264 290 271 294 300 294 c 256
 336 294 347 284 363 245 c 256
 388 185 432 89 465 32 c 256
 483 1 528 -4 583 -4 c 256
 609 -4 634 -2 634 13 c 256
 634 22 617 27 600 27 c 256
 561 27 541 46 525 78 c 256
 497 134 439 259 425 295 c 256
 421 304 425 309 434 312 c 256
 520 339 607 398 607 507 c 256
 607 612 512 655 410 655 c 256
 384 655 336 652 299 652 c 256
 289 652 220 653 210 653 c 256
 194 653 176 649 176 639 c 256
 176 629 184 624 204 622 c 256
 279 615 287 608 265 538 c 258
 131 100 l 258
 116 51 88 33 39 24 c 256
 16 20 3 15 3 6 c 256
 3 -2 11 -5 27 -5 c 256
338 318 m 256
 294 318 284 325 292 356 c 258
 345 555 l 258
 362 618 373 630 402 630 c 256
 472 630 524 576 524 508 c 256
 524 360 394 318 338 318 c 256
EndSplineSet
Fore
SplineSet
27 -5 m 256
 77 -5 102 2 150 2 c 256
 185 2 189 -5 239 -5 c 256
 255 -5 269 -2 269 6 c 256
 269 15 264 20 244 24 c 256
 200 33 193 63 208 111 c 258
 261 280 l 258
 265 294 272 298 301 298 c 256
 337 298 346 288 362 249 c 256
 387 189 432 89 465 32 c 256
 483 1 528 -4 583 -4 c 256
 609 -4 634 -2 634 13 c 256
 634 22 617 24 600 27 c 256
 561 34 541 46 515 98 c 256
 497 134 439 259 425 295 c 256
 421 304 425 309 434 312 c 256
 520 339 607 398 607 507 c 256
 607 612 512 655 410 655 c 256
 384 655 336 652 299 652 c 256
 289 652 220 653 210 653 c 256
 194 653 176 649 176 639 c 256
 176 629 184 624 204 622 c 256
 279 615 287 608 265 538 c 258
 131 100 l 258
 116 51 88 33 39 24 c 256
 16 20 3 15 3 6 c 256
 3 -2 11 -5 27 -5 c 256
338 318 m 256
 294 318 284 325 292 356 c 258
 345 555 l 258
 362 618 373 630 402 630 c 256
 472 630 524 576 524 508 c 256
 524 360 394 318 338 318 c 256
EndSplineSet
PickledDataWithLists: "(dp0
Vcom.schriftgestaltung.Glyphs.glyph.leftMetricsKey
p1
VH
p2
sVpublic.markColor
p3
V0.67,0.95,0.38,1
p4
s."
Substitution2: "'swsh' Swash in Latin lookup 30 subtable" R.swsh
Substitution2: "'c2pc' Capitals to Petite Capitals in Latin lookup 22 subtable" R.pc
Substitution2: "'c2sc' Capitals to Small Capitals in Latin lookup 20 subtable" R.sc
Substitution2: "'sups' Superscript in Latin lookup 10 subtable" R.sups
Substitution2: "'sinf' Scientific Inferiors in Latin lookup 9 subtable" R.sinf
Substitution2: "'subs' Subscript in Latin lookup 8 subtable" R.subs
Comment: "+AAoA-R+AAoA"
EndChar
StartChar: S
Encoding: 353 83 352
GlifName: S_
Width: 467
VWidth: 0
Flags: W
AnchorPoint: "bottom.cap" 138 -30 basechar 0
AnchorPoint: "top.cap" 370 675 basechar 0
LayerCount: 4
Back
SplineSet
422 13 m 256
 447 56 455 80 478 119 c 256
 500 156 511 167 536 210 c 256
 544 224 549 238 542 242 c 256
 534 246 527 245 514 229 c 256
 486 194 457 186 424 222 c 258
 102 568 l 258
 69 604 66 633 83 680 c 256
 91 702 92 717 85 722 c 256
 78 727 71 720 63 707 c 256
 36 664 35 651 15 617 c 256
 -7 580 -17 568 -42 525 c 256
 -50 511 -54 497 -47 493 c 256
 -40 489 -32 489 -18 504 c 256
 13 537 32 540 65 504 c 258
 387 158 l 258
 421 122 420 85 403 38 c 256
 395 16 393 2 401 -2 c 256
 408 -6 414 -1 422 13 c 256
EndSplineSet
Fore
SplineSet
182 -15 m 256
 329 -15 409 74 409 184 c 256
 409 240 375 286 307 348 c 256
 239 411 214 453 214 506 c 256
 214 570 271 635 342 635 c 256
 412 635 459 585 459 492 c 256
 459 477 461 466 471 466 c 256
 475 466 484 478 487 498 c 256
 502 601 525 626 525 629 c 256
 525 634 523 645 513 645 c 256
 506 645 501 643 496 640 c 256
 491 637 486 635 477 635 c 256
 467 635 449 644 423 652 c 256
 400 658 375 664 354 664 c 256
 236 664 145 588 145 482 c 256
 145 406 192 354 249 302 c 256
 313 242 332 207 332 155 c 256
 332 66 264 15 179 15 c 256
 96 15 60 75 60 152 c 256
 60 179 59 191 48 191 c 256
 38 191 34 185 32 171 c 256
 21 92 -14 31 -14 19 c 256
 -14 11 -1 0 5 0 c 256
 10 0 17 5 25 10 c 256
 32 13 39 16 46 16 c 256
 50 16 62 11 79 4 c 256
 113 -9 148 -15 182 -15 c 256
EndSplineSet
Guideline: "" "" 453 287 73 0 0
Guideline: "" "" 369 319 73 0 0
Guideline: "" "" 115 400 73 0 0
Guideline: "" "" 161 314 73 0 0
PickledDataWithLists: "(dp0
Vpublic.markColor
p1
V0.67,0.95,0.38,1
p2
s."
Layer: 2
SplineSet
214 16 m 256
 139 16 84 82 84 157 c 256
 84 184 83 196 72 196 c 256
 62 196 58 190 56 176 c 256
 45 97 13 35 13 23 c 256
 13 9 15 0 23 0 c 256
 37 0 57 13 67 13 c 256
 77 13 127 -14 194 -14 c 256
 304 -14 421 46 421 154 c 256
 421 234 347 308 303 354 c 256
 270 388 213 460 213 518 c 256
 213 582 257 635 328 635 c 256
 395 635 443 590 443 500 c 256
 443 485 444 466 454 466 c 256
 458 466 467 478 470 498 c 256
 485 601 508 626 508 629 c 256
 508 634 506 645 496 645 c 256
 480 645 477 634 457 635 c 256
 435 636 383 664 340 664 c 256
 215 664 138 589 138 484 c 256
 138 426 179 364 233 303 c 256
 297 231 339 178 339 120 c 256
 339 67 277 16 214 16 c 256
EndSplineSet
Guideline: "" "" 439 319 73 0 0
PickledDataWithLists: "(dp0
Vpublic.markColor
p1
V0.67,0.95,0.38,1
p2
s."
Layer: 3
SplineSet
118 -16 m 256
 249 -16 360 61 396 180 c 256
 426 280 367 327 310 370 c 256
 249 416 197 456 215 516 c 256
 240 600 306 630 366 630 c 256
 423 630 443 591 452 521 c 256
 453 513 464 507 476 507 c 256
 484 507 492 510 494 518 c 256
 502 551 505 589 505 617 c 256
 505 627 500 638 491 642 c 256
 472 651 441 664 393 664 c 256
 252 664 159 583 128 482 c 256
 98 385 171 340 234 291 c 256
 291 247 325 221 300 139 c 256
 277 65 211 17 142 17 c 256
 85 17 44 57 44 160 c 256
 44 168 39 171 32 171 c 256
 21 171 10 166 7 157 c 257
 1 129 -15 79 -15 52 c 256
 -15 44 -12 37 -8 32 c 257
 19 1 62 -16 118 -16 c 256
EndSplineSet
Substitution2: "'swsh' Swash in Latin lookup 30 subtable" S.swsh
Substitution2: "'c2pc' Capitals to Petite Capitals in Latin lookup 22 subtable" S.pc
Substitution2: "'c2sc' Capitals to Small Capitals in Latin lookup 20 subtable" S.sc
Substitution2: "'sups' Superscript in Latin lookup 10 subtable" S.sups
Substitution2: "'sinf' Scientific Inferiors in Latin lookup 9 subtable" S.sinf
Substitution2: "'subs' Subscript in Latin lookup 8 subtable" S.subs
Comment: "+AAoA-S+AAoA"
EndChar
StartChar: T
Encoding: 373 84 372
GlifName: T_
Width: 622
VWidth: 0
Flags: W
AnchorPoint: "bottom.cap" 280 -30 basechar 0
AnchorPoint: "top.cap" 455 675 basechar 0
LayerCount: 2
Back
SplineSet
147 -5 m 256
 197 -5 221 0 268 0 c 256
 310 0 325 -5 375 -5 c 256
 391 -5 405 -2 405 6 c 256
 405 15 400 18 380 22 c 256
 336 31 316 54 330 102 c 258
 460 557 l 258
 473 595 485 607 511 607 c 258
 623 607 l 258
 690 607 674 525 674 520 c 256
 674 506 679 497 688 497 c 256
 693 497 697 500 699 511 c 256
 709 565 727 614 734 627 c 256
 738 634 744 646 744 655 c 256
 744 661 742 666 734 666 c 256
 729 666 724 661 717 655 c 256
 710 649 699 642 684 642 c 258
 238 642 l 258
 219 642 211 648 205 654 c 256
 199 660 192 666 187 666 c 256
 182 666 173 655 170 646 c 256
 160 611 141 575 128 548 c 256
 120 531 118 519 118 517 c 256
 118 506 121 504 129 504 c 256
 140 504 153 530 168 553 c 256
 190 585 226 607 265 607 c 258
 366 607 l 258
 391 607 396 591 390 570 c 258
 256 102 l 258
 242 54 209 31 160 22 c 256
 137 18 123 15 123 6 c 256
 123 -2 131 -5 147 -5 c 256
EndSplineSet
Fore
SplineSet
147 -5 m 256
 197 -5 221 0 268 0 c 256
 310 0 325 -5 375 -5 c 256
 391 -5 405 -2 405 6 c 256
 405 15 400 18 380 22 c 256
 336 31 316 54 330 102 c 258
 451 527 l 258
 472 603 481 614 507 614 c 258
 607 614 l 258
 657 614 674 581 674 520 c 256
 674 506 679 497 688 497 c 256
 693 497 697 500 699 511 c 256
 709 565 727 614 734 627 c 256
 738 634 744 646 744 655 c 256
 744 661 742 666 734 666 c 256
 729 666 724 661 717 655 c 256
 710 649 699 642 638 642 c 258
 281 642 l 258
 219 642 211 648 205 654 c 256
 199 660 192 666 187 666 c 256
 182 666 173 655 170 646 c 256
 160 611 141 575 128 548 c 256
 120 531 118 519 118 517 c 256
 118 506 121 504 129 504 c 256
 140 504 154 532 172 553 c 256
 196 582 227 614 292 614 c 258
 375 614 l 258
 392 614 397 598 378 530 c 258
 256 102 l 258
 242 54 209 31 160 22 c 256
 137 18 123 15 123 6 c 256
 123 -2 131 -5 147 -5 c 256
EndSplineSet
PickledDataWithLists: "(dp0
Vpublic.markColor
p1
V0.67,0.95,0.38,1
p2
s."
Substitution2: "'swsh' Swash in Latin lookup 30 subtable" T.swsh
Substitution2: "'c2pc' Capitals to Petite Capitals in Latin lookup 22 subtable" T.pc
Substitution2: "'c2sc' Capitals to Small Capitals in Latin lookup 20 subtable" T.sc
Substitution2: "'sups' Superscript in Latin lookup 10 subtable" T.sups
Substitution2: "'sinf' Scientific Inferiors in Latin lookup 9 subtable" T.sinf
Substitution2: "'subs' Subscript in Latin lookup 8 subtable" T.subs
Comment: "+AAoA-T+AAoA"
EndChar
StartChar: U
Encoding: 392 85 391
GlifName: U_
Width: 700
VWidth: 0
Flags: W
AnchorPoint: "bottom.cap" 308 -30 basechar 0
AnchorPoint: "top.cap" 504 675 basechar 0
LayerCount: 2
Back
SplineSet
301 -14 m 256
 480 -14 559 99 615 254 c 256
 648 346 676 432 719 547 c 256
 734 587 754 614 789 622 c 256
 812 627 826 633 827 642 c 256
 828 650 819 653 803 653 c 256
 782 653 757 650 727 650 c 256
 700 650 677 651 649 651 c 256
 633 651 618 648 618 640 c 256
 618 631 630 624 642 620 c 256
 681 607 679 580 657 511 c 256
 632 434 606 344 593 300 c 256
 547 143 474 26 328 26 c 256
 230 26 152 90 196 238 c 258
 288 549 l 258
 300 589 334 616 350 621 c 256
 373 628 386 632 387 641 c 256
 388 649 380 652 364 652 c 256
 344 652 318 650 289 650 c 256
 254 650 228 653 200 653 c 256
 184 653 162 650 162 642 c 256
 162 633 173 626 193 620 c 256
 212 614 228 595 213 547 c 258
 123 251 l 258
 66 65 172 -14 301 -14 c 256
EndSplineSet
Fore
SplineSet
301 -14 m 256
 480 -14 559 99 615 254 c 256
 648 346 676 432 704 506 c 256
 742 608 756 614 789 622 c 256
 812 627 826 633 827 642 c 256
 828 650 819 653 803 653 c 256
 782 653 757 650 727 650 c 256
 700 650 653 651 625 651 c 256
 609 651 594 648 594 640 c 256
 594 631 608 625 620 622 c 256
 668 609 685 593 646 474 c 256
 633 434 604 344 582 269 c 256
 545 143 474 26 328 26 c 256
 230 26 152 90 196 238 c 258
 284 535 l 258
 300 590 329 615 350 621 c 256
 373 628 386 632 387 641 c 256
 388 649 380 652 364 652 c 256
 344 652 318 650 289 650 c 256
 254 650 228 653 200 653 c 256
 184 653 162 650 162 642 c 256
 162 633 173 626 193 620 c 256
 212 614 228 595 213 547 c 258
 123 251 l 258
 66 65 172 -14 301 -14 c 256
EndSplineSet
PickledDataWithLists: "(dp0
Vpublic.markColor
p1
V0.67,0.95,0.38,1
p2
s."
Substitution2: "'swsh' Swash in Latin lookup 30 subtable" U.swsh
Substitution2: "'c2pc' Capitals to Petite Capitals in Latin lookup 22 subtable" U.pc
Substitution2: "'c2sc' Capitals to Small Capitals in Latin lookup 20 subtable" U.sc
Substitution2: "'sups' Superscript in Latin lookup 10 subtable" U.sups
Substitution2: "'sinf' Scientific Inferiors in Latin lookup 9 subtable" U.sinf
Substitution2: "'subs' Subscript in Latin lookup 8 subtable" U.subs
Comment: "+AAoA-U+AAoA"
EndChar
StartChar: V
Encoding: 430 86 429
GlifName: V_
Width: 683
VWidth: 0
Flags: W
AnchorPoint: "bottom.cap" 177 -30 basechar 0
AnchorPoint: "top.cap" 495 675 basechar 0
LayerCount: 2
Back
SplineSet
185 -14 m 256
 206 -14 244 43 286 94 c 258
 656 543 l 258
 695 591 738 610 773 620 c 256
 796 627 810 634 810 643 c 256
 810 651 803 656 787 656 c 256
 756 656 737 650 696 650 c 256
 662 650 622 652 605 652 c 256
 589 652 575 649 575 641 c 256
 575 632 578 624 599 621 c 256
 627 617 640 580 568 492 c 258
 288 146 l 258
 271 125 264 112 259 112 c 256
 253 112 251 120 255 143 c 258
 322 553 l 258
 330 603 351 616 390 621 c 256
 408 623 425 631 425 640 c 256
 425 648 417 651 401 651 c 256
 379 651 340 650 304 650 c 256
 262 650 224 656 198 656 c 256
 182 656 168 652 168 643 c 256
 168 634 172 626 192 623 c 256
 245 615 252 593 249 550 c 256
 240 439 208 287 163 29 c 256
 158 2 167 -14 185 -14 c 256
EndSplineSet
Fore
SplineSet
192 -14 m 256
 207 -14 243 45 285 95 c 258
 656 543 l 258
 695 591 738 610 773 620 c 256
 796 627 810 634 810 643 c 256
 810 651 803 656 787 656 c 256
 756 656 737 650 696 650 c 256
 662 650 622 652 605 652 c 256
 589 652 575 649 575 641 c 256
 575 632 578 624 599 621 c 256
 627 617 640 580 568 492 c 258
 288 146 l 258
 271 125 264 112 259 112 c 256
 253 112 251 120 255 143 c 258
 322 553 l 258
 330 603 351 616 390 621 c 256
 408 623 425 631 425 640 c 256
 425 648 417 651 401 651 c 256
 379 651 340 650 304 650 c 256
 262 650 224 656 198 656 c 256
 182 656 168 652 168 643 c 256
 168 634 172 626 192 623 c 256
 245 615 246 593 243 550 c 256
 234 439 208 287 169 63 c 256
 158 2 174 -14 192 -14 c 256
EndSplineSet
PickledDataWithLists: "(dp0
Vpublic.markColor
p1
V0.67,0.95,0.38,1
p2
s."
Substitution2: "'swsh' Swash in Latin lookup 30 subtable" V.swsh
Substitution2: "'c2pc' Capitals to Petite Capitals in Latin lookup 22 subtable" V.pc
Substitution2: "'c2sc' Capitals to Small Capitals in Latin lookup 20 subtable" V.sc
Substitution2: "'sups' Superscript in Latin lookup 10 subtable" V.sups
Substitution2: "'sinf' Scientific Inferiors in Latin lookup 9 subtable" V.sinf
Substitution2: "'subs' Subscript in Latin lookup 8 subtable" V.subs
Comment: "+AAoA-V+AAoA"
EndChar
StartChar: W
Encoding: 440 87 439
GlifName: W_
Width: 1067
VWidth: 0
Flags: W
AnchorPoint: "bottom.cap" 426 -30 basechar 0
AnchorPoint: "top.cap" 698 675 basechar 0
LayerCount: 2
Back
SplineSet
208 -14 m 256
 222 -14 264 51 300 94 c 258
 624 473 l 257
 604 353 584 232 564 112 c 256
 556 64 534 -14 572 -14 c 256
 586 -14 635 51 670 94 c 258
 1040 543 l 258
 1080 592 1115 612 1157 620 c 256
 1180 624 1194 634 1194 643 c 256
 1194 651 1187 656 1171 656 c 256
 1140 656 1121 650 1080 650 c 256
 1046 650 990 652 973 652 c 256
 957 652 942 648 942 639 c 256
 942 629 946 625 967 621 c 256
 1014 611 1005 579 947 504 c 258
 686 166 l 258
 652 122 642 122 648 167 c 258
 704 546 l 258
 711 592 719 605 787 620 c 256
 810 625 824 634 824 643 c 256
 824 651 817 656 801 656 c 256
 769 656 739 650 701 650 c 256
 662 650 600 656 570 656 c 256
 554 656 534 653 534 644 c 256
 534 633 544 626 564 623 c 256
 614 616 632 602 632 570 c 256
 632 551 628 540 615 525 c 258
 315 171 l 258
 278 128 269 127 276 173 c 256
 294 297 314 415 333 539 c 256
 343 602 351 615 399 620 c 256
 417 622 439 630 439 639 c 256
 439 647 428 651 412 651 c 256
 390 651 354 650 318 650 c 256
 267 650 231 656 205 656 c 256
 185 656 168 654 168 643 c 256
 168 632 179 626 199 623 c 256
 265 612 272 606 262 523 c 256
 250 422 214 226 188 78 c 256
 181 37 183 -14 208 -14 c 256
EndSplineSet
Fore
SplineSet
208 -14 m 256
 222 -14 262 54 298 97 c 258
 628 492 l 257
 608 372 584 232 564 112 c 256
 556 64 534 -14 572 -14 c 256
 586 -14 635 51 670 94 c 258
 1040 543 l 258
 1080 592 1115 612 1157 620 c 256
 1180 624 1194 634 1194 643 c 256
 1194 651 1187 656 1171 656 c 256
 1140 656 1121 650 1080 650 c 256
 1046 650 983 652 966 652 c 256
 950 652 935 648 935 639 c 256
 935 629 939 625 960 621 c 256
 1007 612 1016 579 945 490 c 258
 686 166 l 258
 651 122 641 122 648 167 c 258
 704 551 l 258
 711 597 724 613 787 623 c 256
 810 627 824 634 824 643 c 256
 824 651 817 656 801 656 c 256
 769 656 739 650 701 650 c 256
 662 650 600 656 570 656 c 256
 554 656 534 653 534 644 c 256
 534 633 544 626 564 623 c 256
 614 616 632 602 632 570 c 256
 632 551 621 528 584 485 c 258
 313 165 l 258
 276 122 267 121 274 167 c 256
 294 293 314 415 333 539 c 256
 343 602 351 615 399 620 c 256
 417 622 439 630 439 639 c 256
 439 647 428 651 412 651 c 256
 390 651 354 650 318 650 c 256
 267 650 231 656 205 656 c 256
 185 656 168 654 168 643 c 256
 168 632 179 626 199 623 c 256
 265 612 272 606 262 523 c 256
 250 422 217 226 188 78 c 256
 180 37 183 -14 208 -14 c 256
EndSplineSet
PickledDataWithLists: "(dp0
Vpublic.markColor
p1
V0.67,0.95,0.38,1
p2
s."
Substitution2: "'swsh' Swash in Latin lookup 30 subtable" W.swsh
Substitution2: "'c2pc' Capitals to Petite Capitals in Latin lookup 22 subtable" W.pc
Substitution2: "'c2sc' Capitals to Small Capitals in Latin lookup 20 subtable" W.sc
Substitution2: "'sups' Superscript in Latin lookup 10 subtable" W.sups
Substitution2: "'sinf' Scientific Inferiors in Latin lookup 9 subtable" W.sinf
Substitution2: "'subs' Subscript in Latin lookup 8 subtable" W.subs
Comment: "+AAoA-W+AAoA"
EndChar
StartChar: X
Encoding: 455 88 454
GlifName: X_
Width: 633
VWidth: 0
Flags: W
AnchorPoint: "bottom.cap" 237 -30 basechar 0
AnchorPoint: "top.cap" 464 675 basechar 0
LayerCount: 2
Back
SplineSet
344 -37 m 256
 387 -11 404 9 442 33 c 256
 478 56 493 60 535 87 c 256
 549 96 559 106 555 113 c 256
 550 121 543 122 524 115 c 256
 481 99 455 102 441 149 c 258
 310 603 l 258
 296 650 309 677 345 711 c 256
 362 727 370 741 365 748 c 256
 360 755 352 753 339 744 c 256
 298 716 289 708 255 686 c 256
 219 663 205 657 163 630 c 256
 149 621 139 611 144 604 c 256
 149 597 156 593 175 601 c 256
 216 618 234 610 248 563 c 258
 379 108 l 258
 393 61 375 28 338 -6 c 256
 321 -22 313 -33 318 -41 c 256
 322 -47 331 -45 344 -37 c 256
EndSplineSet
Fore
SplineSet
-37 -5 m 256
 -6 -5 40 1 82 1 c 256
 115 1 151 -1 168 -1 c 256
 184 -1 198 4 198 12 c 256
 198 21 194 24 174 30 c 256
 142 39 137 62 169 100 c 258
 315 275 l 258
 323 285 330 284 334 270 c 258
 378 111 l 258
 390 67 381 43 334 31 c 256
 320 27 296 20 296 11 c 256
 296 3 304 0 320 0 c 256
 342 0 369 1 407 1 c 256
 451 1 522 -5 548 -5 c 256
 564 -5 578 -2 578 6 c 256
 578 15 573 21 553 26 c 256
 479 45 463 55 448 111 c 258
 388 331 l 258
 385 343 388 350 406 370 c 258
 538 513 l 258
 589 568 659 615 697 625 c 256
 720 631 734 636 734 645 c 256
 734 653 726 656 710 656 c 256
 685 656 638 650 602 650 c 256
 574 650 547 651 525 651 c 256
 509 651 495 648 495 640 c 256
 495 631 507 623 519 620 c 256
 552 612 562 595 499 520 c 258
 392 394 l 258
 378 378 370 378 365 397 c 258
 330 528 l 258
 310 601 314 617 365 621 c 256
 389 623 402 632 402 641 c 256
 402 649 394 652 378 652 c 256
 361 652 333 650 296 650 c 256
 250 650 201 655 170 655 c 256
 154 655 132 651 132 643 c 256
 132 634 145 625 164 622 c 256
 202 616 233 609 256 529 c 258
 308 351 l 258
 318 319 305 304 286 284 c 258
 134 124 l 258
 67 53 24 34 -23 28 c 256
 -47 25 -61 15 -61 6 c 256
 -61 -2 -53 -5 -37 -5 c 256
EndSplineSet
PickledDataWithLists: "(dp0
Vpublic.markColor
p1
V0.67,0.95,0.38,1
p2
s."
Substitution2: "'swsh' Swash in Latin lookup 30 subtable" X.swsh
Substitution2: "'c2pc' Capitals to Petite Capitals in Latin lookup 22 subtable" X.pc
Substitution2: "'c2sc' Capitals to Small Capitals in Latin lookup 20 subtable" X.sc
Substitution2: "'sups' Superscript in Latin lookup 10 subtable" X.sups
Substitution2: "'sinf' Scientific Inferiors in Latin lookup 9 subtable" X.sinf
Substitution2: "'subs' Subscript in Latin lookup 8 subtable" X.subs
Comment: "+AAoA-X+AAoA"
EndChar
StartChar: Y
Encoding: 464 89 463
GlifName: Y_
Width: 575
VWidth: 0
Flags: W
AnchorPoint: "bottom.cap" 235 -30 basechar 0
AnchorPoint: "top.cap" 437 675 basechar 0
LayerCount: 2
Back
SplineSet
123 -5 m 256
 173 -5 196 0 243 0 c 256
 285 0 301 -5 351 -5 c 256
 367 -5 381 -2 381 6 c 256
 381 15 376 20 356 24 c 256
 312 33 294 63 308 108 c 258
 353 256 l 258
 365 294 374 320 404 352 c 256
 441 392 520 482 570 534 c 256
 599 565 658 611 697 623 c 256
 716 629 731 633 731 642 c 256
 731 650 722 653 706 653 c 256
 685 653 646 650 608 650 c 256
 578 650 558 651 530 651 c 256
 514 651 500 648 500 640 c 256
 500 631 511 623 524 620 c 256
 562 610 567 592 523 537 c 256
 478 481 452 444 407 395 c 256
 384 370 372 357 365 357 c 256
 358 357 352 369 346 395 c 258
 310 560 l 258
 299 607 305 615 343 621 c 256
 367 625 380 632 380 641 c 256
 380 649 373 652 357 652 c 256
 337 652 311 650 282 650 c 256
 238 650 197 653 169 653 c 256
 153 653 134 650 134 642 c 256
 134 633 143 622 162 620 c 256
 193 617 212 593 223 548 c 258
 279 332 l 258
 286 304 288 285 280 258 c 258
 234 108 l 258
 219 60 184 33 135 24 c 256
 112 20 99 15 99 6 c 256
 99 -2 107 -5 123 -5 c 256
EndSplineSet
Fore
SplineSet
123 -5 m 256
 173 -5 196 0 243 0 c 256
 285 0 301 -5 351 -5 c 256
 367 -5 381 -2 381 6 c 256
 381 15 376 20 356 24 c 256
 312 33 294 63 308 108 c 258
 353 256 l 258
 365 294 374 320 404 352 c 256
 441 392 520 482 570 534 c 256
 599 565 658 611 697 623 c 256
 716 629 731 633 731 642 c 256
 731 650 722 653 706 653 c 256
 685 653 646 650 608 650 c 256
 578 650 558 651 530 651 c 256
 514 651 500 648 500 640 c 256
 500 631 511 623 524 620 c 256
 562 610 567 592 523 537 c 256
 478 481 451 444 407 395 c 256
 390 376 378 363 371 363 c 256
 364 363 359 375 352 401 c 258
 310 560 l 258
 298 607 305 615 343 621 c 256
 367 625 380 632 380 641 c 256
 380 649 373 652 357 652 c 256
 337 652 311 650 282 650 c 256
 238 650 202 653 174 653 c 256
 158 653 139 650 139 642 c 256
 139 633 148 622 167 620 c 256
 198 617 216 593 228 548 c 258
 284 342 l 258
 292 314 294 295 285 268 c 258
 234 108 l 258
 219 60 184 33 135 24 c 256
 112 20 99 15 99 6 c 256
 99 -2 107 -5 123 -5 c 256
EndSplineSet
PickledDataWithLists: "(dp0
Vpublic.markColor
p1
V0.67,0.95,0.38,1
p2
s."
Substitution2: "'swsh' Swash in Latin lookup 30 subtable" Y.swsh
Substitution2: "'c2pc' Capitals to Petite Capitals in Latin lookup 22 subtable" Y.pc
Substitution2: "'c2sc' Capitals to Small Capitals in Latin lookup 20 subtable" Y.sc
Substitution2: "'sups' Superscript in Latin lookup 10 subtable" Y.sups
Substitution2: "'sinf' Scientific Inferiors in Latin lookup 9 subtable" Y.sinf
Substitution2: "'subs' Subscript in Latin lookup 8 subtable" Y.subs
Comment: "+AAoA-Y+AAoA"
EndChar
StartChar: Z
Encoding: 480 90 479
GlifName: Z_
Width: 635
VWidth: 0
Flags: W
AnchorPoint: "bottom.cap" 266 -30 basechar 0
AnchorPoint: "top.cap" 423 675 basechar 0
LayerCount: 2
Back
SplineSet
502 -5 m 256
 520 -5 528 4 533 12 c 256
 548 36 609 129 609 150 c 256
 609 159 608 169 598 169 c 256
 588 169 582 158 577 150 c 256
 534 83 477 47 409 41 c 256
 364 38 277 36 235 36 c 256
 194 36 165 38 139 41 c 256
 121 43 118 55 133 70 c 256
 308 262 408 364 594 550 c 258
 671 627 l 258
 675 631 666 649 658 649 c 256
 589 647 532 646 455 646 c 256
 413 646 345 646 297 647 c 256
 264 648 229 653 213 653 c 256
 198 653 190 644 183 627 c 256
 174 605 153 564 141 537 c 256
 136 526 133 516 133 512 c 256
 133 502 137 493 145 493 c 256
 154 493 163 503 172 518 c 256
 208 578 260 602 290 604 c 256
 322 607 460 606 521 604 c 256
 543 603 535 593 530 588 c 256
 353 395 247 290 64 104 c 256
 33 73 -15 21 -18 11 c 257
 -18 11 -22 -3 -16 -3 c 256
 37 -3 134 -1 167 -1 c 256
 250 -1 405 -5 502 -5 c 256
EndSplineSet
Fore
SplineSet
502 -5 m 256
 520 -5 528 4 533 12 c 256
 548 36 609 129 609 150 c 256
 609 159 610 169 600 169 c 256
 590 169 584 158 579 150 c 256
 537 82 477 50 409 41 c 256
 365 35 277 32 235 32 c 256
 194 32 162 35 136 38 c 256
 118 40 116 51 130 67 c 256
 301 263 408 364 594 550 c 258
 671 627 l 258
 675 631 666 649 658 649 c 256
 589 647 532 646 455 646 c 256
 413 646 345 646 297 647 c 256
 264 648 229 653 213 653 c 256
 198 653 190 644 183 627 c 256
 174 605 153 564 141 537 c 256
 136 526 133 516 133 512 c 256
 133 502 137 493 145 493 c 256
 154 493 163 503 172 518 c 256
 208 578 264 605 294 608 c 256
 360 614 489 619 533 617 c 256
 555 616 547 606 542 601 c 256
 357 416 247 290 64 104 c 256
 33 73 -15 21 -18 11 c 257
 -18 11 -22 -3 -16 -3 c 256
 37 -3 134 -1 167 -1 c 256
 250 -1 405 -5 502 -5 c 256
EndSplineSet
PickledDataWithLists: "(dp0
Vpublic.markColor
p1
V0.67,0.95,0.38,1
p2
s."
Substitution2: "'swsh' Swash in Latin lookup 30 subtable" Z.swsh
Substitution2: "'c2pc' Capitals to Petite Capitals in Latin lookup 22 subtable" Z.pc
Substitution2: "'c2sc' Capitals to Small Capitals in Latin lookup 20 subtable" Z.sc
Substitution2: "'sups' Superscript in Latin lookup 10 subtable" Z.sups
Substitution2: "'sinf' Scientific Inferiors in Latin lookup 9 subtable" Z.sinf
Substitution2: "'subs' Subscript in Latin lookup 8 subtable" Z.subs
Comment: "+AAoA-Z+AAoA"
EndChar
StartChar: bracketleft
Encoding: 622 91 621
GlifName: bracketleft
Width: 361
VWidth: 0
Flags: W
LayerCount: 2
Fore
SplineSet
21 -200 m 258
 172 -200 l 258
 182 -200 200 -195 200 -185 c 256
 200 -175 190 -173 179 -172 c 256
 136 -169 129 -167 102 -167 c 256
 82 -167 77 -164 83 -142 c 256
 127 21 278 494 328 644 c 256
 333 659 345 673 359 673 c 256
 389 673 411 674 440 674 c 256
 451 674 470 677 470 690 c 256
 470 697 464 701 456 701 c 258
 290 702 l 258
 260 702 257 663 250 640 c 257
 2 -170 l 258
 -7 -195 -2 -200 21 -200 c 258
EndSplineSet
Substitution2: "'smcp' Lowercase to Small Capitals in Latin lookup 21 subtable" bracketleft.sc
Substitution2: "'c2sc' Capitals to Small Capitals in Latin lookup 20 subtable" bracketleft.sc
Substitution2: "'sups' Superscript in Latin lookup 10 subtable" bracketleft.sups
Substitution2: "'sinf' Scientific Inferiors in Latin lookup 9 subtable" bracketleft.sinf
Substitution2: "'subs' Subscript in Latin lookup 8 subtable" bracketleft.subs
Comment: "+AAoA-bracketleft+AAoA"
EndChar
StartChar: backslash
Encoding: 595 92 594
GlifName: backslash
Width: 410
VWidth: 0
Flags: W
LayerCount: 2
Back
SplineSet
280 -62 m 256
 293 -62 303 -55 301 -47 c 258
 219 648 l 258
 217 663 203 665 186 665 c 256
 173 665 166 657 167 648 c 258
 249 -47 l 258
 251 -61 265 -62 280 -62 c 256
EndSplineSet
Fore
SplineSet
289 -68 m 256
 299 -69 311 -65 310 -54 c 258
 217 651 l 258
 215 665 202 669 188 671 c 256
 179 672 169 665 170 655 c 258
 261 -50 l 258
 263 -62 276 -67 289 -68 c 256
EndSplineSet
PickledDataWithLists: "(dp0
Vpublic.markColor
p1
V0.67,0.95,0.38,1
p2
s."
Substitution2: "'smcp' Lowercase to Small Capitals in Latin lookup 21 subtable" backslash.sc
Substitution2: "'c2sc' Capitals to Small Capitals in Latin lookup 20 subtable" backslash.sc
Substitution2: "'sups' Superscript in Latin lookup 10 subtable" backslash.sups
Substitution2: "'sinf' Scientific Inferiors in Latin lookup 9 subtable" backslash.sinf
Substitution2: "'subs' Subscript in Latin lookup 8 subtable" backslash.subs
Comment: "+AAoA-backslash+AAoA"
EndChar
StartChar: asciicircum
Encoding: 561 94 560
GlifName: asciicircum
Width: 501
VWidth: 0
Flags: W
LayerCount: 2
Fore
SplineSet
87 284 m 256
 99 284 120 291 128 303 c 258
 274 514 l 257
 278 520 279 520 284 514 c 257
 432 302 l 258
 438 293 458 284 473 284 c 256
 482 284 484 297 479 305 c 257
 281 603 l 257
 278 603 l 257
 81 305 l 257
 79 302 78 298 78 295 c 256
 78 289 82 284 87 284 c 256
EndSplineSet
Substitution2: "'smcp' Lowercase to Small Capitals in Latin lookup 21 subtable" asciicircum.sc
Substitution2: "'c2sc' Capitals to Small Capitals in Latin lookup 20 subtable" asciicircum.sc
Substitution2: "'sups' Superscript in Latin lookup 10 subtable" asciicircum.sups
Substitution2: "'sinf' Scientific Inferiors in Latin lookup 9 subtable" asciicircum.sinf
Substitution2: "'subs' Subscript in Latin lookup 8 subtable" asciicircum.subs
Comment: "+AAoA-asciicircum+AAoA"
EndChar
StartChar: underscore
Encoding: 1491 95 1490
GlifName: underscore
Width: 464
VWidth: 0
Flags: W
LayerCount: 2
Fore
SplineSet
350 -132 m 258
 -81 -132 l 258
 -97 -132 -112 -161 -115 -170 c 256
 -117 -176 -113 -182 -106 -182 c 258
 318 -182 l 258
 335 -182 346 -163 357 -146 c 257
 361 -139 357 -132 350 -132 c 258
EndSplineSet
PickledDataWithLists: "(dp0
Vpublic.markColor
p1
V0.67,0.95,0.38,1
p2
s."
Substitution2: "'smcp' Lowercase to Small Capitals in Latin lookup 21 subtable" underscore.sc
Substitution2: "'c2sc' Capitals to Small Capitals in Latin lookup 20 subtable" underscore.sc
Substitution2: "'sups' Superscript in Latin lookup 10 subtable" underscore.sups
Substitution2: "'sinf' Scientific Inferiors in Latin lookup 9 subtable" underscore.sinf
Substitution2: "'subs' Subscript in Latin lookup 8 subtable" underscore.subs
Comment: "+AAoA-underscore+AAoA"
EndChar
StartChar: a
Encoding: 497 97 496
GlifName: a
Width: 491
VWidth: 0
Flags: HW
AnchorPoint: "bottom" 167 -30 basechar 0
AnchorPoint: "top" 335 440 basechar 0
LayerCount: 4
Back
SplineSet
45 -14 m 256
 105 -14 167 32 289 168 c 256
 297 177 298 167 291 153 c 256
 271 111 232 24 244 48 c 257
 240 40 238 31 238 25 c 256
 238 6 260 -14 281 -14 c 256
 313 -14 352 5 390 40 c 256
 410 60 433 94 433 103 c 256
 433 111 431 114 426 114 c 256
 423 114 419 112 417 109 c 256
 392 75 353 49 329 49 c 256
 313 49 308 62 316 83 c 258
 428 380 l 258
 433 394 435 401 435 405 c 256
 435 415 415 426 397 426 c 256
 393 426 389 423 385 416 c 257
 389 421 387 418 368 386 c 256
 366 382 364 380 362 380 c 256
 361 380 368 371 350 395 c 256
 343 403 332 409 322 409 c 256
 301 409 256 378 184 315 c 256
 71 216 -6 101 -6 30 c 256
 -6 8 20 -14 45 -14 c 256
102 51 m 256
 85 51 74 64 74 84 c 256
 74 130 135 227 202 292 c 256
 236 325 285 353 309 353 c 256
 316 353 326 348 334 342 c 256
 341 336 347 328 347 323 c 256
 347 299 315 246 265 187 c 256
 192 100 131 51 102 51 c 256
EndSplineSet
Fore
SplineSet
45 -14 m 256
 105 -14 167 32 289 168 c 256
 297 177 298 167 291 153 c 256
 271 111 232 24 244 48 c 257
 240 40 238 31 238 25 c 256
 238 6 260 -14 281 -14 c 256
 313 -14 352 5 390 40 c 256
 410 60 433 94 433 103 c 256
 433 111 431 114 426 114 c 256
 423 114 419 112 417 109 c 256
 392 75 353 49 329 49 c 256
 313 49 308 62 316 83 c 258
 428 380 l 258
 433 394 435 401 435 405 c 256
 435 415 415 426 397 426 c 256
 393 426 389 423 385 416 c 266
 368 386 l 274
 366 382 364 380 362 380 c 256
 361 380 355 389 350 395 c 256
 343 403 332 409 322 409 c 256
 301 409 256 378 184 315 c 256
 71 216 -6 101 -6 30 c 256
 -6 8 20 -14 45 -14 c 256
  Spiro
    45 -14 o
    107.747 2.92743 o
    184.94 60.4513 o
    289 168 o
    294.626 171.224 o
    295.369 165.101 o
    291 153 o
    267.284 101.832 o
    246.393 55.1896 o
    244 48 v
    240.669 39.823 o
    238.665 31.8443 o
    238 25 o
    244.469 6.46178 o
    260.538 -8.12211 o
    281 -14 o
    315.001 -7.79011 o
    352.001 10.4685 o
    390 40 o
    410.018 63.1972 o
    426.309 87.1324 o
    433 103 o
    432.298 109.403 o
    430.034 112.928 o
    426 114 o
    422.781 113.372 o
    419.553 111.627 o
    417 109 o
    388.439 78.36 o
    356.895 56.9847 o
    329 49 o
    316.749 53.14 o
    312.259 64.867 o
    316 83 [
    428 380 ]
    432.034 391.805 o
    434.298 399.858 o
    435 405 o
    429.159 414.88 o
    414.835 422.784 o
    397 426 o
    393.004 424.965 o
    388.996 421.699 o
    385 416 [
    368 386 ]
    365 381.5 o
    362 380 o
    359.559 382.551 o
    355.106 388.451 o
    350 395 o
    341.861 402.179 o
    332.138 407.152 o
    322 409 o
    292.926 398.65 o
    247.057 367.329 o
    184 315 o
    84.603 212.992 o
    18.1014 113.351 o
    -6 30 o
    1.65234 8.83437 o
    20.6893 -7.4937 o
    0 0 z
  EndSpiro
101 49 m 256
 84 49 72 63 72 83 c 256
 72 129 135 227 202 292 c 256
 236 325 285 353 309 353 c 256
 316 353 326 348 334 342 c 256
 341 336 347 328 347 323 c 256
 347 299 315 246 265 187 c 256
 192 100 130 49 101 49 c 256
  Spiro
    101 49 o
    85.9388 53.3619 o
    75.7335 65.3114 o
    72 83 o
    90.7794 143.114 o
    138.576 219.226 o
    202 292 o
    239.479 322.454 o
    278.184 344.535 o
    309 353 o
    316.806 351.484 o
    325.527 347.514 o
    334 342 o
    340.476 335.525 o
    345.189 328.808 o
    347 323 o
    336.872 290.226 o
    308.445 243.096 o
    265 187 o
    196.545 112.617 o
    140.137 65.4121 o
    0 0 z
  EndSpiro
EndSplineSet
PickledDataWithLists: "(dp0
Vcom.schriftgestaltung.Glyphs.glyph.rightMetricsKey
p1
Vi
p2
sVpublic.markColor
p3
V0.67,0.95,0.38,1
p4
s."
Substitution2: "'ss01' Style Set 1 in Latin lookup 31 subtable" A.pc
Substitution2: "'pcap' Lowercase to Petite Capitals in Latin lookup 23 subtable" a.pc
Substitution2: "'smcp' Lowercase to Small Capitals in Latin lookup 21 subtable" a.sc
Substitution2: "Single Substitution lookup 13 subtable" ordfeminine
Substitution2: "'sups' Superscript in Latin lookup 10 subtable" a.sups
Substitution2: "'sinf' Scientific Inferiors in Latin lookup 9 subtable" a.sinf
Substitution2: "'subs' Subscript in Latin lookup 8 subtable" a.subs
Comment: "+AAoA-a+AAoA"
EndChar
StartChar: b
Encoding: 588 98 587
GlifName: b
Width: 449
VWidth: 0
Flags: W
AnchorPoint: "bottom" 135 -30 basechar 0
LayerCount: 2
Back
SplineSet
359 404 m 256
 287 404 204 312 157 251 c 257
 155 247 148 248 150 251 c 257
 178 336 293 650 318 699 c 256
 322 707 318 717 315 717 c 256
 305 717 213 703 201 700 c 256
 189 697 176 692 176 687 c 256
 176 680 182 677 189 672 c 257
 212 658 224 651 211 615 c 257
 193 559 114 333 91 258 c 256
 68 184 43 107 43 77 c 256
 43 11 85 -16 127 -16 c 256
 158 -16 187 -8 237 21 c 256
 349 86 438 227 438 320 c 256
 438 365 406 404 359 404 c 256
339 371 m 256
 358 371 373 358 373 340 c 256
 373 255 277 109 214 50 c 257
 183 23 163 12 148 12 c 256
 127 12 109 48 109 60 c 256
 109 88 126 144 169 215 c 256
 211 284 279 371 339 371 c 256
EndSplineSet
Fore
SplineSet
136 -8 m 256
 271 -8 442 187 442 340 c 256
 442 383 411 414 368 414 c 256
 318 414 245 356 166 252 c 256
 157 240 149 243 154 257 c 256
 182 345 268 596 294 664 c 256
 299 678 301 685 301 697 c 256
 301 704 296 707 285 707 c 256
 273 707 200 687 170 676 c 256
 158 672 154 668 154 662 c 256
 154 658 166 652 185 647 c 256
 203 642 210 637 210 630 c 256
 210 613 207 595 200 576 c 258
 74 195 l 258
 59 151 51 107 51 74 c 256
 51 24 84 -8 136 -8 c 256
162 24 m 256
 134 24 110 55 110 91 c 256
 110 116 139 172 183 234 c 256
 253 330 305 376 347 376 c 256
 363 376 376 359 376 336 c 256
 376 288 337 196 289 132 c 256
 242 70 188 24 162 24 c 256
EndSplineSet
PickledDataWithLists: "(dp0
Vcom.schriftgestaltung.Glyphs.glyph.leftMetricsKey
p1
Vh
p2
sVcom.schriftgestaltung.Glyphs.glyph.rightMetricsKey
p3
V=|d
p4
sVpublic.markColor
p5
V0.67,0.95,0.38,1
p6
s."
Substitution2: "'ss01' Style Set 1 in Latin lookup 31 subtable" B.pc
Substitution2: "'pcap' Lowercase to Petite Capitals in Latin lookup 23 subtable" b.pc
Substitution2: "'smcp' Lowercase to Small Capitals in Latin lookup 21 subtable" b.sc
Substitution2: "'sups' Superscript in Latin lookup 10 subtable" b.sups
Substitution2: "'sinf' Scientific Inferiors in Latin lookup 9 subtable" b.sinf
Substitution2: "'subs' Subscript in Latin lookup 8 subtable" b.subs
Comment: "+AAoA-b+AAoA"
EndChar
StartChar: c
Encoding: 645 99 644
GlifName: c
Width: 313
VWidth: 0
Flags: W
AnchorPoint: "bottom" 107 -30 basechar 0
AnchorPoint: "top" 231 440 basechar 0
LayerCount: 2
Back
SplineSet
147 -15 m 256
 208 -15 266 7 311 48 c 256
 325 61 333 71 335 79 c 256
 337 87 335 93 329 93 c 256
 326 93 321 91 317 88 c 256
 275 56 248 45 209 45 c 256
 124 45 79 118 108 212 c 256
 138 310 205 377 270 377 c 256
 314 377 320 370 349 330 c 256
 354 323 360 319 367 319 c 256
 384 319 417 343 422 360 c 256
 424 367 422 373 416 379 c 256
 392 403 356 414 313 414 c 256
 196 414 70 310 30 180 c 256
 -4 69 46 -15 147 -15 c 256
EndSplineSet
Fore
SplineSet
99 -15 m 256
 180 -15 252 63 252 84 c 256
 252 91 250 97 244 97 c 256
 236 97 233 93 224 84 c 256
 198 60 178 41 135 41 c 256
 106 41 87 54 87 98 c 256
 87 208 172 387 236 387 c 256
 258 387 269 372 277 357 c 256
 284 344 290 333 301 333 c 256
 315 333 331 360 331 382 c 256
 331 399 312 414 276 414 c 256
 106 414 17 210 15 90 c 256
 14 28 63 -15 99 -15 c 256
EndSplineSet
PickledDataWithLists: "(dp0
Vcom.schriftgestaltung.Glyphs.glyph.leftMetricsKey
p1
Vo
p2
sVpublic.markColor
p3
V0.67,0.95,0.38,1
p4
s."
Substitution2: "'ss01' Style Set 1 in Latin lookup 31 subtable" C.pc
Substitution2: "'pcap' Lowercase to Petite Capitals in Latin lookup 23 subtable" c.pc
Substitution2: "'smcp' Lowercase to Small Capitals in Latin lookup 21 subtable" c.sc
Substitution2: "'sups' Superscript in Latin lookup 10 subtable" c.sups
Substitution2: "'sinf' Scientific Inferiors in Latin lookup 9 subtable" c.sinf
Substitution2: "'subs' Subscript in Latin lookup 8 subtable" c.subs
Comment: "+AAoA-c+AAoA"
EndChar
StartChar: d
Encoding: 695 100 694
GlifName: d
Width: 516
VWidth: 0
Flags: W
AnchorPoint: "bottom" 179 -30 basechar 0
LayerCount: 2
Back
SplineSet
70 -14 m 256
 160 -14 227 51 295 139 c 256
 299 144 303 140 301 129 c 256
 295 98 289 77 285 57 c 256
 282 42 281 36 281 31 c 256
 281 12 306 -14 331 -14 c 256
 377 -14 425 33 464 81 c 256
 480 100 484 119 473 119 c 256
 470 119 468 118 465 114 c 256
 444 85 396 50 364 50 c 256
 356 50 349 58 349 76 c 256
 349 84 350 94 354 107 c 258
 516 668 l 258
 519 678 520 685 520 691 c 256
 520 701 515 705 508 705 c 256
 498 705 437 696 415 693 c 256
 391 690 381 684 381 675 c 256
 381 669 396 666 411 661 c 256
 434 652 442 644 442 631 c 256
 442 625 441 619 438 611 c 258
 366 387 l 258
 365 383 363 381 362 381 c 256
 359 381 353 389 345 394 c 256
 331 403 310 420 282 420 c 256
 236 420 181 381 132 326 c 256
 62 248 5 136 5 58 c 256
 5 12 33 -14 70 -14 c 256
107 30 m 256
 80 30 73 41 73 68 c 256
 73 199 236 388 296 388 c 256
 328 388 346 365 346 326 c 256
 346 227 204 30 107 30 c 256
EndSplineSet
Fore
SplineSet
70 -14 m 256
 142 -14 205 31 297 147 c 256
 301 153 305 147 303 137 c 257
 308 160 291 86 285 57 c 256
 282 41 281 36 281 31 c 256
 281 9 303 -14 325 -14 c 256
 368 -14 475 82 475 120 c 256
 476 125 474 128 469 128 c 256
 466 128 464 127 461 123 c 256
 434 86 389 54 363 54 c 256
 353 54 349 61 349 76 c 256
 349 86 351 96 354 107 c 258
 516 668 l 258
 519 677 520 684 520 691 c 256
 520 700 516 705 508 705 c 256
 501 705 456 699 415 693 c 256
 391 689 381 684 381 675 c 256
 381 671 381 671 411 661 c 256
 432 653 439 645 439 631 c 256
 439 627 439 627 435 611 c 258
 368 386 l 258
 367 383 364 379 363 379 c 257
 365 379 367 378 339 395 c 256
 302 419 299 420 282 420 c 256
 239 420 183 386 131 327 c 256
 58 245 5 133 5 58 c 256
 5 15 31 -14 70 -14 c 256
107 33 m 256
 81 33 73 42 73 71 c 256
 73 179 220 388 296 388 c 256
 328 388 346 365 346 326 c 256
 346 217 196 33 107 33 c 256
EndSplineSet
PickledDataWithLists: "(dp0
Vpublic.markColor
p1
V0.67,0.95,0.38,1
p2
s."
Substitution2: "'ss01' Style Set 1 in Latin lookup 31 subtable" D.pc
Substitution2: "'pcap' Lowercase to Petite Capitals in Latin lookup 23 subtable" d.pc
Substitution2: "'smcp' Lowercase to Small Capitals in Latin lookup 21 subtable" d.sc
Substitution2: "'sups' Superscript in Latin lookup 10 subtable" d.sups
Substitution2: "'sinf' Scientific Inferiors in Latin lookup 9 subtable" d.sinf
Substitution2: "'subs' Subscript in Latin lookup 8 subtable" d.subs
Comment: "+AAoA-d+AAoA"
EndChar
StartChar: e
Encoding: 739 101 738
GlifName: e
Width: 341
VWidth: 0
Flags: W
AnchorPoint: "bottom" 100 -30 basechar 0
AnchorPoint: "top" 267 440 basechar 0
LayerCount: 2
Back
SplineSet
108 -14 m 256
 262 -14 362 176 362 296 c 256
 362 362 324 414 257 414 c 256
 123 414 17 224 17 99 c 256
 17 41 59 -14 108 -14 c 256
124 16 m 256
 97 16 81 34 81 78 c 256
 81 210 178 384 255 384 c 256
 289 384 298 359 298 324 c 256
 298 211 204 16 124 16 c 256
EndSplineSet
Fore
SplineSet
106 -15 m 256
 171 -15 226 21 266 86 c 256
 268 89 268 92 268 94 c 256
 268 100 264 104 258 104 c 256
 253 104 247 101 240 93 c 256
 218 69 186 39 138 39 c 256
 103 39 85 65 85 112 c 256
 85 143 96 180 106 209 c 256
 109 217 113 217 121 219 c 256
 232 240 349 275 349 359 c 256
 349 393 322 414 275 414 c 256
 133 414 14 223 14 89 c 256
 14 42 63 -15 106 -15 c 256
128 242 m 256
 123 242 121 242 121 248 c 256
 121 278 209 389 264 389 c 256
 281 389 291 374 291 357 c 256
 291 277 158 242 128 242 c 256
EndSplineSet
PickledDataWithLists: "(dp0
Vcom.schriftgestaltung.Glyphs.glyph.leftMetricsKey
p1
Vo
p2
sVpublic.markColor
p3
V0.67,0.95,0.38,1
p4
s."
Substitution2: "'ss01' Style Set 1 in Latin lookup 31 subtable" E.pc
Substitution2: "'fina' Terminal Forms in Latin lookup 26 subtable" e.fina
Substitution2: "'pcap' Lowercase to Petite Capitals in Latin lookup 23 subtable" e.pc
Substitution2: "'smcp' Lowercase to Small Capitals in Latin lookup 21 subtable" e.sc
Substitution2: "'sups' Superscript in Latin lookup 10 subtable" e.sups
Substitution2: "'sinf' Scientific Inferiors in Latin lookup 9 subtable" e.sinf
Substitution2: "'subs' Subscript in Latin lookup 8 subtable" e.subs
Comment: "+AAoA-e+AAoA"
EndChar
StartChar: f
Encoding: 823 102 822
GlifName: f
Width: 321
VWidth: 0
Flags: W
LayerCount: 2
Back
SplineSet
-91 -288 m 256
 -35 -288 78 -216 103 -108 c 256
 138 45 174 197 213 346 c 256
 216 358 224 362 238 362 c 258
 329 363 l 258
 347 363 358 383 358 392 c 256
 358 400 355 403 351 403 c 256
 317 403 281 400 241 400 c 256
 235 400 231 402 231 409 c 256
 231 416 233 419 236 429 c 256
 243 455 249 477 257 503 c 256
 293 618 320 665 376 665 c 256
 405 665 423 651 435 624 c 256
 445 602 452 585 462 585 c 256
 480 585 503 602 503 636 c 256
 503 677 468 706 409 706 c 256
 339 706 229 640 180 450 c 258
 172 418 l 258
 169 406 162 398 153 398 c 258
 83 394 l 257
 73 393 64 379 64 368 c 256
 64 361 68 356 77 356 c 258
 139 357 l 258
 153 357 156 352 153 339 c 258
 39 -113 l 258
 12 -223 -13 -248 -51 -248 c 256
 -75 -248 -91 -237 -103 -224 c 256
 -116 -210 -125 -196 -135 -196 c 256
 -148 -196 -174 -218 -174 -238 c 256
 -174 -271 -141 -288 -91 -288 c 256
EndSplineSet
Fore
SplineSet
-111 -290 m 256
 -55 -290 55 -217 83 -110 c 256
 122 41 166 195 213 346 c 257
 216 358 224 362 238 362 c 258
 329 363 l 258
 347 363 358 383 358 392 c 256
 358 400 355 403 351 403 c 256
 317 403 281 400 241 400 c 256
 235 400 231 402 231 409 c 256
 231 416 233 419 236 429 c 256
 244 455 249 477 257 503 c 256
 297 634 319 665 376 665 c 256
 405 665 423 651 435 624 c 256
 445 602 452 585 462 585 c 256
 480 585 503 602 503 636 c 256
 503 677 468 706 409 706 c 256
 339 706 228 640 180 450 c 258
 172 418 l 258
 169 406 162 399 153 398 c 258
 83 394 l 257
 73 393 64 379 64 368 c 256
 64 361 68 356 77 356 c 258
 139 357 l 258
 153 357 157 352 153 339 c 258
 19 -115 l 258
 -14 -225 -33 -250 -71 -250 c 256
 -95 -250 -111 -239 -123 -226 c 256
 -136 -212 -145 -198 -155 -198 c 256
 -168 -198 -194 -220 -194 -240 c 256
 -194 -273 -161 -290 -111 -290 c 256
EndSplineSet
PickledDataWithLists: "(dp0
Vpublic.markColor
p1
V0.67,0.95,0.38,1
p2
s."
Substitution2: "'ss01' Style Set 1 in Latin lookup 31 subtable" F.pc
Substitution2: "'pcap' Lowercase to Petite Capitals in Latin lookup 23 subtable" f.pc
Substitution2: "'smcp' Lowercase to Small Capitals in Latin lookup 21 subtable" f.sc
Substitution2: "'sups' Superscript in Latin lookup 10 subtable" f.sups
Substitution2: "'sinf' Scientific Inferiors in Latin lookup 9 subtable" f.sinf
Substitution2: "'subs' Subscript in Latin lookup 8 subtable" f.subs
Comment: "+AAoA-f+AAoA"
EndChar
StartChar: g
Encoding: 872 103 871
GlifName: g
Width: 415
VWidth: 0
Flags: W
AnchorPoint: "top" 269 440 basechar 0
LayerCount: 2
Back
SplineSet
113 -290 m 256
 216 -290 330 -233 330 -163 c 256
 330 -143 320 -126 291 -105 c 256
 262 -84 201 -46 167 -23 c 256
 133 0 123 12 123 36 c 256
 123 46 126 55 134 65 c 256
 139 71 146 77 156 77 c 256
 246 77 339 208 337 311 c 256
 337 323 336 334 333 344 c 256
 330 355 343 353 350 353 c 256
 365 353 406 346 425 346 c 256
 430 346 435 363 435 392 c 256
 435 400 427 404 419 404 c 256
 384 404 356 396 321 391 c 256
 311 390 302 397 293 402 c 256
 285 406 275 414 247 414 c 256
 139 414 53 270 54 180 c 256
 54 136 70 99 112 80 c 256
 121 76 124 74 110 64 c 256
 73 40 57 25 57 11 c 256
 57 -15 81 -35 105 -56 c 256
 109 -60 108 -63 103 -65 c 256
 12 -95 -96 -135 -96 -180 c 256
 -96 -248 -4 -290 113 -290 c 256
143 -260 m 256
 61 -260 -32 -226 -32 -182 c 256
 -32 -141 25 -112 105 -87 c 256
 113 -85 122 -83 130 -83 c 256
 144 -83 179 -104 199 -118 c 256
 229 -137 256 -161 257 -188 c 256
 258 -225 224 -260 143 -260 c 256
158 104 m 256
 129 104 118 119 117 147 c 256
 116 222 188 381 245 381 c 256
 268 381 279 359 279 334 c 256
 279 265 218 104 158 104 c 256
EndSplineSet
Fore
SplineSet
113 -290 m 256
 205 -290 330 -233 330 -163 c 256
 330 -143 320 -126 291 -105 c 256
 262 -84 201 -46 167 -23 c 256
 133 0 123 12 123 36 c 256
 123 46 126 55 134 65 c 256
 139 71 146 77 156 77 c 256
 245 77 337 205 337 308 c 256
 337 321 336 333 333 344 c 256
 330 355 338 358 345 358 c 256
 360 358 404 346 423 346 c 256
 431 346 441 356 441 381 c 256
 441 397 427 404 419 404 c 256
 392 404 343 391 321 391 c 256
 311 391 302 397 293 402 c 256
 285 406 275 414 247 414 c 256
 140 414 55 268 55 178 c 256
 55 133 66 105 107 85 c 256
 112 83 115 81 115 79 c 256
 115 77 114 73 107 67 c 256
 79 46 57 25 57 6 c 256
 57 -15 75 -31 105 -56 c 256
 109 -60 108 -63 103 -65 c 256
 12 -95 -96 -135 -96 -180 c 256
 -96 -248 -4 -290 113 -290 c 256
143 -260 m 256
 61 -260 -27 -226 -27 -182 c 256
 -27 -141 25 -112 105 -87 c 256
 113 -85 122 -83 130 -83 c 256
 136 -83 147 -87 158 -93 c 256
 172 -100 205 -122 216 -130 c 256
 246 -148 257 -171 257 -191 c 256
 257 -227 223 -260 143 -260 c 256
153 101 m 256
 131 101 112 123 112 149 c 256
 116 235 188 386 250 386 c 256
 270 386 285 359 285 339 c 256
 285 274 213 101 153 101 c 256
EndSplineSet
PickledDataWithLists: "(dp0
Vpublic.markColor
p1
V0.67,0.95,0.38,1
p2
s."
Substitution2: "'ss01' Style Set 1 in Latin lookup 31 subtable" G.pc
Substitution2: "'pcap' Lowercase to Petite Capitals in Latin lookup 23 subtable" g.pc
Substitution2: "'smcp' Lowercase to Small Capitals in Latin lookup 21 subtable" g.sc
Substitution2: "'sups' Superscript in Latin lookup 10 subtable" g.sups
Substitution2: "'sinf' Scientific Inferiors in Latin lookup 9 subtable" g.sinf
Substitution2: "'subs' Subscript in Latin lookup 8 subtable" g.subs
Comment: "+AAoA-g+AAoA"
EndChar
StartChar: h
Encoding: 934 104 933
GlifName: h
Width: 488
VWidth: 0
Flags: W
AnchorPoint: "bottom" 180 -30 basechar 0
LayerCount: 2
Back
SplineSet
56 -18 m 256
 72 -18 85 14 118 78 c 256
 161 160 304 374 369 374 c 256
 394 374 407 357 407 326 c 256
 407 214 343 27 285 27 c 256
 274 27 267 33 259 40 c 256
 252 46 244 52 232 52 c 256
 216 52 202 38 202 23 c 256
 202 1 222 -14 245 -14 c 256
 282 -14 339 26 354 42 c 256
 423 115 473 245 473 348 c 256
 473 386 449 421 405 421 c 256
 345 421 242 327 154 197 c 256
 150 191 145 190 148 200 c 258
 284 670 l 258
 287 679 289 686 289 697 c 256
 289 707 278 707 272 707 c 256
 258 707 190 684 170 676 c 256
 155 670 153 666 153 661 c 256
 153 656 161 653 171 650 c 256
 187 645 208 639 208 626 c 256
 208 612 200 581 193 558 c 258
 52 75 l 258
 44 45 39 28 39 8 c 256
 39 -4 46 -18 56 -18 c 256
EndSplineSet
Fore
SplineSet
56 -18 m 256
 72 -18 85 14 118 78 c 256
 165 168 298 374 370 374 c 256
 395 374 408 357 408 326 c 256
 408 214 331 27 273 27 c 256
 262 27 255 33 247 40 c 256
 240 46 232 52 220 52 c 256
 208 52 194 33 194 23 c 256
 194 8 218 -14 233 -14 c 256
 270 -14 327 26 342 42 c 256
 411 115 474 245 474 348 c 256
 474 386 450 421 406 421 c 256
 346 421 242 327 154 197 c 256
 150 191 145 190 148 200 c 258
 284 670 l 258
 287 679 289 686 289 697 c 256
 289 707 278 707 272 707 c 256
 258 707 190 684 170 676 c 256
 155 670 153 666 153 661 c 256
 153 656 161 653 171 650 c 256
 187 645 208 639 208 626 c 256
 208 612 200 581 193 558 c 258
 52 75 l 258
 44 45 39 28 39 8 c 256
 39 -4 46 -18 56 -18 c 256
EndSplineSet
PickledDataWithLists: "(dp0
Vpublic.markColor
p1
V0.67,0.95,0.38,1
p2
s."
Substitution2: "'ss01' Style Set 1 in Latin lookup 31 subtable" H.pc
Substitution2: "'pcap' Lowercase to Petite Capitals in Latin lookup 23 subtable" h.pc
Substitution2: "'smcp' Lowercase to Small Capitals in Latin lookup 21 subtable" h.sc
Substitution2: "'sups' Superscript in Latin lookup 10 subtable" h.sups
Substitution2: "'sinf' Scientific Inferiors in Latin lookup 9 subtable" h.sinf
Substitution2: "'subs' Subscript in Latin lookup 8 subtable" h.subs
Comment: "+AAoA-h+AAoA"
EndChar
StartChar: i
Encoding: 963 105 962
GlifName: i
Width: 294
VWidth: 0
Flags: W
AnchorPoint: "bottom" 88 -30 basechar 0
AnchorPoint: "top" 220 440 basechar 0
LayerCount: 2
Back
SplineSet
96 -14 m 256
 144 -14 263 81 263 123 c 256
 263 126 260 128 257 128 c 256
 255 128 254 127 253 126 c 256
 215 88 169 49 137 49 c 256
 130 49 125 55 125 65 c 256
 125 73 128 83 132 94 c 258
 238 388 l 258
 242 399 217 424 198 414 c 256
 118 371 51 317 51 300 c 256
 51 296 62 292 66 295 c 256
 90 313 123 329 134 329 c 256
 142 329 151 325 147 313 c 256
 118 234 89 157 50 45 c 256
 48 39 47 34 47 29 c 256
 47 10 70 -14 96 -14 c 256
239 513 m 256
 269 513 294 540 294 570 c 256
 294 591 281 613 260 613 c 256
 228 613 204 584 204 552 c 256
 204 532 219 513 239 513 c 256
EndSplineSet
Fore
Refer: 733 305 N 1 0 0 1 0 0 2
Refer: 730 729 N 1 0 0 1 66 0 2
PickledDataWithLists: "(dp0
Vpublic.markColor
p1
V0.67,0.95,0.38,1
p2
s."
Substitution2: "'ss01' Style Set 1 in Latin lookup 31 subtable" I.pc
Substitution2: "'pcap' Lowercase to Petite Capitals in Latin lookup 23 subtable" i.pc
Substitution2: "'smcp' Lowercase to Small Capitals in Latin lookup 21 subtable" i.sc
Substitution2: "'sups' Superscript in Latin lookup 10 subtable" i.sups
Substitution2: "'sinf' Scientific Inferiors in Latin lookup 9 subtable" i.sinf
Substitution2: "'subs' Subscript in Latin lookup 8 subtable" i.subs
Substitution2: "'locl' Localized Forms in Latin lookup 7 subtable" i.TRK
Substitution2: "'locl' Localized Forms in Latin lookup 6 subtable" i.TRK
Substitution2: "'locl' Localized Forms in Latin lookup 2 subtable" i.TRK
Substitution2: "'locl' Localized Forms in Latin lookup 1 subtable" i.TRK
Substitution2: "'locl' Localized Forms in Latin lookup 0 subtable" i.TRK
Comment: "+AAoA-i+AAoA"
EndChar
StartChar: k
Encoding: 1010 107 1009
GlifName: k
Width: 455
VWidth: 0
Flags: W
AnchorPoint: "bottom" 147 -30 basechar 0
LayerCount: 2
Back
SplineSet
370 403 m 256
 338 403 316 396 287 381 c 256
 236 355 191 314 160 264 c 256
 155 256 141 253 145 264 c 256
 199 412 293 667 299 686 c 256
 302 696 299 707 296 707 c 256
 279 707 196 688 182 680 c 257
 172 675 168 671 167 664 c 257
 167 662 174 656 184 652 c 256
 208 642 209 638 204 623 c 256
 142 437 15 58 8 41 c 257
 2 24 -1 11 -1 8 c 256
 -1 -2 19 -14 34 -14 c 256
 37 -14 45 -10 49 -1 c 256
 74 55 97 113 117 159 c 256
 125 177 133 179 142 179 c 256
 151 179 169 166 178 141 c 256
 192 101 200 75 213 44 c 256
 229 6 248 -17 270 -17 c 256
 304 -17 352 27 386 76 c 256
 397 92 403 114 392 114 c 256
 388 114 383 110 377 102 c 256
 354 72 318 45 301 45 c 256
 288 45 278 53 265 81 c 256
 250 113 238 161 232 189 c 257
 232 190 235 198 238 199 c 257
 251 204 312 233 345 255 c 256
 396 289 423 340 423 362 c 256
 423 383 402 403 370 403 c 256
318 361 m 256
 350 361 351 347 351 340 c 256
 351 292 255 212 175 207 c 257
 167 206 161 215 165 224 c 257
 190 272 230 322 268 344 c 256
 287 355 309 361 318 361 c 256
EndSplineSet
Fore
SplineSet
289 -21 m 256
 320 -21 402 56 402 98 c 256
 402 103 398 110 396 110 c 256
 391 110 387 109 380 97 c 256
 362 68 335 39 310 39 c 256
 295 39 283 54 277 68 c 258
 231 177 l 258
 228 184 229 186 236 188 c 256
 304 207 440 300 440 370 c 256
 440 400 408 415 381 415 c 256
 314 415 227 353 159 258 c 256
 154 251 145 247 150 262 c 258
 285 673 l 258
 288 682 288 685 288 696 c 256
 288 706 278 706 272 706 c 256
 256 706 189 684 159 669 c 256
 155 667 153 663 153 658 c 256
 153 654 166 649 179 644 c 256
 193 639 201 632 201 624 c 256
 201 608 199 592 191 567 c 258
 24 49 l 258
 18 29 16 13 16 7 c 256
 16 -5 32 -15 42 -15 c 256
 58 -15 60 -6 68 16 c 256
 75 35 107 117 115 136 c 256
 121 150 133 178 142 178 c 256
 164 178 180 156 188 134 c 258
 226 28 l 258
 240 -4 257 -21 289 -21 c 256
184 203 m 256
 176 203 172 212 172 220 c 256
 172 248 278 372 334 372 c 256
 358 372 370 360 370 340 c 256
 370 296 267 203 184 203 c 256
EndSplineSet
PickledDataWithLists: "(dp0
Vcom.schriftgestaltung.Glyphs.glyph.leftMetricsKey
p1
Vh
p2
sVpublic.markColor
p3
V0.67,0.95,0.38,1
p4
s."
Substitution2: "'ss01' Style Set 1 in Latin lookup 31 subtable" K.pc
Substitution2: "'pcap' Lowercase to Petite Capitals in Latin lookup 23 subtable" k.pc
Substitution2: "'smcp' Lowercase to Small Capitals in Latin lookup 21 subtable" k.sc
Substitution2: "'sups' Superscript in Latin lookup 10 subtable" k.sups
Substitution2: "'sinf' Scientific Inferiors in Latin lookup 9 subtable" k.sinf
Substitution2: "'subs' Subscript in Latin lookup 8 subtable" k.subs
Comment: "+AAoA-k+AAoA"
EndChar
StartChar: l
Encoding: 1027 108 1026
GlifName: l
Width: 286
VWidth: 0
Flags: W
AnchorPoint: "bottom" 67 -30 basechar 0
LayerCount: 2
Back
SplineSet
164 679 m 256
 164 676 174 672 188 669 c 256
 220 662 229 657 215 618 c 256
 154 449 80 239 41 125 c 256
 21 67 8 31 8 22 c 256
 8 6 31 -16 50 -16 c 256
 106 -16 187 33 224 107 c 256
 227 113 230 124 230 130 c 257
 229 135 225 136 218 131 c 256
 199 118 116 28 96 28 c 256
 85 28 84 52 90 70 c 256
 109 127 241 504 310 686 c 257
 312 693 317 717 309 717 c 256
 302 717 292 715 280 711 c 257
 259 705 193 696 182 694 c 256
 171 692 164 684 164 679 c 256
EndSplineSet
Fore
SplineSet
56 -14 m 256
 109 -14 239 80 239 147 c 256
 239 155 239 160 234 160 c 256
 228 160 216 148 208 137 c 256
 183 102 129 45 101 45 c 256
 94 45 91 51 91 61 c 256
 91 69 92 79 96 90 c 258
 298 666 l 258
 301 675 304 686 304 694 c 256
 304 704 298 709 292 709 c 256
 276 709 202 697 164 688 c 256
 160 687 158 682 158 677 c 256
 158 672 166 667 180 664 c 256
 198 660 213 648 213 636 c 256
 213 619 210 602 203 583 c 258
 13 42 l 258
 12 39 11 33 11 30 c 256
 11 8 39 -14 56 -14 c 256
EndSplineSet
PickledDataWithLists: "(dp0
Vcom.schriftgestaltung.Glyphs.glyph.leftMetricsKey
p1
Vh
p2
sVcom.schriftgestaltung.Glyphs.glyph.rightMetricsKey
p3
Vi
p4
sVpublic.markColor
p5
V0.67,0.95,0.38,1
p6
s."
Substitution2: "'ss01' Style Set 1 in Latin lookup 31 subtable" L.pc
Substitution2: "'pcap' Lowercase to Petite Capitals in Latin lookup 23 subtable" l.pc
Substitution2: "'smcp' Lowercase to Small Capitals in Latin lookup 21 subtable" l.sc
Substitution2: "'sups' Superscript in Latin lookup 10 subtable" l.sups
Substitution2: "'sinf' Scientific Inferiors in Latin lookup 9 subtable" l.sinf
Substitution2: "'subs' Subscript in Latin lookup 8 subtable" l.subs
Comment: "+AAoA-l+AAoA"
EndChar
StartChar: m
Encoding: 1077 109 1076
GlifName: m
Width: 789
VWidth: 0
Flags: W
AnchorPoint: "bottom" 311 -30 basechar 0
AnchorPoint: "top" 487 440 basechar 0
LayerCount: 2
Back
SplineSet
75 -17 m 256
 91 -17 106 14 141 78 c 256
 181 151 253 259 284 297 c 256
 328 351 365 377 387 375 c 256
 396 374 419 365 407 334 c 258
 314 84 l 258
 300 46 291 16 291 10 c 256
 291 -2 299 -17 309 -17 c 256
 325 -17 353 14 388 78 c 256
 428 151 500 259 531 297 c 256
 575 351 612 373 634 372 c 256
 649 371 664 357 654 331 c 258
 538 32 l 258
 530 9 552 -14 568 -14 c 256
 631 -14 686 37 730 87 c 256
 744 102 748 112 748 123 c 256
 748 128 744 132 740 132 c 256
 739 132 738 132 737 131 c 256
 727 121 658 50 626 50 c 256
 614 50 610 60 621 86 c 258
 714 328 l 258
 734 378 699 414 663 414 c 256
 598 414 516 345 432 208 c 256
 428 201 419 202 423 212 c 258
 465 334 l 258
 481 381 445 414 409 414 c 256
 344 414 265 346 182 208 c 256
 178 201 169 202 173 212 c 258
 230 360 l 258
 246 402 211 414 184 414 c 256
 139 413 108 392 85 364 c 256
 76 353 67 326 68 314 c 257
 70 304 78 304 83 310 c 257
 115 352 135 356 155 356 c 256
 171 356 178 342 172 325 c 258
 80 84 l 258
 66 46 57 19 57 13 c 256
 57 1 65 -17 75 -17 c 256
EndSplineSet
Fore
SplineSet
75 -17 m 256
 91 -17 106 14 141 78 c 256
 181 151 253 261 284 299 c 256
 328 353 365 377 387 375 c 256
 396 374 419 365 407 334 c 258
 314 84 l 258
 300 46 291 16 291 10 c 256
 291 -2 299 -17 309 -17 c 256
 325 -17 353 14 388 78 c 256
 428 151 500 259 531 297 c 256
 575 351 612 373 634 372 c 256
 649 371 664 357 654 331 c 258
 538 32 l 258
 530 9 552 -14 568 -14 c 256
 631 -14 686 37 730 87 c 256
 744 102 748 112 748 123 c 256
 748 128 744 132 740 132 c 256
 739 132 738 132 737 131 c 256
 727 121 658 50 626 50 c 256
 614 50 610 60 621 86 c 258
 707 308 l 258
 734 378 700 414 663 414 c 256
 598 414 516 345 432 208 c 256
 428 201 419 202 423 212 c 258
 459 317 l 258
 481 381 447 414 409 414 c 256
 344 414 267 339 182 208 c 256
 178 201 169 202 173 212 c 258
 230 360 l 258
 246 402 211 414 184 414 c 256
 139 413 108 392 85 364 c 256
 76 353 67 326 68 314 c 257
 70 304 78 304 83 310 c 257
 115 352 135 356 155 356 c 256
 171 356 178 342 172 325 c 258
 80 84 l 258
 66 46 57 19 57 13 c 256
 57 1 65 -17 75 -17 c 256
EndSplineSet
PickledDataWithLists: "(dp0
Vcom.schriftgestaltung.Glyphs.glyph.leftMetricsKey
p1
Vn
p2
sVcom.schriftgestaltung.Glyphs.glyph.rightMetricsKey
p3
g2
sVpublic.markColor
p4
V0.67,0.95,0.38,1
p5
s."
Substitution2: "'ss01' Style Set 1 in Latin lookup 31 subtable" M.pc
Substitution2: "'pcap' Lowercase to Petite Capitals in Latin lookup 23 subtable" m.pc
Substitution2: "'smcp' Lowercase to Small Capitals in Latin lookup 21 subtable" m.sc
Substitution2: "'sups' Superscript in Latin lookup 10 subtable" m.sups
Substitution2: "'sinf' Scientific Inferiors in Latin lookup 9 subtable" m.sinf
Substitution2: "'subs' Subscript in Latin lookup 8 subtable" m.subs
Comment: "+AAoA-m+AAoA"
EndChar
StartChar: n
Encoding: 1092 110 1091
GlifName: n
Width: 527
VWidth: 0
Flags: W
AnchorPoint: "bottom" 180 -30 basechar 0
AnchorPoint: "top" 306 440 basechar 0
LayerCount: 2
Back
SplineSet
70 -17 m 256
 81 -17 89 -8 101 14 c 256
 163 129 240 259 271 297 c 256
 315 351 352 373 374 372 c 256
 393 371 403 352 382 297 c 256
 347 208 311 119 276 30 c 256
 268 8 289 -14 307 -14 c 256
 370 -14 427 33 479 96 c 257
 481 99 483 105 483 110 c 256
 483 115 479 119 475 119 c 256
 474 119 473 119 472 118 c 256
 462 108 398 50 366 50 c 256
 354 50 350 60 361 86 c 258
 436 282 l 258
 469 370 444 414 398 414 c 256
 337 414 240 343 164 197 c 256
 160 190 151 191 155 201 c 258
 221 371 l 258
 230 395 209 414 188 414 c 256
 143 413 108 394 88 364 c 256
 80 352 66 326 67 314 c 257
 69 304 77 304 82 310 c 257
 114 352 136 356 156 356 c 256
 169 356 165 341 154 312 c 258
 45 27 l 258
 38 10 54 -17 70 -17 c 256
EndSplineSet
Fore
SplineSet
63 -16 m 256
 74 -16 82 -7 94 15 c 256
 159 128 242 256 273 294 c 256
 317 348 352 373 374 372 c 256
 393 371 403 352 382 297 c 256
 347 208 307 119 268 30 c 256
 258 8 281 -14 299 -14 c 256
 362 -14 427 33 479 96 c 257
 481 99 483 105 483 110 c 256
 483 115 479 119 475 119 c 256
 474 119 473 119 472 118 c 256
 462 108 390 50 358 50 c 256
 346 50 342 60 353 86 c 258
 445 304 l 258
 472 367 440 414 398 414 c 256
 337 414 246 337 164 197 c 256
 160 190 151 191 155 201 c 258
 221 371 l 258
 230 395 209 414 188 414 c 256
 143 413 108 394 88 364 c 256
 80 352 66 326 67 314 c 257
 69 304 77 304 82 310 c 257
 114 352 136 356 156 356 c 256
 169 356 166 341 154 312 c 258
 38 28 l 258
 31 11 47 -16 63 -16 c 256
EndSplineSet
PickledDataWithLists: "(dp0
Vpublic.markColor
p1
V0.67,0.95,0.38,1
p2
s."
Substitution2: "'ss01' Style Set 1 in Latin lookup 31 subtable" N.pc
Substitution2: "'pcap' Lowercase to Petite Capitals in Latin lookup 23 subtable" n.pc
Substitution2: "'smcp' Lowercase to Small Capitals in Latin lookup 21 subtable" n.sc
Substitution2: "'sups' Superscript in Latin lookup 10 subtable" n.sups
Substitution2: "'sinf' Scientific Inferiors in Latin lookup 9 subtable" n.sinf
Substitution2: "'subs' Subscript in Latin lookup 8 subtable" n.subs
Comment: "+AAoA-n+AAoA"
EndChar
StartChar: o
Encoding: 1128 111 1127
GlifName: o
Width: 380
VWidth: 0
Flags: W
AnchorPoint: "bottom" 104 -30 basechar 0
AnchorPoint: "top" 278 440 basechar 0
LayerCount: 2
Back
SplineSet
108 -14 m 256
 262 -14 362 176 362 296 c 256
 362 362 324 414 257 414 c 256
 123 414 17 224 17 99 c 256
 17 41 59 -14 108 -14 c 256
124 16 m 256
 97 16 81 34 81 78 c 256
 81 210 178 384 255 384 c 256
 289 384 298 359 298 324 c 256
 298 211 204 16 124 16 c 256
EndSplineSet
Fore
SplineSet
108 -14 m 256
 262 -14 362 176 362 296 c 256
 362 362 324 414 257 414 c 256
 123 414 17 224 17 99 c 256
 17 41 59 -14 108 -14 c 256
124 16 m 256
 97 16 81 34 81 78 c 256
 81 210 178 384 255 384 c 256
 289 384 298 359 298 324 c 256
 298 211 204 16 124 16 c 256
EndSplineSet
PickledDataWithLists: "(dp0
Vpublic.markColor
p1
V0.67,0.95,0.38,1
p2
s."
Substitution2: "'ss01' Style Set 1 in Latin lookup 31 subtable" O.pc
Substitution2: "'pcap' Lowercase to Petite Capitals in Latin lookup 23 subtable" o.pc
Substitution2: "'smcp' Lowercase to Small Capitals in Latin lookup 21 subtable" o.sc
Substitution2: "Single Substitution lookup 14 subtable" ordmasculine
Substitution2: "'sups' Superscript in Latin lookup 10 subtable" o.sups
Substitution2: "'sinf' Scientific Inferiors in Latin lookup 9 subtable" o.sinf
Substitution2: "'subs' Subscript in Latin lookup 8 subtable" o.subs
Comment: "+AAoA-o+AAoA"
EndChar
StartChar: p
Encoding: 1187 112 1186
GlifName: p
Width: 439
VWidth: 0
Flags: W
AnchorPoint: "top" 303 440 basechar 0
LayerCount: 2
Back
SplineSet
-107 -286 m 256
 -71 -286 -41 -283 -8 -279 c 256
 10 -277 44 -279 75 -279 c 256
 90 -279 104 -276 104 -268 c 256
 104 -258 87 -254 74 -253 c 256
 40 -250 23 -237 33 -209 c 258
 99 -14 l 258
 108 11 114 12 126 4 c 256
 139 -4 155 -14 167 -14 c 256
 299 -14 429 163 429 290 c 256
 429 360 399 415 299 415 c 256
 285 415 272 414 255 411 c 256
 250 410 246 416 250 429 c 258
 267 487 l 258
 270 499 260 506 249 506 c 256
 219 506 208 480 189 417 c 256
 186 407 180 403 171 401 c 256
 118 387 76 366 55 355 c 256
 47 351 40 345 40 334 c 256
 40 326 50 322 61 327 c 256
 89 340 109 345 141 350 c 256
 161 353 162 347 152 319 c 258
 -41 -220 l 258
 -50 -246 -65 -252 -93 -257 c 256
 -105 -259 -123 -267 -123 -277 c 256
 -123 -284 -114 -286 -107 -286 c 256
186 20 m 256
 165 20 152 29 146 46 c 256
 141 61 141 82 149 106 c 258
 232 346 l 258
 238 363 254 377 285 377 c 256
 342 377 355 343 355 281 c 256
 355 175 248 20 186 20 c 256
EndSplineSet
Fore
SplineSet
-107 -286 m 256
 -71 -286 -41 -283 -8 -279 c 256
 10 -277 44 -279 75 -279 c 256
 90 -279 104 -276 104 -268 c 256
 104 -258 87 -254 74 -253 c 256
 40 -250 23 -237 33 -209 c 258
 99 -14 l 258
 108 11 114 12 126 4 c 256
 139 -4 155 -14 167 -14 c 256
 299 -14 429 163 429 290 c 256
 429 360 399 415 299 415 c 256
 285 415 272 414 255 411 c 256
 250 410 246 416 250 429 c 258
 267 487 l 258
 270 499 260 506 249 506 c 256
 219 506 208 480 189 417 c 256
 186 407 180 403 171 401 c 256
 118 387 76 366 55 355 c 256
 47 351 40 345 40 334 c 256
 40 326 50 322 61 327 c 256
 89 340 109 345 141 350 c 256
 161 353 162 347 152 319 c 258
 -41 -220 l 258
 -50 -246 -65 -252 -93 -257 c 256
 -105 -259 -123 -267 -123 -277 c 256
 -123 -284 -114 -286 -107 -286 c 256
186 20 m 256
 165 20 152 29 146 46 c 256
 141 61 141 82 149 106 c 258
 241 376 l 257
 255 378 267 378 279 378 c 256
 327 377 355 356 355 281 c 256
 355 175 248 20 186 20 c 256
EndSplineSet
PickledDataWithLists: "(dp0
Vpublic.markColor
p1
V0.67,0.95,0.38,1
p2
s."
Substitution2: "'ss01' Style Set 1 in Latin lookup 31 subtable" P.pc
Substitution2: "'pcap' Lowercase to Petite Capitals in Latin lookup 23 subtable" p.pc
Substitution2: "'smcp' Lowercase to Small Capitals in Latin lookup 21 subtable" p.sc
Substitution2: "'sups' Superscript in Latin lookup 10 subtable" p.sups
Substitution2: "'sinf' Scientific Inferiors in Latin lookup 9 subtable" p.sinf
Substitution2: "'subs' Subscript in Latin lookup 8 subtable" p.subs
Comment: "+AAoA-p+AAoA"
EndChar
StartChar: q
Encoding: 1251 113 1250
GlifName: q
Width: 473
VWidth: 0
Flags: W
LayerCount: 2
Back
SplineSet
110 -286 m 256
 138 -281 220 -272 286 -272 c 256
 301 -272 315 -269 315 -261 c 256
 315 -251 298 -247 285 -246 c 256
 259 -243 250 -227 259 -199 c 258
 454 390 l 258
 463 415 459 428 451 428 c 256
 441 428 431 423 424 407 c 258
 415 388 l 258
 410 378 404 372 396 372 c 256
 389 372 385 383 375 394 c 256
 365 407 349 420 318 420 c 256
 269 420 200 386 148 331 c 256
 68 246 1 131 1 47 c 256
 1 12 30 -14 71 -14 c 256
 143 -14 214 37 288 120 c 256
 304 138 310 125 304 110 c 256
 264 3 223 -104 183 -211 c 256
 174 -236 148 -253 120 -257 c 256
 108 -259 90 -267 90 -277 c 256
 90 -285 103 -287 110 -286 c 256
96 22 m 256
 77 22 71 34 71 61 c 256
 70 176 247 387 309 387 c 256
 335 387 348 363 348 337 c 256
 348 296 322 238 293 188 c 256
 251 115 149 22 96 22 c 256
EndSplineSet
Fore
SplineSet
110 -286 m 256
 138 -281 220 -272 286 -272 c 256
 301 -272 315 -269 315 -261 c 256
 315 -251 298 -247 285 -246 c 256
 259 -243 250 -227 259 -199 c 258
 454 390 l 258
 463 415 459 428 451 428 c 256
 441 428 431 423 424 407 c 258
 415 388 l 258
 410 378 404 372 396 372 c 256
 389 372 385 383 375 394 c 256
 365 407 349 420 318 420 c 256
 269 420 200 386 148 331 c 256
 68 246 1 131 1 47 c 256
 1 12 28 -14 71 -14 c 256
 143 -14 214 37 288 120 c 256
 304 138 310 125 304 110 c 256
 264 3 223 -104 183 -211 c 256
 174 -236 148 -253 120 -257 c 256
 108 -259 90 -267 90 -277 c 256
 90 -285 103 -287 110 -286 c 256
96 22 m 256
 77 22 71 34 71 61 c 256
 70 176 247 387 309 387 c 256
 335 387 348 363 348 337 c 256
 348 296 322 238 293 188 c 256
 251 115 149 22 96 22 c 256
EndSplineSet
PickledDataWithLists: "(dp0
Vpublic.markColor
p1
V0.67,0.95,0.38,1
p2
s."
Substitution2: "'ss01' Style Set 1 in Latin lookup 31 subtable" Q.pc
Substitution2: "'pcap' Lowercase to Petite Capitals in Latin lookup 23 subtable" q.pc
Substitution2: "'smcp' Lowercase to Small Capitals in Latin lookup 21 subtable" q.sc
Substitution2: "'sups' Superscript in Latin lookup 10 subtable" q.sups
Substitution2: "'sinf' Scientific Inferiors in Latin lookup 9 subtable" q.sinf
Substitution2: "'subs' Subscript in Latin lookup 8 subtable" q.subs
Comment: "+AAoA-q+AAoA"
EndChar
StartChar: r
Encoding: 1287 114 1286
GlifName: r
Width: 379
VWidth: 0
Flags: W
AnchorPoint: "bottom" 107 -30 basechar 0
AnchorPoint: "top" 261 440 basechar 0
LayerCount: 2
Back
SplineSet
60 -17 m 256
 76 -17 86 11 122 75 c 256
 163 148 235 258 265 297 c 256
 298 340 320 355 333 355 c 256
 347 355 352 343 352 323 c 256
 352 302 357 288 368 288 c 256
 396 288 418 332 418 369 c 256
 418 396 405 419 371 419 c 256
 324 419 247 341 167 204 c 257
 163 197 150 200 155 210 c 257
 200 309 l 258
 227 369 225 414 170 414 c 256
 146 414 123 405 107 393 c 256
 90 381 79 366 79 356 c 256
 79 346 88 343 96 348 c 256
 105 353 125 359 144 359 c 256
 157 359 156 341 150 324 c 258
 58 84 l 258
 44 46 35 23 35 7 c 256
 35 -5 50 -17 60 -17 c 256
EndSplineSet
Fore
SplineSet
60 -17 m 256
 76 -17 86 11 122 75 c 256
 163 148 235 258 265 297 c 256
 298 340 320 355 333 355 c 256
 347 355 352 343 352 323 c 256
 352 302 357 288 368 288 c 256
 396 288 418 332 418 369 c 256
 418 396 405 419 371 419 c 256
 324 419 237 327 157 190 c 257
 153 183 140 186 145 196 c 257
 190 309 l 258
 214 369 225 414 170 414 c 256
 146 414 123 405 107 393 c 256
 90 381 79 366 79 356 c 256
 79 346 88 343 96 348 c 256
 105 353 125 359 144 359 c 256
 157 359 156 341 150 324 c 258
 58 84 l 258
 44 46 35 23 35 7 c 256
 35 -5 50 -17 60 -17 c 256
EndSplineSet
PickledDataWithLists: "(dp0
Vcom.schriftgestaltung.Glyphs.glyph.leftMetricsKey
p1
Vn
p2
sVpublic.markColor
p3
V0.67,0.95,0.38,1
p4
s."
Substitution2: "'ss01' Style Set 1 in Latin lookup 31 subtable" R.pc
Substitution2: "'pcap' Lowercase to Petite Capitals in Latin lookup 23 subtable" r.pc
Substitution2: "'smcp' Lowercase to Small Capitals in Latin lookup 21 subtable" r.sc
Substitution2: "'sups' Superscript in Latin lookup 10 subtable" r.sups
Substitution2: "'sinf' Scientific Inferiors in Latin lookup 9 subtable" r.sinf
Substitution2: "'subs' Subscript in Latin lookup 8 subtable" r.subs
Comment: "+AAoA-r+AAoA"
EndChar
StartChar: s
Encoding: 115 115 17
Width: 276
Flags: MW
AnchorPoint: "cedilla" 119 8 basechar 0
AnchorPoint: "below_accent" 47 -100 basechar 0
AnchorPoint: "top_accent" 267 550 basechar 0
LayerCount: 2
Back
Fore
SplineSet
243 414 m 0
 274 414 294 388 294 377 c 0
 294 365 278 335 266 335 c 0
 251 335 243 368 207 368 c 0
 185 368 167 348 167 319 c 0
 167 302 184 254 200 227 c 0
 216 200 230 153 230 123 c 0
 230 44 124 -14 44 -14 c 0
 10 -14 -10 10 -10 30 c 0
 -10 45 8 76 18 76 c 0
 34 76 52 34 109 34 c 0
 143 34 165 62 166 94 c 0
 167 132 156 164 142 190 c 0
 123 225 110 255 110 275 c 0
 110 355 206 414 243 414 c 0
EndSplineSet
Validated: 33
Substitution2: "Single Substitution lookup 49 subtable" longs
Substitution2: "Smallcaps1 subtable" s.sc
Substitution2: "sups subtable" s.sups
Substitution2: "sinf subtable" s.sinf
Substitution2: "ordn subtable" s.ordn
Substitution2: "subs subtable" s.subs
EndChar
StartChar: t
Encoding: 1378 116 1377
GlifName: t
Width: 292
VWidth: 0
Flags: W
AnchorPoint: "bottom" 77 -30 basechar 0
AnchorPoint: "top" 219 471 basechar 0
LayerCount: 2
Back
SplineSet
106 -14 m 256
 167 -14 240 36 245 47 c 256
 248 54 248 61 243 61 c 256
 242 61 240 60 239 59 c 256
 221 41 197 41 158 41 c 256
 115 41 103 73 123 127 c 258
 195 324 l 258
 205 351 211 352 245 352 c 258
 344 352 l 258
 349 352 359 366 364 378 c 256
 369 390 367 400 362 400 c 258
 248 400 l 258
 231 400 223 404 231 419 c 258
 252 458 l 257
 256 467 249 469 243 469 c 256
 236 469 230 464 222 457 c 256
 196 435 144 390 100 379 c 257
 98 378 94 375 93 372 c 256
 90 362 90 352 97 352 c 258
 103 352 l 257
 129 352 134 348 130 337 c 258
 45 105 l 258
 16 26 41 -14 106 -14 c 256
EndSplineSet
Fore
SplineSet
64 -14 m 256
 90 -14 167 28 219 85 c 256
 230 97 237 109 237 118 c 256
 237 126 224 129 210 115 c 256
 189 95 151 59 124 59 c 256
 101 59 97 74 106 99 c 258
 195 345 l 258
 198 353 205 359 226 360 c 256
 255 361 281 363 310 365 c 256
 325 366 329 374 329 377 c 256
 329 384 327 388 306 392 c 256
 288 395 258 400 231 400 c 256
 220 400 215 402 218 411 c 257
 244 478 l 258
 249 491 247 510 236 510 c 256
 226 510 190 481 182 465 c 258
 158 416 l 258
 151 401 148 398 134 398 c 258
 98 398 l 258
 80 398 64 377 64 374 c 256
 64 369 65 361 82 360 c 258
 122 358 l 257
 128 358 135 355 132 346 c 258
 37 79 l 258
 30 59 23 45 23 23 c 256
 23 9 47 -14 64 -14 c 256
EndSplineSet
PickledDataWithLists: "(dp0
Vpublic.markColor
p1
V0.67,0.95,0.38,1
p2
s."
Substitution2: "'ss01' Style Set 1 in Latin lookup 31 subtable" T.pc
Substitution2: "'pcap' Lowercase to Petite Capitals in Latin lookup 23 subtable" t.pc
Substitution2: "'smcp' Lowercase to Small Capitals in Latin lookup 21 subtable" t.sc
Substitution2: "'sups' Superscript in Latin lookup 10 subtable" t.sups
Substitution2: "'sinf' Scientific Inferiors in Latin lookup 9 subtable" t.sinf
Substitution2: "'subs' Subscript in Latin lookup 8 subtable" t.subs
Comment: "+AAoA-t+AAoA"
EndChar
StartChar: u
Encoding: 117 117 15
Width: 498
Flags: MW
AnchorPoint: "ogonek" 384 18 basechar 0
AnchorPoint: "below_accent" 181 -100 basechar 0
AnchorPoint: "top_accent" 387 550 basechar 0
LayerCount: 2
Back
Fore
SplineSet
286 36 m 0
 314 96 350 175 360 203 c 0
 366 219 355 219 348 211 c 0
 209 59 134 -14 78 -14 c 0
 51 -14 55 30 66 55 c 26
 156 270 l 2
 165 292 184 339 174 339 c 0
 163 339 125 306 96 280 c 0
 93 277 83 279 83 283 c 0
 83 288 84 298 95 313 c 0
 145 380 221 418 250 418 c 0
 270 418 281 404 265 373 c 2
 144 104 l 2
 132 77 127 50 141 50 c 0
 155 50 181 72 243 136 c 0
 331 226 434 370 448 396 c 0
 457 413 465 414 470 414 c 0
 484 414 491 403 491 391 c 0
 491 385 488 373 478 350 c 2
 363 86 l 2
 352 60 354 47 366 47 c 0
 398 47 464 108 474 118 c 0
 475 119 476 119 477 119 c 0
 481 119 486 115 486 110 c 0
 486 105 483 99 481 96 c 0
 429 33 375 -14 312 -14 c 0
 292 -14 277 16 286 36 c 0
EndSplineSet
Validated: 33
Substitution2: "Single Substitution lookup 43 subtable" u.LAT
Substitution2: "Smallcaps1 subtable" u.sc
Substitution2: "sups subtable" u.sups
Substitution2: "sinf subtable" u.sinf
Substitution2: "ordn subtable" u.ordn
Substitution2: "subs subtable" u.subs
EndChar
StartChar: v
Encoding: 2971 118 2970
GlifName: v
Width: 410
VWidth: 0
Flags: W
AnchorPoint: "bottom" 137 -30 basechar 0
AnchorPoint: "top" 265 440 basechar 0
LayerCount: 2
Back
SplineSet
130 -14 m 256
 184 -14 240 18 294 81 c 256
 372 172 397 261 397 349 c 256
 397 395 382 418 368 418 c 256
 340 418 307 391 307 373 c 256
 307 361 312 354 321 344 c 256
 336 327 342 302 342 280 c 256
 342 165 251 43 154 43 c 256
 120 43 109 73 124 119 c 258
 214 379 l 258
 220 398 204 418 188 418 c 256
 159 418 108 380 59 313 c 256
 48 298 47 288 47 283 c 256
 47 281 49 278 54 278 c 256
 56 278 60 278 67 286 c 256
 88 309 116 333 125 333 c 256
 141 333 137 315 127 288 c 258
 62 115 l 258
 36 46 74 -14 130 -14 c 256
EndSplineSet
Fore
SplineSet
119 -14 m 256
 173 -14 239 22 302 96 c 256
 371 176 397 261 397 349 c 256
 397 395 382 418 368 418 c 256
 340 418 309 395 309 377 c 256
 309 365 312 354 321 344 c 256
 336 327 345 302 345 280 c 256
 345 165 251 43 154 43 c 256
 120 43 109 73 124 119 c 258
 214 379 l 258
 220 398 204 418 188 418 c 256
 159 418 108 380 59 313 c 256
 49 299 47 291 47 283 c 256
 47 281 49 278 54 278 c 256
 56 278 60 278 67 286 c 256
 88 309 116 333 125 333 c 256
 141 333 137 315 127 288 c 258
 62 115 l 258
 40 57 72 -14 119 -14 c 256
EndSplineSet
PickledDataWithLists: "(dp0
Vcom.schriftgestaltung.Glyphs.glyph.leftMetricsKey
p1
Vi
p2
sVpublic.markColor
p3
V0.67,0.95,0.38,1
p4
s."
Substitution2: "'ss01' Style Set 1 in Latin lookup 31 subtable" V.pc
Substitution2: "'init' Initial Forms in Latin lookup 25 subtable" v.init
Substitution2: "'pcap' Lowercase to Petite Capitals in Latin lookup 23 subtable" v.pc
Substitution2: "'smcp' Lowercase to Small Capitals in Latin lookup 21 subtable" v.sc
Substitution2: "'sups' Superscript in Latin lookup 10 subtable" v.sups
Substitution2: "'sinf' Scientific Inferiors in Latin lookup 9 subtable" v.sinf
Substitution2: "'subs' Subscript in Latin lookup 8 subtable" v.subs
Comment: "+AAoA-v+AAoA"
EndChar
StartChar: w
Encoding: 2986 119 2985
GlifName: w
Width: 623
VWidth: 0
Flags: W
AnchorPoint: "bottom" 242 -30 basechar 0
AnchorPoint: "top" 385 440 basechar 0
LayerCount: 2
Back
SplineSet
133 -14 m 256
 171 -14 254 50 302 126 c 257
 295 129 l 257
 280 63 304 -14 355 -14 c 256
 409 -14 446 17 500 80 c 256
 577 171 614 261 614 349 c 256
 614 395 599 420 585 420 c 256
 559 420 522 391 522 365 c 256
 522 356 533 344 542 329 c 256
 549 317 555 304 555 288 c 256
 555 179 458 41 384 41 c 256
 351 41 344 82 354 143 c 256
 356 157 365 191 375 214 c 256
 386 239 398 275 416 322 c 256
 426 348 430 397 416 397 c 256
 389 397 373 385 359 372 c 256
 348 362 340 342 336 319 c 256
 332 294 318 227 311 202 c 256
 302 174 213 43 162 43 c 256
 129 43 117 74 133 120 c 258
 220 373 l 258
 231 406 225 418 205 418 c 256
 176 418 117 380 67 313 c 256
 56 298 55 292 55 287 c 256
 55 283 61 279 65 279 c 256
 67 279 75 281 81 288 c 256
 102 312 126 332 133 332 c 256
 144 332 147 319 136 290 c 258
 80 141 l 258
 42 39 82 -14 133 -14 c 256
EndSplineSet
Fore
SplineSet
127 -14 m 256
 165 -14 256 57 304 133 c 257
 295 129 l 257
 280 63 296 -14 347 -14 c 256
 394 -14 446 17 500 80 c 256
 577 171 614 261 614 349 c 256
 614 395 599 420 585 420 c 256
 564 420 522 386 522 365 c 256
 522 356 533 344 542 329 c 256
 549 317 555 304 555 288 c 256
 555 179 458 41 384 41 c 256
 351 41 344 82 354 143 c 256
 356 157 365 191 375 214 c 256
 386 239 398 275 416 322 c 256
 426 348 430 397 416 397 c 256
 389 397 375 386 359 376 c 256
 348 369 340 353 336 335 c 256
 330 310 310 213 304 186 c 256
 298 157 213 43 162 43 c 256
 129 43 117 74 133 120 c 258
 224 381 l 258
 232 404 216 418 205 418 c 256
 176 418 113 380 62 319 c 256
 50 304 50 298 50 293 c 256
 50 289 55 286 59 286 c 256
 61 286 69 288 75 295 c 256
 96 319 126 332 133 332 c 256
 144 332 147 322 140 304 c 258
 80 141 l 258
 43 40 76 -14 127 -14 c 256
EndSplineSet
PickledDataWithLists: "(dp0
Vcom.schriftgestaltung.Glyphs.glyph.leftMetricsKey
p1
Vv
p2
sVcom.schriftgestaltung.Glyphs.glyph.rightMetricsKey
p3
g2
sVpublic.markColor
p4
V0.67,0.95,0.38,1
p5
s."
Substitution2: "'ss01' Style Set 1 in Latin lookup 31 subtable" W.pc
Substitution2: "'init' Initial Forms in Latin lookup 25 subtable" w.init
Substitution2: "'pcap' Lowercase to Petite Capitals in Latin lookup 23 subtable" w.pc
Substitution2: "'smcp' Lowercase to Small Capitals in Latin lookup 21 subtable" w.sc
Substitution2: "'sups' Superscript in Latin lookup 10 subtable" w.sups
Substitution2: "'sinf' Scientific Inferiors in Latin lookup 9 subtable" w.sinf
Substitution2: "'subs' Subscript in Latin lookup 8 subtable" w.subs
Comment: "+AAoA-w+AAoA"
EndChar
StartChar: x
Encoding: 3005 120 3004
GlifName: x
Width: 438
VWidth: 0
Flags: W
AnchorPoint: "top" 280 440 basechar 0
LayerCount: 2
Back
SplineSet
24 -14 m 256
 48 -14 70 -6 98 27 c 256
 131 66 163 104 196 143 c 256
 204 153 208 153 212 137 c 256
 219 109 226 81 233 53 c 256
 244 13 264 -14 294 -14 c 256
 352 -14 404 58 404 108 c 256
 404 128 399 130 394 130 c 256
 389 130 382 126 378 116 c 256
 359 67 343 49 319 49 c 256
 312 49 295 55 286 90 c 258
 259 189 l 258
 254 206 253 216 260 224 c 256
 285 257 310 290 335 323 c 256
 353 342 370 356 382 356 c 256
 391 356 397 351 404 333 c 257
 411 318 414 316 422 316 c 256
 448 316 464 359 463 371 c 256
 462 387 438 414 412 414 c 256
 376 414 343 383 322 355 c 258
 254 264 l 258
 247 255 241 252 238 262 c 258
 209 374 l 258
 204 393 192 414 169 414 c 256
 117 414 61 343 61 310 c 256
 61 300 63 293 68 293 c 256
 77 293 88 304 91 308 c 256
 118 342 132 345 142 345 c 256
 150 345 158 342 162 327 c 258
 196 198 l 257
 197 193 198 190 196 188 c 257
 158 137 129 103 91 60 c 256
 81 48 70 46 63 46 c 256
 60 46 46 53 42 65 c 256
 37 79 35 85 26 85 c 256
 9 85 -10 51 -10 28 c 256
 -10 2 4 -14 24 -14 c 256
EndSplineSet
Fore
SplineSet
24 -14 m 256
 48 -14 70 -6 98 27 c 256
 131 66 163 110 195 150 c 256
 203 160 207 160 211 144 c 256
 218 116 226 81 233 53 c 256
 245 9 259 -14 296 -14 c 256
 354 -14 400 81 400 118 c 256
 400 138 396 140 391 140 c 256
 386 140 382 136 378 126 c 256
 358 77 331 46 312 46 c 256
 305 46 296 52 291 70 c 258
 257 193 l 258
 252 210 254 220 259 228 c 256
 284 266 306 292 325 314 c 256
 348 342 366 356 382 356 c 256
 391 356 397 351 404 333 c 256
 408 323 414 316 422 316 c 256
 439 316 464 356 463 371 c 256
 462 387 438 414 412 414 c 256
 376 414 342 383 322 355 c 258
 252 255 l 258
 245 246 240 247 238 257 c 258
 213 363 l 258
 204 398 192 414 171 414 c 256
 127 414 64 339 64 300 c 256
 64 290 66 283 71 283 c 256
 80 283 85 295 88 299 c 256
 113 335 134 351 144 351 c 256
 152 351 155 349 159 334 c 258
 197 194 l 258
 199 188 199 181 194 176 c 256
 152 128 130 99 90 58 c 256
 82 50 72 45 63 46 c 256
 55 46 48 53 44 69 c 256
 42 78 38 87 28 87 c 256
 11 87 -17 47 -17 24 c 256
 -17 -2 4 -14 24 -14 c 256
EndSplineSet
PickledDataWithLists: "(dp0
Vpublic.markColor
p1
V0.67,0.95,0.38,1
p2
s."
Substitution2: "'ss01' Style Set 1 in Latin lookup 31 subtable" X.pc
Substitution2: "'pcap' Lowercase to Petite Capitals in Latin lookup 23 subtable" x.pc
Substitution2: "'smcp' Lowercase to Small Capitals in Latin lookup 21 subtable" x.sc
Substitution2: "'sups' Superscript in Latin lookup 10 subtable" x.sups
Substitution2: "'sinf' Scientific Inferiors in Latin lookup 9 subtable" x.sinf
Substitution2: "'subs' Subscript in Latin lookup 8 subtable" x.subs
Comment: "+AAoA-x+AAoA"
EndChar
StartChar: y
Encoding: 3013 121 3012
GlifName: y
Width: 405
VWidth: 0
Flags: W
AnchorPoint: "top" 239 440 basechar 0
LayerCount: 2
Back
SplineSet
-54 -287 m 256
 1 -287 78 -217 148 -130 c 256
 296 53 396 256 396 380 c 256
 396 404 371 423 363 423 c 256
 357 423 344 410 344 404 c 256
 344 271 302 159 258 75 c 256
 249 58 242 54 243 78 c 256
 249 211 230 290 212 348 c 256
 199 391 177 414 145 414 c 256
 100 414 42 350 42 289 c 256
 42 274 46 261 51 261 c 256
 59 261 68 283 70 290 c 256
 77 314 106 355 126 355 c 256
 146 355 184 301 184 154 c 256
 184 63 176 -12 146 -74 c 256
 102 -163 48 -227 1 -227 c 256
 -11 -227 -20 -220 -29 -212 c 256
 -38 -204 -47 -195 -60 -195 c 256
 -79 -195 -99 -218 -99 -245 c 256
 -99 -273 -74 -287 -54 -287 c 256
EndSplineSet
Fore
SplineSet
-54 -290 m 256
 1 -290 78 -217 148 -130 c 256
 296 53 396 256 396 380 c 256
 396 404 371 423 363 423 c 256
 357 423 344 410 344 404 c 256
 344 271 302 159 258 75 c 256
 249 58 242 54 243 78 c 256
 249 211 230 290 212 348 c 256
 199 391 177 414 145 414 c 256
 100 414 42 350 42 289 c 256
 42 274 46 261 51 261 c 256
 59 261 68 283 70 290 c 256
 77 314 106 355 126 355 c 256
 146 355 184 301 184 154 c 256
 184 63 176 -12 146 -74 c 256
 102 -163 48 -230 1 -230 c 256
 -11 -230 -20 -223 -29 -215 c 256
 -38 -207 -47 -198 -60 -198 c 256
 -79 -198 -99 -221 -99 -248 c 256
 -99 -276 -74 -290 -54 -290 c 256
EndSplineSet
PickledDataWithLists: "(dp0
Vpublic.markColor
p1
V0.67,0.95,0.38,1
p2
s."
Substitution2: "'ss01' Style Set 1 in Latin lookup 31 subtable" Y.pc
Substitution2: "'pcap' Lowercase to Petite Capitals in Latin lookup 23 subtable" y.pc
Substitution2: "'smcp' Lowercase to Small Capitals in Latin lookup 21 subtable" y.sc
Substitution2: "'sups' Superscript in Latin lookup 10 subtable" y.sups
Substitution2: "'sinf' Scientific Inferiors in Latin lookup 9 subtable" y.sinf
Substitution2: "'subs' Subscript in Latin lookup 8 subtable" y.subs
Comment: "+AAoA-y+AAoA"
EndChar
StartChar: z
Encoding: 3030 122 3029
GlifName: z
Width: 407
VWidth: 0
Flags: W
AnchorPoint: "bottom" 165 -30 basechar 0
AnchorPoint: "top" 257 440 basechar 0
LayerCount: 2
Back
SplineSet
229 -34 m 256
 265 -34 360 36 360 92 c 256
 360 124 341 143 327 143 c 256
 315 143 312 138 312 114 c 256
 312 69 308 18 263 18 c 256
 240 18 219 37 196 56 c 256
 171 77 146 98 116 98 c 256
 100 98 91 96 75 82 c 257
 90 75 l 257
 378 366 l 258
 397 385 410 406 410 416 c 256
 410 422 405 428 401 428 c 256
 391 428 378 417 371 410 c 256
 356 395 346 389 326 389 c 256
 310 389 286 398 261 407 c 256
 237 416 211 424 187 424 c 256
 165 424 115 400 92 378 c 256
 60 348 42 326 42 290 c 256
 42 268 56 256 63 256 c 256
 69 256 95 268 104 278 c 257
 109 284 109 288 104 296 c 256
 96 308 94 322 94 332 c 256
 93 352 118 376 142 376 c 256
 177 376 208 362 235 350 c 256
 259 339 280 329 300 329 c 256
 317 329 325 337 339 356 c 257
 316 348 l 257
 25 59 l 258
 6 41 0 20 1 6 c 256
 2 -7 11 -20 15 -20 c 256
 20 -20 30 -19 30 -6 c 256
 30 25 53 52 93 52 c 256
 106 52 123 35 143 16 c 256
 168 -8 196 -34 229 -34 c 256
EndSplineSet
Fore
SplineSet
229 -34 m 256
 265 -34 360 36 360 92 c 256
 360 124 341 143 327 143 c 256
 315 143 312 138 312 114 c 256
 312 69 308 18 263 18 c 256
 240 18 219 37 196 56 c 256
 171 77 146 98 116 98 c 256
 100 98 91 96 75 82 c 257
 90 75 l 257
 375 356 l 258
 394 375 407 396 407 406 c 256
 407 412 402 418 398 418 c 256
 388 418 375 407 368 400 c 256
 353 385 343 379 323 379 c 256
 306 379 284 389 260 398 c 256
 238 406 216 414 194 414 c 256
 172 414 122 390 99 368 c 256
 67 338 49 316 49 280 c 256
 49 258 63 246 70 246 c 256
 76 246 102 258 111 268 c 257
 116 274 116 278 111 286 c 256
 103 298 101 312 101 322 c 256
 101 342 125 366 149 366 c 256
 181 366 208 353 234 340 c 256
 256 329 277 319 297 319 c 256
 314 319 322 327 336 346 c 257
 313 338 l 257
 25 59 l 258
 6 41 0 20 1 6 c 256
 2 -7 11 -20 15 -20 c 256
 20 -20 30 -19 30 -6 c 256
 30 25 53 52 93 52 c 256
 106 52 123 35 143 16 c 256
 168 -8 196 -34 229 -34 c 256
EndSplineSet
PickledDataWithLists: "(dp0
Vpublic.markColor
p1
V0.67,0.95,0.38,1
p2
s."
Substitution2: "'ss01' Style Set 1 in Latin lookup 31 subtable" Z.pc
Substitution2: "'pcap' Lowercase to Petite Capitals in Latin lookup 23 subtable" z.pc
Substitution2: "'smcp' Lowercase to Small Capitals in Latin lookup 21 subtable" z.sc
Substitution2: "'sups' Superscript in Latin lookup 10 subtable" z.sups
Substitution2: "'sinf' Scientific Inferiors in Latin lookup 9 subtable" z.sinf
Substitution2: "'subs' Subscript in Latin lookup 8 subtable" z.subs
Comment: "+AAoA-z+AAoA"
EndChar
StartChar: braceleft
Encoding: 610 123 609
GlifName: braceleft
Width: 352
VWidth: 0
Flags: W
LayerCount: 2
Back
SplineSet
191 -154 m 256
 199 -154 209 -148 212 -139 c 257
 215 -128 202 -127 192 -127 c 256
 132 -127 81 -99 103 -26 c 256
 124 42 150 89 168 147 c 256
 188 213 137 270 109 279 c 257
 107 280 105 281 109 283 c 257
 153 300 229 348 249 414 c 256
 267 472 269 519 290 587 c 256
 312 660 381 688 441 688 c 256
 451 688 466 689 469 700 c 257
 472 709 465 715 457 715 c 256
 369 715 257 676 228 582 c 256
 207 512 205 466 186 404 c 256
 168 346 118 308 62 288 c 257
 57 286 52 288 50 282 c 256
 48 276 53 275 57 273 c 257
 101 253 128 215 110 157 c 256
 91 95 65 49 44 -21 c 256
 15 -115 103 -154 191 -154 c 256
EndSplineSet
Fore
SplineSet
191 -154 m 256
 199 -154 209 -148 212 -139 c 257
 215 -128 202 -127 192 -127 c 256
 133 -127 96 -98 118 -26 c 256
 139 42 165 89 183 147 c 256
 203 215 169 264 109 279 c 257
 107 280 105 281 109 283 c 257
 186 300 244 348 264 414 c 256
 282 472 284 519 305 587 c 256
 327 660 381 688 441 688 c 256
 451 688 466 689 469 700 c 257
 472 709 465 715 457 715 c 256
 369 715 257 676 228 582 c 256
 207 512 205 466 186 404 c 256
 168 346 118 308 62 288 c 257
 57 286 52 288 50 282 c 256
 48 276 53 275 57 273 c 257
 101 253 128 215 110 157 c 256
 91 95 65 49 44 -21 c 256
 15 -115 103 -154 191 -154 c 256
EndSplineSet
Substitution2: "'smcp' Lowercase to Small Capitals in Latin lookup 21 subtable" braceleft.sc
Substitution2: "'c2sc' Capitals to Small Capitals in Latin lookup 20 subtable" braceleft.sc
Substitution2: "'sups' Superscript in Latin lookup 10 subtable" braceleft.sups
Substitution2: "'sinf' Scientific Inferiors in Latin lookup 9 subtable" braceleft.sinf
Substitution2: "'subs' Subscript in Latin lookup 8 subtable" braceleft.subs
Comment: "+AAoA-braceleft+AAoA"
EndChar
StartChar: asciitilde
Encoding: 567 126 566
GlifName: asciitilde
Width: 500
VWidth: 0
Flags: W
LayerCount: 2
Fore
SplineSet
102 258 m 257
 118 276 172 308 195 308 c 256
 223 308 254 295 284 283 c 256
 312 272 339 260 362 260 c 256
 411 260 473 335 487 362 c 257
 490 367 482 382 477 382 c 256
 468 382 457 371 441 359 c 256
 424 346 402 333 374 333 c 256
 345 333 319 342 295 353 c 256
 265 367 238 381 212 381 c 256
 167 381 107 316 87 276 c 256
 84 270 97 253 102 258 c 257
EndSplineSet
PickledDataWithLists: "(dp0
Vpublic.markColor
p1
V0.67,0.95,0.38,1
p2
s."
Substitution2: "'smcp' Lowercase to Small Capitals in Latin lookup 21 subtable" asciitilde.sc
Substitution2: "'c2sc' Capitals to Small Capitals in Latin lookup 20 subtable" asciitilde.sc
Substitution2: "'sups' Superscript in Latin lookup 10 subtable" asciitilde.sups
Substitution2: "'sinf' Scientific Inferiors in Latin lookup 9 subtable" asciitilde.sinf
Substitution2: "'subs' Subscript in Latin lookup 8 subtable" asciitilde.subs
Comment: "+AAoA-asciitilde+AAoA"
EndChar
StartChar: cent
Encoding: 669 162 668
GlifName: cent
Width: 395
VWidth: 0
Flags: W
LayerCount: 2
Back
SplineSet
121 -64 m 256
 129 -67 140 -63 143 -55 c 258
 163 -7 l 257
 232 -27 287 -15 341 33 c 257
 342 34 342 36 343 37 c 256
 347 41 340 50 334 52 c 256
 330 53 326 52 324 50 c 256
 292 18 240 27 201 43 c 256
 196 45 192 45 187 48 c 257
 317 356 l 257
 341 342 351 320 357 292 c 257
 358 285 365 279 374 276 c 256
 387 272 416 285 419 298 c 256
 420 302 421 306 419 311 c 257
 403 350 367 374 331 388 c 257
 350 433 l 258
 353 440 350 451 342 453 c 256
 332 456 320 454 316 443 c 258
 297 397 l 257
 180 421 70 350 37 242 c 256
 8 147 54 44 131 4 c 257
 110 -45 l 258
 106 -53 112 -61 121 -64 c 256
156 65 m 257
 107 103 86 172 111 255 c 256
 133 327 212 408 284 372 c 258
 286 371 l 257
 156 65 l 257
EndSplineSet
Fore
SplineSet
117 -80 m 256
 126 -80 140 -74 144 -65 c 258
 165 -14 l 257
 238 -12 295 15 351 77 c 256
 358 85 352 93 344 93 c 256
 340 93 336 91 333 88 c 256
 296 51 247 45 205 45 c 256
 200 45 195 45 190 46 c 257
 327 379 l 257
 351 372 362 354 368 329 c 257
 369 323 377 319 386 319 c 256
 400 319 431 339 434 353 c 256
 441 383 386 411 341 413 c 257
 361 462 l 258
 364 470 362 479 354 479 c 256
 343 479 328 473 324 462 c 258
 304 412 l 257
 136 412 22 253 22 128 c 256
 22 62 60 11 129 -12 c 257
 106 -65 l 258
 102 -74 108 -80 117 -80 c 256
155 53 m 257
 115 69 98 107 98 153 c 256
 98 266 189 384 292 384 c 257
 155 53 l 257
EndSplineSet
Substitution2: "'smcp' Lowercase to Small Capitals in Latin lookup 21 subtable" cent.sc
Substitution2: "'c2sc' Capitals to Small Capitals in Latin lookup 20 subtable" cent.sc
Comment: "+AAoA-cent+AAoA"
EndChar
StartChar: sterling
Encoding: 1375 163 1374
GlifName: sterling
Width: 499
VWidth: 0
Flags: W
LayerCount: 2
Back
SplineSet
84 293 m 258
 378 313 l 258
 393 314 416 332 417 339 c 256
 418 344 415 351 408 351 c 258
 106 331 l 258
 92 330 76 314 74 305 c 256
 73 299 77 293 84 293 c 258
261 -36 m 256
 342 -36 433 28 458 105 c 256
 467 133 455 155 427 158 c 256
 418 159 415 147 412 138 c 257
 407 118 415 106 409 87 c 256
 400 57 365 32 333 32 c 256
 239 32 235 93 116 93 c 256
 109 93 111 100 115 102 c 257
 150 126 241 241 271 337 c 256
 323 502 394 600 460 600 c 256
 494 600 514 560 506 527 c 256
 504 519 500 511 499 505 c 256
 497 496 496 491 506 491 c 256
 519 491 557 520 566 547 c 256
 585 603 557 629 487 629 c 256
 342 629 225 474 184 341 c 256
 155 248 108 141 77 103 c 256
 72 97 69 92 62 91 c 256
 8 83 -50 37 -57 17 c 256
 -63 0 -53 -14 -36 -14 c 256
 -22 -14 -7 -9 6 6 c 256
 28 32 59 55 65 55 c 256
 75 55 103 42 120 26 c 256
 162 -14 194 -36 261 -36 c 256
EndSplineSet
Fore
SplineSet
89 293 m 257
 377 313 l 257
 392 313 401 324 408 337 c 257
 411 344 402 351 395 351 c 257
 99 331 l 257
 86 330 75 314 75 305 c 256
 75 299 82 293 89 293 c 257
EndSplineSet
Refer: 239 -1 N 1 0 0 1 0 0 2
PickledDataWithLists: "(dp0
Vcom.schriftgestaltung.Glyphs.glyph.leftMetricsKey
p1
VL.script
p2
sVcom.schriftgestaltung.Glyphs.glyph.rightMetricsKey
p3
VL.script
p4
s."
Substitution2: "'smcp' Lowercase to Small Capitals in Latin lookup 21 subtable" sterling.sc
Substitution2: "'c2sc' Capitals to Small Capitals in Latin lookup 20 subtable" sterling.sc
Comment: "+AAoA-sterling+AAoA"
EndChar
StartChar: currency
Encoding: 693 164 692
GlifName: currency
Width: 488
VWidth: 0
Flags: W
LayerCount: 2
Back
SplineSet
-473 67 m 256
 -470 67 -467 68 -465 70 c 258
 -418 116 l 257
 -386 90 -345 75 -300 75 c 256
 -255 75 -214 90 -182 116 c 257
 -136 70 l 258
 -134 68 -131 67 -128 67 c 256
 -115 67 -97 85 -97 98 c 256
 -97 101 -98 103 -100 105 c 258
 -147 152 l 257
 -122 185 -108 226 -108 270 c 256
 -108 314 -122 355 -147 388 c 257
 -102 433 l 258
 -99 436 -98 439 -98 443 c 256
 -98 457 -116 473 -128 473 c 256
 -131 473 -134 472 -136 470 c 258
 -182 424 l 257
 -214 450 -255 465 -300 465 c 256
 -345 465 -386 449 -419 424 c 257
 -464 469 l 258
 -466 471 -469 472 -472 472 c 256
 -485 472 -503 454 -503 441 c 256
 -503 438 -502 436 -500 434 c 258
 -453 387 l 257
 -478 355 -492 314 -492 270 c 256
 -492 226 -478 185 -453 152 c 257
 -500 105 l 258
 -502 103 -503 100 -503 97 c 256
 -503 84 -486 67 -473 67 c 256
-300 125 m 256
 -379 125 -442 191 -442 270 c 256
 -442 349 -379 415 -300 415 c 256
 -221 415 -158 349 -158 270 c 256
 -158 191 -221 125 -300 125 c 256
205 76 m 256
 311 76 422 164 455 270 c 256
 488 376 431 464 325 464 c 256
 219 464 108 376 75 270 c 256
 42 164 99 76 205 76 c 256
29 67 m 256
 32 67 35 68 38 70 c 258
 122 133 l 257
 98 169 l 257
 14 105 l 258
 11 103 9 100 9 97 c 256
 9 83 16 67 29 67 c 256
155 377 m 257
 201 414 l 257
 163 469 l 258
 161 471 159 472 156 472 c 256
 143 472 119 454 115 441 c 256
 114 438 114 436 116 434 c 258
 155 377 l 257
220 125 m 256
 141 125 99 191 123 270 c 256
 147 349 231 415 310 415 c 256
 389 415 431 349 407 270 c 256
 383 191 299 125 220 125 c 256
374 67 m 256
 387 67 411 85 415 98 c 256
 416 101 415 103 414 105 c 258
 369 171 l 257
 322 135 l 257
 367 70 l 258
 368 68 371 67 374 67 c 256
435 373 m 257
 514 433 l 258
 517 436 519 439 521 443 c 256
 528 456 512 473 500 473 c 256
 497 473 494 472 491 470 c 258
 411 409 l 257
 435 373 l 257
EndSplineSet
Fore
SplineSet
209 76 m 256
 371 76 465 206 465 316 c 256
 465 390 420 459 323 459 c 256
 160 459 67 329 67 219 c 256
 67 145 112 76 209 76 c 256
33 66 m 256
 36 66 39 65 42 67 c 258
 111 119 l 257
 81 159 l 257
 13 108 l 258
 10 106 8 103 7 99 c 256
 4 85 22 66 33 66 c 256
380 68 m 256
 392 65 415 81 415 94 c 256
 415 97 415 99 413 101 c 258
 366 166 l 257
 327 135 l 257
 372 72 l 258
 374 70 376 69 380 68 c 256
224 126 m 256
 152 126 119 177 119 232 c 256
 119 313 188 409 308 409 c 256
 380 409 413 358 413 303 c 256
 413 222 344 126 224 126 c 256
165 373 m 257
 204 404 l 257
 159 467 l 258
 157 469 155 470 151 471 c 256
 139 474 116 458 116 445 c 256
 116 442 116 440 118 438 c 258
 165 373 l 257
450 380 m 257
 518 431 l 258
 521 433 523 436 524 440 c 256
 527 454 509 473 498 473 c 256
 495 473 492 474 489 472 c 258
 420 420 l 257
 450 380 l 257
EndSplineSet
Substitution2: "'smcp' Lowercase to Small Capitals in Latin lookup 21 subtable" currency.sc
Substitution2: "'c2sc' Capitals to Small Capitals in Latin lookup 20 subtable" currency.sc
Comment: "+AAoA-currency+AAoA"
EndChar
StartChar: yen
Encoding: 3026 165 3025
GlifName: yen
Width: 560
VWidth: 0
Flags: W
LayerCount: 2
Back
SplineSet
117 -5 m 256
 167 -5 190 0 237 0 c 256
 279 0 295 -5 345 -5 c 256
 361 -5 375 -2 375 6 c 256
 375 15 370 20 350 24 c 256
 306 33 288 63 302 108 c 258
 347 256 l 258
 359 294 368 320 398 352 c 256
 435 392 514 482 564 534 c 256
 593 565 652 611 691 623 c 256
 710 629 725 633 725 642 c 256
 725 650 716 653 700 653 c 256
 679 653 640 650 602 650 c 256
 572 650 552 651 524 651 c 256
 508 651 494 648 494 640 c 256
 494 631 505 623 518 620 c 256
 556 610 561 592 517 537 c 256
 472 481 445 444 401 395 c 256
 384 376 372 363 365 363 c 256
 358 363 353 375 346 401 c 258
 304 560 l 258
 292 607 299 615 337 621 c 256
 361 625 374 632 374 641 c 256
 374 649 367 652 351 652 c 256
 331 652 305 650 276 650 c 256
 232 650 196 653 168 653 c 256
 152 653 133 650 133 642 c 256
 133 633 142 622 161 620 c 256
 192 617 210 593 222 548 c 258
 278 342 l 258
 286 314 288 295 279 268 c 258
 228 108 l 258
 213 60 178 33 129 24 c 256
 106 20 93 15 93 6 c 256
 93 -2 101 -5 117 -5 c 256
EndSplineSet
Fore
SplineSet
118 -5 m 256
 168 -5 193 0 239 0 c 256
 282 0 296 -5 346 -5 c 256
 362 -5 374 -2 376 6 c 257
 379 15 371 20 351 24 c 256
 307 33 290 63 304 108 c 258
 332 197 l 257
 432 197 l 258
 446 197 457 205 467 218 c 257
 472 225 467 232 460 232 c 258
 342 232 l 257
 357 280 l 257
 458 280 l 258
 472 280 484 288 494 301 c 257
 499 308 493 315 486 315 c 258
 372 315 l 257
 377 323 388 334 399 346 c 256
 430 381 491 453 558 526 c 256
 587 557 645 615 680 622 c 256
 703 627 714 633 717 642 c 257
 719 650 709 653 693 653 c 256
 672 653 637 650 603 650 c 256
 576 650 556 651 528 651 c 256
 512 651 499 648 497 640 c 257
 494 631 510 624 522 620 c 256
 557 608 554 584 517 534 c 256
 482 488 430 426 403 395 c 256
 380 369 370 356 363 356 c 256
 356 356 354 369 347 395 c 258
 305 560 l 258
 295 600 323 616 339 621 c 256
 362 628 373 632 376 641 c 257
 378 649 368 652 352 652 c 256
 332 652 314 650 285 650 c 256
 242 650 197 653 169 653 c 256
 153 653 141 650 139 642 c 257
 136 633 145 624 163 620 c 256
 199 612 210 596 220 557 c 258
 280 330 l 257
 282 326 282 322 284 315 c 257
 185 315 l 258
 173 315 159 301 156 292 c 256
 154 286 158 280 165 280 c 258
 281 280 l 257
 280 273 278 265 275 256 c 257
 268 232 l 257
 160 232 l 258
 148 232 134 218 131 209 c 256
 129 203 133 197 140 197 c 258
 257 197 l 257
 229 108 l 258
 214 60 180 33 131 24 c 256
 108 20 98 15 95 6 c 257
 93 -2 102 -5 118 -5 c 256
EndSplineSet
PickledDataWithLists: "(dp0
Vcom.schriftgestaltung.Glyphs.glyph.leftMetricsKey
p1
VY
p2
sVcom.schriftgestaltung.Glyphs.glyph.rightMetricsKey
p3
g2
s."
Substitution2: "'smcp' Lowercase to Small Capitals in Latin lookup 21 subtable" yen.sc
Substitution2: "'c2sc' Capitals to Small Capitals in Latin lookup 20 subtable" yen.sc
Comment: "+AAoA-yen+AAoA"
EndChar
StartChar: brokenbar
Encoding: 635 166 634
GlifName: brokenbar
Width: 260
VWidth: 0
Flags: W
LayerCount: 2
Fore
SplineSet
113 -290 m 256
 122 -290 161 -287 161 -266 c 258
 161 157 l 258
 161 167 154 179 147 179 c 256
 141 179 101 166 101 156 c 258
 101 -276 l 258
 101 -283 107 -290 113 -290 c 256
113 276 m 256
 122 276 161 287 161 297 c 258
 161 692 l 258
 161 699 154 705 147 705 c 256
 141 705 101 696 101 674 c 258
 101 299 l 258
 101 289 107 276 113 276 c 256
EndSplineSet
PickledDataWithLists: "(dp0
Vpublic.markColor
p1
V0.67,0.95,0.38,1
p2
s."
Substitution2: "'smcp' Lowercase to Small Capitals in Latin lookup 21 subtable" brokenbar.sc
Substitution2: "'c2sc' Capitals to Small Capitals in Latin lookup 20 subtable" brokenbar.sc
Substitution2: "'sups' Superscript in Latin lookup 10 subtable" brokenbar.sups
Substitution2: "'sinf' Scientific Inferiors in Latin lookup 9 subtable" brokenbar.sinf
Substitution2: "'subs' Subscript in Latin lookup 8 subtable" brokenbar.subs
Comment: "+AAoA-brokenbar+AAoA"
EndChar
StartChar: section
Encoding: 1326 167 1325
GlifName: section
Width: 380
VWidth: 0
Flags: W
LayerCount: 2
Back
SplineSet
372 640 m 256
 306 640 236 571 204 513 c 257
 155 467 113 418 86 329 c 256
 68 270 81 212 119 149 c 256
 151 95 191 38 176 -12 c 256
 160 -64 134 -94 102 -94 c 256
 81 -94 56 -85 45 -70 c 256
 42 -66 35 -59 27 -64 c 256
 0 -81 -12 -107 -15 -116 c 256
 -21 -134 0 -148 33 -148 c 256
 50 -148 69 -146 86 -137 c 256
 131 -113 185 -70 235 -11 c 256
 285 49 312 86 334 159 c 256
 361 247 360 310 305 385 c 256
 266 438 243 496 254 533 c 256
 264 565 293 596 330 596 c 256
 347 596 364 580 377 562 c 256
 380 558 383 556 387 556 c 256
 406 556 436 599 437 603 c 256
 439 611 435 616 431 621 c 257
 424 631 395 640 372 640 c 256
259 305 m 256
 296 243 308 193 287 124 c 256
 279 97 269 78 254 51 c 257
 252 47 245 46 245 51 c 257
 244 97 203 161 177 204 c 256
 140 266 128 316 149 385 c 256
 157 412 167 431 182 458 c 257
 184 462 191 463 191 458 c 256
 192 412 233 348 259 305 c 256
EndSplineSet
Fore
SplineSet
33 -148 m 256
 102 -148 178 -78 235 -11 c 256
 301 68 351 156 351 257 c 256
 351 300 338 341 305 385 c 256
 273 429 251 476 251 512 c 256
 251 554 289 596 330 596 c 256
 343 596 353 588 362 579 c 256
 372 568 380 556 387 556 c 256
 402 556 438 596 438 607 c 256
 438 625 406 640 372 640 c 256
 306 640 236 571 204 513 c 257
 135 448 77 354 77 269 c 256
 77 230 94 190 119 149 c 256
 146 103 180 54 179 10 c 256
 178 -30 145 -94 102 -94 c 256
 87 -94 71 -92 61 -84 c 256
 49 -75 40 -63 33 -62 c 256
 19 -62 -16 -99 -16 -124 c 256
 -16 -138 5 -148 33 -148 c 256
245 51 m 257
 244 97 203 161 177 204 c 256
 152 246 138 282 139 323 c 256
 139 370 156 412 182 458 c 257
 184 462 191 463 191 458 c 256
 192 412 233 348 259 305 c 256
 296 243 308 193 287 124 c 256
 279 97 269 78 254 51 c 257
 252 47 245 46 245 51 c 257
EndSplineSet
PickledDataWithLists: "(dp0
Vpublic.markColor
p1
V0.67,0.95,0.38,1
p2
s."
Substitution2: "'smcp' Lowercase to Small Capitals in Latin lookup 21 subtable" section.sc
Substitution2: "'c2sc' Capitals to Small Capitals in Latin lookup 20 subtable" section.sc
Substitution2: "'sups' Superscript in Latin lookup 10 subtable" section.sups
Substitution2: "'sinf' Scientific Inferiors in Latin lookup 9 subtable" section.sinf
Substitution2: "'subs' Subscript in Latin lookup 8 subtable" section.subs
Comment: "+AAoA-section+AAoA"
EndChar
StartChar: copyright
Encoding: 691 169 690
GlifName: copyright
Width: 665
VWidth: 0
Flags: W
LayerCount: 2
Fore
SplineSet
371 24 m 256
 538 24 675 160 675 327 c 256
 675 494 539 630 372 630 c 256
 205 630 69 494 69 327 c 256
 69 160 204 24 371 24 c 256
385 154 m 256
 420 154 456 157 478 167 c 256
 492 173 487 172 495 184 c 256
 503 196 510 217 510 227 c 256
 510 236 509 240 505 240 c 256
 501 240 493 235 488 225 c 256
 472 193 439 184 402 184 c 256
 324 184 284 258 284 331 c 256
 284 404 329 464 397 464 c 256
 420 464 439 458 454 448 c 256
 468 439 477 427 482 413 c 256
 485 405 488 398 494 398 c 257
 499 397 504 405 504 409 c 257
 505 422 506 452 502 468 c 256
 499 479 496 478 486 481 c 256
 463 488 430 494 406 494 c 256
 307 494 214 427 214 328 c 256
 214 239 290 154 385 154 c 256
371 58 m 256
 225 58 109 181 109 327 c 256
 109 472 227 590 372 590 c 256
 517 590 635 472 635 327 c 256
 635 180 518 58 371 58 c 256
EndSplineSet
PickledDataWithLists: "(dp0
Vpublic.markColor
p1
V0.67,0.95,0.38,1
p2
s."
Substitution2: "'smcp' Lowercase to Small Capitals in Latin lookup 21 subtable" copyright.sc
Substitution2: "'c2sc' Capitals to Small Capitals in Latin lookup 20 subtable" copyright.sc
Comment: "+AAoA-copyright+AAoA"
EndChar
StartChar: ordfeminine
Encoding: 1178 170 1177
GlifName: ordfeminine
Width: 293
VWidth: 0
Flags: W
LayerCount: 2
Fore
SplineSet
44 161 m 258
 216 161 l 258
 229 161 250 171 250 182 c 256
 250 191 249 196 243 196 c 258
 63 196 l 258
 52 196 35 181 35 172 c 256
 35 166 38 161 44 161 c 258
EndSplineSet
Refer: 497 -1 N 1 0 0 1 -2 -7 2
PickledDataWithLists: "(dp0
Vcom.schriftgestaltung.Glyphs.glyph.leftMetricsKey
p1
Va.ordn
p2
sVcom.schriftgestaltung.Glyphs.glyph.rightMetricsKey
p3
Va.ordn
p4
sVpublic.markColor
p5
V0.67,0.95,0.38,1
p6
s."
Substitution2: "'smcp' Lowercase to Small Capitals in Latin lookup 21 subtable" ordfeminine.sc
Comment: "+AAoA-ordfeminine+AAoA"
EndChar
StartChar: registered
Encoding: 1299 174 1298
GlifName: registered
Width: 665
VWidth: 0
Flags: W
LayerCount: 2
Fore
SplineSet
371 24 m 256
 538 24 675 160 675 327 c 256
 675 494 539 630 372 630 c 256
 205 630 69 494 69 327 c 256
 69 160 204 24 371 24 c 256
371 58 m 256
 225 58 109 181 109 327 c 256
 109 472 227 590 372 590 c 256
 517 590 635 472 635 327 c 256
 635 180 518 58 371 58 c 256
509 173 m 256
 528 173 553 182 553 200 c 256
 553 208 541 204 537 204 c 256
 509 204 454 268 434 320 c 256
 431 327 425 334 434 337 c 256
 464 348 496 376 496 417 c 256
 496 470 444 498 392 496 c 256
 361 495 331 491 300 491 c 256
 283 491 265 495 248 496 c 256
 235 497 228 492 228 484 c 256
 228 476 233 472 247 468 c 256
 267 462 270 467 270 426 c 258
 270 231 l 258
 270 209 261 204 245 199 c 256
 236 196 226 191 226 183 c 256
 226 177 236 172 242 172 c 256
 274 172 275 176 303 176 c 256
 331 176 336 172 368 172 c 256
 374 172 384 177 384 183 c 256
 384 191 374 196 365 199 c 256
 349 204 331 209 331 231 c 257
 330 309 l 257
 330 316 338 320 346 320 c 256
 371 320 381 312 384 304 c 256
 401 260 457 173 509 173 c 256
357 347 m 256
 343 347 330 348 330 367 c 258
 330 437 l 258
 330 455 338 467 368 467 c 256
 403 467 432 445 432 413 c 256
 432 374 396 347 357 347 c 256
EndSplineSet
PickledDataWithLists: "(dp0
Vpublic.markColor
p1
V0.67,0.95,0.38,1
p2
s."
Substitution2: "'smcp' Lowercase to Small Capitals in Latin lookup 21 subtable" registered.sc
Substitution2: "'c2sc' Capitals to Small Capitals in Latin lookup 20 subtable" registered.sc
Substitution2: "'sups' Superscript in Latin lookup 10 subtable" registered.sups
Comment: "+AAoA-registered+AAoA"
EndChar
StartChar: degree
Encoding: 716 176 715
GlifName: degree
Width: 290
VWidth: 0
Flags: W
LayerCount: 2
Fore
SplineSet
246 402 m 256
 309 402 366 464 366 528 c 256
 366 592 309 645 246 645 c 256
 183 645 126 590 126 526 c 256
 126 462 183 402 246 402 c 256
246 444 m 256
 204 444 169 481 169 523 c 256
 169 567 204 602 246 602 c 256
 288 602 323 567 323 523 c 256
 323 481 288 444 246 444 c 256
EndSplineSet
PickledDataWithLists: "(dp0
Vpublic.markColor
p1
V0.67,0.95,0.38,1
p2
s."
Substitution2: "'smcp' Lowercase to Small Capitals in Latin lookup 21 subtable" degree.sc
Substitution2: "'c2sc' Capitals to Small Capitals in Latin lookup 20 subtable" degree.sc
Comment: "+AAoA-degree+AAoA"
EndChar
StartChar: mu
Encoding: 1089 181 1088
GlifName: mu
Width: 502
VWidth: 0
Flags: W
LayerCount: 2
Back
SplineSet
6 -285 m 256
 24 -285 80 -240 80 -219 c 256
 80 -212 70 -206 59 -193 c 256
 48 -178 34 -156 34 -116 c 256
 34 -79 53 10 63 39 c 256
 70 60 79 77 86 77 c 256
 93 77 96 68 99 60 c 256
 112 25 128 -14 167 -14 c 256
 217 -14 304 99 316 115 c 257
 318 115 l 257
 311 98 304 77 303 60 c 256
 301 18 316 -14 356 -14 c 256
 402 -14 459 34 488 106 c 256
 490 111 485 115 480 115 c 256
 472 115 425 62 388 62 c 256
 343 62 326 100 338 137 c 257
 378 190 459 333 471 370 c 256
 476 384 443 414 417 414 c 256
 409 414 401 413 396 402 c 256
 356 314 331 250 305 176 c 257
 233 81 189 52 163 52 c 256
 135 52 111 74 111 105 c 256
 111 116 111 132 119 150 c 257
 184 274 234 343 234 382 c 256
 234 394 203 414 170 414 c 256
 156 414 150 405 145 390 c 256
 126 332 69 125 59 92 c 256
 49 60 29 17 23 0 c 256
 0 -75 -34 -169 -34 -234 c 256
 -34 -265 -15 -285 6 -285 c 256
EndSplineSet
Fore
SplineSet
6 -285 m 256
 24 -285 80 -240 80 -219 c 256
 80 -212 70 -206 59 -193 c 256
 48 -178 34 -156 34 -116 c 256
 34 -79 53 10 63 39 c 256
 70 60 79 77 86 77 c 256
 93 77 96 68 99 60 c 256
 112 25 128 -14 167 -14 c 256
 217 -14 294 99 306 115 c 257
 308 115 l 257
 301 98 294 77 293 60 c 256
 291 18 306 -14 346 -14 c 256
 392 -14 449 34 478 106 c 256
 480 111 475 115 470 115 c 256
 462 115 415 62 378 62 c 256
 333 62 316 100 328 137 c 257
 368 190 448 333 461 370 c 256
 466 384 433 414 407 414 c 256
 399 414 391 413 386 402 c 256
 346 314 321 250 295 176 c 257
 223 81 189 52 163 52 c 256
 135 52 111 74 111 105 c 256
 111 116 111 132 119 150 c 257
 184 274 234 343 234 382 c 256
 234 394 203 414 170 414 c 256
 156 414 150 405 145 390 c 256
 126 332 69 125 59 92 c 256
 49 60 29 17 23 0 c 256
 0 -75 -34 -169 -34 -234 c 256
 -34 -265 -15 -285 6 -285 c 256
EndSplineSet
PickledDataWithLists: "(dp0
Vpublic.markColor
p1
V0.67,0.95,0.38,1
p2
s."
Comment: "+AAoA-mu+AAoA"
EndChar
StartChar: paragraph
Encoding: 1195 182 1194
GlifName: paragraph
Width: 589
VWidth: 0
Flags: W
LayerCount: 2
Back
SplineSet
502 584 m 258
 371 169 l 258
 368 160 363 156 358 156 c 256
 298 156 288 220 341 392 c 256
 399 582 441 593 487 593 c 256
 494 593 504 591 502 584 c 258
295 -120 m 258
 272 -190 199 -245 130 -245 c 256
 96 -245 52 -214 52 -160 c 256
 52 -148 63 -135 72 -135 c 256
 83 -135 97 -162 125 -162 c 256
 164 -162 194 -135 194 -101 c 256
 194 -71 161 -48 126 -48 c 256
 58 -48 4 -115 4 -189 c 256
 4 -241 59 -287 110 -287 c 256
 231 -287 315 -213 351 -98 c 258
 560 589 l 258
 564 602 573 607 582 607 c 256
 587 607 660 603 666 603 c 256
 676 603 691 620 691 634 c 256
 691 646 590 645 565 645 c 256
 350 645 165 603 112 402 c 256
 65 226 168 119 356 119 c 256
 366 119 363 104 360 94 c 258
 295 -120 l 258
EndSplineSet
Fore
SplineSet
142 -288 m 256
 231 -288 306 -245 351 -98 c 258
 560 589 l 258
 564 602 573 607 582 607 c 256
 587 607 665 603 671 603 c 256
 681 603 685 614 686 624 c 256
 687 633 684 641 675 642 c 256
 652 645 608 645 580 645 c 256
 319 645 101 578 101 322 c 256
 101 194 197 119 354 119 c 256
 363 119 365 111 362 100 c 258
 295 -120 l 258
 269 -206 208 -246 140 -246 c 256
 92 -246 45 -221 45 -162 c 256
 45 -146 54 -123 67 -123 c 256
 76 -123 86 -132 97 -140 c 256
 108 -149 121 -157 135 -157 c 256
 174 -157 194 -135 194 -101 c 256
 194 -71 169 -48 126 -48 c 256
 56 -48 4 -104 4 -177 c 256
 4 -245 62 -288 142 -288 c 256
358 156 m 256
 324 156 307 176 307 224 c 256
 307 261 318 316 341 392 c 256
 399 582 441 593 487 593 c 256
 493 593 502 591 502 586 c 256
 502 585 502 585 502 584 c 258
 371 169 l 258
 368 160 363 156 358 156 c 256
EndSplineSet
PickledDataWithLists: "(dp0
Vpublic.markColor
p1
V0.67,0.95,0.38,1
p2
s."
Substitution2: "'smcp' Lowercase to Small Capitals in Latin lookup 21 subtable" paragraph.sc
Substitution2: "'c2sc' Capitals to Small Capitals in Latin lookup 20 subtable" paragraph.sc
Substitution2: "'sups' Superscript in Latin lookup 10 subtable" paragraph.sups
Substitution2: "'sinf' Scientific Inferiors in Latin lookup 9 subtable" paragraph.sinf
Substitution2: "'subs' Subscript in Latin lookup 8 subtable" paragraph.subs
Comment: "+AAoA-paragraph+AAoA"
EndChar
StartChar: ordmasculine
Encoding: 1180 186 1179
GlifName: ordmasculine
Width: 307
VWidth: 0
Flags: W
LayerCount: 2
Fore
SplineSet
49 161 m 258
 236 161 l 258
 249 161 271 173 271 183 c 256
 271 192 268 196 262 196 c 258
 68 196 l 258
 57 196 41 182 41 173 c 256
 41 167 43 161 49 161 c 258
EndSplineSet
Refer: 1128 -1 N 1 0 0 1 -2 -7 2
PickledDataWithLists: "(dp0
Vcom.schriftgestaltung.Glyphs.glyph.leftMetricsKey
p1
Vo.ordn
p2
sVcom.schriftgestaltung.Glyphs.glyph.rightMetricsKey
p3
Vo.ordn
p4
sVpublic.markColor
p5
V0.67,0.95,0.38,1
p6
s."
Substitution2: "'smcp' Lowercase to Small Capitals in Latin lookup 21 subtable" ordmasculine.sc
Comment: "+AAoA-ordmasculine+AAoA"
EndChar
StartChar: onehalf
Encoding: 1172 189 1171
GlifName: onehalf
Width: 659
VWidth: 0
Flags: W
LayerCount: 2
Back
SplineSet
334 626 m 257
 321 620 273 586 224 581 c 256
 215 580 202 560 217 554 c 256
 231 548 261 534 253 507 c 258
 206 354 l 258
 193 313 168 310 142 308 c 256
 126 307 123 283 134 283 c 256
 184 283 182 288 212 288 c 256
 242 288 234 283 287 283 c 256
 302 283 309 306 294 308 c 256
 255 314 251 315 262 354 c 256
 269 378 276 403 285 433 c 256
 294 463 306 500 320 544 c 256
 330 576 339 600 345 614 c 257
 348 622 347 628 341 628 c 256
 339 628 337 627 334 626 c 257
690 638 m 258
 108 -11 l 257
 101 -18 111 -26 119 -26 c 256
 133 -26 146 -24 157 -11 c 258
 738 638 l 258
 744 645 738 655 731 655 c 256
 715 655 703 652 690 638 c 258
482 232 m 257
 517 262 534 270 567 270 c 256
 596 270 613 243 600 205 c 256
 580 142 469 64 449 48 c 258
 401 8 l 258
 392 1 391 -9 396 -8 c 257
 444 -6 466 -6 511 -6 c 256
 542 -6 541 -6 588 -9 c 257
 591 -10 597 -10 603 4 c 257
 618 35 633 59 656 95 c 256
 658 98 660 104 656 104 c 257
 651 105 643 101 640 96 c 257
 617 66 583 46 555 46 c 258
 508 46 l 257
 491 46 l 258
 487 46 477 48 482 52 c 257
 491 60 574 119 605 152 c 256
 628 177 650 197 660 231 c 256
 676 282 651 324 604 324 c 256
 539 324 475 257 469 237 c 256
 466 226 474 222 482 232 c 257
EndSplineSet
Fore
Refer: 1163 -1 N 1 0 0 1 0 0 2
Refer: 869 8260 N 1 0 0 1 315 0 2
Refer: 1426 -1 N 1 0 0 1 291 -294 2
PickledDataWithLists: "(dp0
Vcom.schriftgestaltung.Glyphs.glyph.leftMetricsKey
p1
Vone.ordn
p2
sVcom.schriftgestaltung.Glyphs.glyph.rightMetricsKey
p3
Vtwo.ordn
p4
sVpublic.markColor
p5
V0.67,0.95,0.38,1
p6
s."
Ligature2: "'frac' Diagonal Fractions in Latin lookup 11 subtable" one slash two
Comment: "+AAoA-onehalf+AAoA"
EndChar
StartChar: questiondown
Encoding: 1265 191 1264
GlifName: questiondown
Width: 316
VWidth: 0
Flags: W
LayerCount: 2
Back
SplineSet
138 -181 m 256
 154 -181 180 -164 186 -145 c 256
 194 -118 184 -89 164 -89 c 256
 146 -89 138 -93 120 -93 c 256
 57 -92 41 -44 61 22 c 256
 70 51 109 79 139 93 c 256
 210 126 254 151 262 187 c 256
 272 233 271 247 272 270 c 256
 273 286 268 299 261 299 c 256
 252 299 243 286 240 276 c 257
 229 244 225 231 193 213 c 256
 157 192 141 184 93 160 c 256
 71 149 38 114 23 65 c 256
 7 14 18 -75 53 -131 c 256
 74 -164 107 -181 138 -181 c 256
271 374 m 256
 302 374 335 401 345 434 c 256
 355 467 338 494 307 494 c 256
 276 494 243 467 233 434 c 256
 223 401 240 374 271 374 c 256
EndSplineSet
Fore
Refer: 1258 63 N -1 0 0 -1 342 483 2
PickledDataWithLists: "(dp0
Vcom.schriftgestaltung.Glyphs.glyph.leftMetricsKey
p1
V=|question
p2
sVcom.schriftgestaltung.Glyphs.glyph.rightMetricsKey
p3
V=|question
p4
sVpublic.markColor
p5
V0.67,0.95,0.38,1
p6
s."
Substitution2: "'smcp' Lowercase to Small Capitals in Latin lookup 21 subtable" questiondown.sc
Substitution2: "'c2sc' Capitals to Small Capitals in Latin lookup 20 subtable" questiondown.sc
Comment: "+AAoA-questiondown+AAoA"
EndChar
StartChar: Agrave
Encoding: 21 192 21
GlifName: A_grave
Width: 658
VWidth: 0
Flags: W
AnchorPoint: "bottom.cap" 256 -30 basechar 0
AnchorPoint: "top.cap" 598 675 basechar 0
LayerCount: 2
Back
SplineSet
776 697 m 256
 780 697 782 700 782 703 c 256
 782 707 780 713 777 718 c 256
 753 758 727 798 700 837 c 256
 693 847 684 850 673 850 c 256
 659 850 615 841 615 827 c 256
 615 820 619 816 628 808 c 256
 667 773 719 737 758 706 c 256
 767 699 773 697 776 697 c 256
389 310 m 258
 587 506 l 258
 612 531 626 539 631 539 c 256
 637 539 636 521 627 494 c 258
 569 324 l 258
 562 303 553 297 539 296 c 258
 405 288 l 258
 369 286 377 298 389 310 c 258
619 -5 m 256
 635 -5 651 -1 651 7 c 256
 651 16 645 24 625 28 c 256
 590 35 577 67 595 128 c 258
 750 644 l 258
 755 662 753 676 748 676 c 256
 743 676 716 644 699 636 c 256
 677 626 666 622 653 622 c 256
 645 622 628 592 599 564 c 258
 127 108 l 258
 83 65 34 42 -1 31 c 256
 -24 24 -38 18 -38 8 c 256
 -38 -1 -31 -5 -15 -5 c 256
 16 -5 57 1 98 1 c 256
 132 1 165 -1 182 -1 c 256
 198 -1 213 3 213 12 c 256
 213 22 209 27 188 30 c 256
 175 32 142 54 187 102 c 258
 303 226 l 258
 314 238 333 244 338 244 c 257
 519 253 l 257
 538 253 551 246 547 235 c 258
 506 112 l 258
 487 56 480 46 412 31 c 256
 394 27 375 21 375 12 c 256
 375 4 383 0 399 0 c 256
 421 0 455 1 491 1 c 256
 533 1 593 -5 619 -5 c 256
EndSplineSet
Fore
Refer: 1 65 N 1 0 0 1 0 0 2
Refer: 906 -1 N 1 0 0 1 381 0 2
PickledDataWithLists: "(dp0
Vpublic.markColor
p1
V0.67,0.95,0.38,1
p2
s."
Substitution2: "'c2sc' Capitals to Small Capitals in Latin lookup 20 subtable" Agrave.sc
Comment: "+AAoA-Agrave+AAoA"
EndChar
StartChar: Aacute
Encoding: 12 193 12
GlifName: A_acute
Width: 658
VWidth: 0
Flags: W
AnchorPoint: "bottom.cap" 256 -30 basechar 0
AnchorPoint: "top.cap" 598 675 basechar 0
LayerCount: 2
Back
SplineSet
711 697 m 256
 714 697 720 699 729 706 c 256
 768 737 820 773 859 808 c 256
 868 816 872 820 872 827 c 256
 872 841 828 850 814 850 c 256
 803 850 794 847 787 837 c 256
 760 798 734 758 710 718 c 256
 707 713 705 707 705 703 c 256
 705 700 707 697 711 697 c 256
388 310 m 258
 586 506 l 258
 611 531 625 539 630 539 c 256
 636 539 635 521 626 494 c 258
 568 324 l 258
 561 303 552 297 538 296 c 258
 404 288 l 258
 368 286 376 298 388 310 c 258
618 -5 m 256
 634 -5 650 -1 650 7 c 256
 650 16 644 24 624 28 c 256
 589 35 576 67 594 128 c 258
 749 644 l 258
 754 662 752 676 747 676 c 256
 742 676 715 644 698 636 c 256
 676 626 665 622 652 622 c 256
 644 622 627 592 598 564 c 258
 126 108 l 258
 82 65 33 42 -2 31 c 256
 -25 24 -39 18 -39 8 c 256
 -39 -1 -32 -5 -16 -5 c 256
 15 -5 56 1 97 1 c 256
 131 1 164 -1 181 -1 c 256
 197 -1 212 3 212 12 c 256
 212 22 208 27 187 30 c 256
 174 32 141 54 186 102 c 258
 302 226 l 258
 313 238 332 244 337 244 c 257
 518 253 l 257
 537 253 550 246 546 235 c 258
 505 112 l 258
 486 56 479 46 411 31 c 256
 393 27 374 21 374 12 c 256
 374 4 382 0 398 0 c 256
 420 0 454 1 490 1 c 256
 532 1 592 -5 618 -5 c 256
EndSplineSet
Fore
Refer: 1 65 N 1 0 0 1 0 0 2
Refer: 513 -1 N 1 0 0 1 469 0 2
PickledDataWithLists: "(dp0
Vpublic.markColor
p1
V0.67,0.95,0.38,1
p2
s."
Substitution2: "'c2sc' Capitals to Small Capitals in Latin lookup 20 subtable" Aacute.sc
Comment: "+AAoA-Aacute+AAoA"
EndChar
StartChar: Acircumflex
Encoding: 16 194 16
GlifName: A_circumflex
Width: 658
VWidth: 0
Flags: W
AnchorPoint: "bottom.cap" 256 -30 basechar 0
AnchorPoint: "top.cap" 751 823 basechar 0
LayerCount: 2
Back
SplineSet
596 689 m 256
 609 689 712 733 739 744 c 256
 749 748 759 751 767 744 c 256
 788 725 845 688 858 688 c 256
 867 688 872 693 872 699 c 256
 872 703 870 706 866 711 c 257
 794 793 l 258
 784 804 767 815 757 815 c 256
 747 815 737 809 712 793 c 258
 588 711 l 257
 583 707 581 703 581 699 c 256
 581 693 587 689 596 689 c 256
387 310 m 258
 585 506 l 258
 610 531 624 539 629 539 c 256
 635 539 634 521 625 494 c 258
 567 324 l 258
 560 303 551 297 537 296 c 258
 403 288 l 258
 367 286 375 298 387 310 c 258
617 -5 m 256
 633 -5 649 -1 649 7 c 256
 649 16 643 24 623 28 c 256
 588 35 575 67 593 128 c 258
 748 644 l 258
 753 662 751 676 746 676 c 256
 741 676 714 644 697 636 c 256
 675 626 664 622 651 622 c 256
 643 622 626 592 597 564 c 258
 125 108 l 258
 81 65 32 42 -3 31 c 256
 -26 24 -40 18 -40 8 c 256
 -40 -1 -33 -5 -17 -5 c 256
 14 -5 55 1 96 1 c 256
 130 1 163 -1 180 -1 c 256
 196 -1 211 3 211 12 c 256
 211 22 207 27 186 30 c 256
 173 32 140 54 185 102 c 258
 301 226 l 258
 312 238 331 244 336 244 c 257
 517 253 l 257
 536 253 549 246 545 235 c 258
 504 112 l 258
 485 56 478 46 410 31 c 256
 392 27 373 21 373 12 c 256
 373 4 381 0 397 0 c 256
 419 0 453 1 489 1 c 256
 531 1 591 -5 617 -5 c 256
EndSplineSet
Fore
Refer: 1 65 N 1 0 0 1 0 0 2
Refer: 1770 -1 N 1 0 0 1 452 0 2
PickledDataWithLists: "(dp0
Vpublic.markColor
p1
V0.67,0.95,0.38,1
p2
s."
Substitution2: "'c2sc' Capitals to Small Capitals in Latin lookup 20 subtable" Acircumflex.sc
Comment: "+AAoA-Acircumflex+AAoA"
EndChar
StartChar: Atilde
Encoding: 32 195 32
GlifName: A_tilde
Width: 658
VWidth: 0
Flags: W
AnchorPoint: "bottom.cap" 256 -30 basechar 0
AnchorPoint: "top.cap" 598 675 basechar 0
LayerCount: 2
Back
SplineSet
814 735 m 256
 851 735 897 783 897 813 c 256
 897 823 895 830 885 830 c 256
 873 830 858 792 823 792 c 256
 798 792 729 796 704 796 c 256
 667 796 614 750 614 717 c 256
 614 707 620 700 628 700 c 256
 638 700 657 739 691 739 c 256
 716 739 789 735 814 735 c 256
384 310 m 258
 582 506 l 258
 607 531 621 539 626 539 c 256
 632 539 631 521 622 494 c 258
 564 324 l 258
 557 303 548 297 534 296 c 258
 400 288 l 258
 364 286 372 298 384 310 c 258
614 -5 m 256
 630 -5 646 -1 646 7 c 256
 646 16 640 24 620 28 c 256
 585 35 572 67 590 128 c 258
 745 644 l 258
 750 662 748 676 743 676 c 256
 738 676 711 644 694 636 c 256
 672 626 661 622 648 622 c 256
 640 622 623 592 594 564 c 258
 122 108 l 258
 78 65 29 42 -6 31 c 256
 -29 24 -43 18 -43 8 c 256
 -43 -1 -36 -5 -20 -5 c 256
 11 -5 52 1 93 1 c 256
 127 1 160 -1 177 -1 c 256
 193 -1 208 3 208 12 c 256
 208 22 204 27 183 30 c 256
 170 32 137 54 182 102 c 258
 298 226 l 258
 309 238 328 244 333 244 c 257
 514 253 l 257
 533 253 546 246 542 235 c 258
 501 112 l 258
 482 56 475 46 407 31 c 256
 389 27 370 21 370 12 c 256
 370 4 378 0 394 0 c 256
 416 0 450 1 486 1 c 256
 528 1 588 -5 614 -5 c 256
EndSplineSet
Fore
Refer: 1 65 N 1 0 0 1 0 0 2
Refer: 1414 -1 N 1 0 0 1 442 0 2
PickledDataWithLists: "(dp0
Vpublic.markColor
p1
V0.67,0.95,0.38,1
p2
s."
Substitution2: "'c2sc' Capitals to Small Capitals in Latin lookup 20 subtable" Atilde.sc
Comment: "+AAoA-Atilde+AAoA"
EndChar
StartChar: Adieresis
Encoding: 18 196 18
GlifName: A_dieresis
Width: 658
VWidth: 0
Flags: W
AnchorPoint: "bottom.cap" 256 -30 basechar 0
AnchorPoint: "top.cap" 629 815 basechar 0
LayerCount: 2
Back
SplineSet
655 800 m 256
 622 800 597 772 597 739 c 256
 597 719 613 700 634 700 c 256
 664 700 691 727 691 757 c 256
 691 779 676 800 655 800 c 256
856 800 m 256
 823 800 798 772 798 739 c 256
 798 719 814 700 835 700 c 256
 865 700 892 727 892 757 c 256
 892 779 877 800 856 800 c 256
388 310 m 258
 586 506 l 258
 611 531 625 539 630 539 c 256
 636 539 635 521 626 494 c 258
 568 324 l 258
 561 303 552 297 538 296 c 258
 404 288 l 258
 368 286 376 298 388 310 c 258
618 -5 m 256
 634 -5 650 -1 650 7 c 256
 650 16 644 24 624 28 c 256
 589 35 576 67 594 128 c 258
 749 644 l 258
 754 662 752 676 747 676 c 256
 742 676 715 644 698 636 c 256
 676 626 665 622 652 622 c 256
 644 622 627 592 598 564 c 258
 126 108 l 258
 82 65 33 42 -2 31 c 256
 -25 24 -39 18 -39 8 c 256
 -39 -1 -32 -5 -16 -5 c 256
 15 -5 56 1 97 1 c 256
 131 1 164 -1 181 -1 c 256
 197 -1 212 3 212 12 c 256
 212 22 208 27 187 30 c 256
 174 32 141 54 186 102 c 258
 302 226 l 258
 313 238 332 244 337 244 c 257
 518 253 l 257
 537 253 550 246 546 235 c 258
 505 112 l 258
 486 56 479 46 411 31 c 256
 393 27 374 21 374 12 c 256
 374 4 382 0 398 0 c 256
 420 0 454 1 490 1 c 256
 532 1 592 -5 618 -5 c 256
EndSplineSet
Fore
Refer: 1 65 N 1 0 0 1 0 0 2
Refer: 1794 -1 N 1 0 0 1 444 0 2
PickledDataWithLists: "(dp0
Vpublic.markColor
p1
V0.67,0.95,0.38,1
p2
s."
Substitution2: "'c2sc' Capitals to Small Capitals in Latin lookup 20 subtable" Adieresis.sc
Comment: "+AAoA-Adieresis+AAoA"
EndChar
StartChar: Aring
Encoding: 29 197 29
GlifName: A_ring
Width: 658
VWidth: 0
Flags: W
AnchorPoint: "bottom.cap" 256 -30 basechar 0
AnchorPoint: "top.cap" 598 675 basechar 0
LayerCount: 2
Back
SplineSet
703 757 m 256
 703 788 721 821 752 821 c 256
 771 821 787 806 787 787 c 256
 787 756 771 722 740 722 c 256
 720 722 703 737 703 757 c 256
759 844 m 256
 707 844 661 806 661 754 c 256
 661 720 697 700 731 700 c 256
 783 700 829 740 829 792 c 256
 829 826 793 844 759 844 c 256
388 310 m 258
 586 506 l 258
 611 531 625 539 630 539 c 256
 636 539 635 521 626 494 c 258
 568 324 l 258
 561 303 552 297 538 296 c 258
 404 288 l 258
 368 286 376 298 388 310 c 258
618 -5 m 256
 634 -5 650 -1 650 7 c 256
 650 16 644 24 624 28 c 256
 589 35 576 67 594 128 c 258
 749 644 l 258
 754 662 752 676 747 676 c 256
 742 676 715 644 698 636 c 256
 676 626 665 622 652 622 c 256
 644 622 627 592 598 564 c 258
 126 108 l 258
 82 65 33 42 -2 31 c 256
 -25 24 -39 18 -39 8 c 256
 -39 -1 -32 -5 -16 -5 c 256
 15 -5 56 1 97 1 c 256
 131 1 164 -1 181 -1 c 256
 197 -1 212 3 212 12 c 256
 212 22 208 27 187 30 c 256
 174 32 141 54 186 102 c 258
 302 226 l 258
 313 238 332 244 337 244 c 257
 518 253 l 257
 537 253 550 246 546 235 c 258
 505 112 l 258
 486 56 479 46 411 31 c 256
 393 27 374 21 374 12 c 256
 374 4 382 0 398 0 c 256
 420 0 454 1 490 1 c 256
 532 1 592 -5 618 -5 c 256
EndSplineSet
Fore
Refer: 1 65 N 1 0 0 1 0 0 2
Refer: 1799 -1 N 1 0 0 1 448 0 2
PickledDataWithLists: "(dp0
Vpublic.markColor
p1
V0.67,0.95,0.38,1
p2
s."
Substitution2: "'c2sc' Capitals to Small Capitals in Latin lookup 20 subtable" Aring.sc
Comment: "+AAoA-Aring+AAoA"
EndChar
StartChar: AE
Encoding: 9 198 9
GlifName: A_E_
Width: 800
VWidth: 0
Flags: W
AnchorPoint: "top.cap" 670 675 basechar 0
LayerCount: 2
Back
SplineSet
-38 -5 m 256
 -7 -5 39 1 81 1 c 256
 115 1 152 -1 169 -1 c 256
 185 -1 197 2 199 10 c 256
 201 19 195 24 175 30 c 256
 143 40 105 58 148 112 c 256
 197 174 234 222 272 266 c 256
 282 279 293 289 307 289 c 258
 428 289 l 258
 447 289 446 281 443 271 c 256
 430 228 411 154 395 99 c 256
 381 51 352 33 303 24 c 256
 280 20 270 15 267 6 c 257
 265 -2 274 -5 290 -5 c 256
 340 -5 357 1 399 1 c 256
 481 1 593 -5 698 -5 c 256
 707 -5 713 4 717 12 c 256
 734 44 749 74 766 123 c 256
 768 130 766 139 758 139 c 256
 751 139 744 132 739 124 c 256
 724 99 710 78 691 62 c 256
 670 45 644 35 605 35 c 258
 508 35 l 258
 466 35 461 72 473 113 c 256
 489 170 497 203 512 251 c 256
 521 282 532 290 545 290 c 256
 579 290 603 289 641 288 c 256
 656 288 673 272 673 241 c 256
 673 234 675 218 687 218 c 256
 694 218 698 226 701 235 c 256
 714 286 719 331 742 382 c 256
 746 391 740 398 735 398 c 256
 727 398 717 391 712 381 c 256
 706 367 700 355 690 345 c 256
 680 336 667 329 647 326 c 256
 623 322 597 323 552 323 c 256
 541 323 539 334 547 364 c 256
 562 418 598 534 627 592 c 256
 633 604 643 618 658 618 c 258
 780 618 l 258
 803 618 823 612 833 593 c 256
 839 581 841 552 841 530 c 256
 841 523 841 520 848 520 c 256
 854 520 862 523 866 538 c 256
 874 566 885 614 888 648 c 256
 889 659 881 661 874 661 c 256
 849 661 820 650 735 650 c 256
 684 650 628 648 581 648 c 256
 518 648 452 651 413 651 c 256
 402 651 392 644 392 637 c 256
 392 632 396 628 405 626 c 258
 481 613 l 258
 499 610 503 602 495 593 c 258
 102 126 l 258
 62 78 11 38 -24 28 c 256
 -47 21 -59 15 -62 6 c 257
 -64 -2 -54 -5 -38 -5 c 256
340 322 m 258
 324 322 323 324 334 337 c 258
 527 574 l 258
 531 579 535 583 538 583 c 256
 541 583 541 579 539 573 c 258
 462 337 l 258
 457 322 457 322 443 322 c 258
 340 322 l 258
EndSplineSet
Fore
SplineSet
-38 -5 m 256
 -7 -5 39 1 81 1 c 256
 115 1 152 -1 169 -1 c 256
 185 -1 197 2 199 10 c 256
 201 19 195 24 175 30 c 256
 143 40 105 58 148 112 c 256
 197 174 234 220 269 266 c 256
 279 279 290 289 304 289 c 258
 428 289 l 258
 447 289 446 281 443 271 c 256
 430 228 411 154 395 99 c 256
 381 51 352 33 303 24 c 256
 280 20 270 15 267 6 c 257
 265 -2 274 -5 290 -5 c 256
 340 -5 357 1 399 1 c 256
 481 1 593 -5 698 -5 c 256
 707 -5 713 4 717 12 c 256
 734 44 749 74 766 123 c 256
 768 130 766 139 758 139 c 256
 751 139 744 132 739 124 c 256
 724 99 710 78 691 62 c 256
 670 45 644 35 605 35 c 258
 508 35 l 258
 466 35 461 72 473 113 c 256
 489 170 497 203 512 251 c 256
 521 282 532 290 545 290 c 256
 579 290 603 289 641 288 c 256
 656 288 673 272 673 241 c 256
 673 234 675 218 687 218 c 256
 694 218 698 226 701 235 c 256
 714 286 719 331 742 382 c 256
 746 391 740 398 735 398 c 256
 727 398 717 391 712 381 c 256
 706 367 700 355 690 345 c 256
 680 336 667 329 647 326 c 256
 623 322 597 323 552 323 c 256
 541 323 539 334 547 364 c 256
 562 418 598 534 627 592 c 256
 633 604 643 618 658 618 c 258
 780 618 l 258
 803 618 823 612 833 593 c 256
 839 581 841 552 841 530 c 256
 841 523 841 520 848 520 c 256
 854 520 862 523 866 538 c 256
 874 566 885 614 888 648 c 256
 889 659 881 661 874 661 c 256
 849 661 820 650 735 650 c 256
 684 650 628 648 581 648 c 256
 518 648 452 651 413 651 c 256
 402 651 392 644 392 637 c 256
 392 632 396 628 405 626 c 258
 481 613 l 258
 499 610 503 602 495 593 c 258
 102 126 l 258
 62 78 11 38 -24 28 c 256
 -47 21 -59 15 -62 6 c 257
 -64 -2 -54 -5 -38 -5 c 256
337 322 m 258
 321 322 321 324 331 337 c 258
 527 587 l 258
 531 592 535 596 538 596 c 256
 541 596 541 592 539 586 c 258
 462 337 l 258
 457 322 457 322 443 322 c 258
 337 322 l 258
EndSplineSet
Guideline: "" "" 489 322 0 0 0
Guideline: "" "" 479 289 0 0 0
PickledDataWithLists: "(dp0
Vcom.schriftgestaltung.Glyphs.glyph.leftMetricsKey
p1
VA
p2
sVcom.schriftgestaltung.Glyphs.glyph.rightMetricsKey
p3
VE
p4
sVpublic.markColor
p5
V0.67,0.95,0.38,1
p6
s."
Substitution2: "'c2sc' Capitals to Small Capitals in Latin lookup 20 subtable" AE.sc
Comment: "+AAoA-AE+AAoA"
EndChar
StartChar: Ccedilla
Encoding: 56 199 56
GlifName: C_cedilla
Width: 631
VWidth: 0
Flags: W
AnchorPoint: "top.cap" 488 675 basechar 0
LayerCount: 2
Back
SplineSet
287 -108 m 256
 287 -158 346 -173 346 -215 c 256
 346 -225 333 -243 318 -243 c 256
 256 -243 253 -198 241 -198 c 256
 230 -198 224 -210 224 -218 c 256
 224 -227 244 -281 293 -281 c 256
 332 -281 412 -234 412 -187 c 256
 412 -154 353 -109 353 -88 c 256
 353 -70 376 -32 438 17 c 257
 408 17 l 257
 350 -13 287 -75 287 -108 c 256
384 -14 m 256
 435 -14 452 11 472 11 c 256
 492 11 502 -11 512 -9 c 256
 523 -7 576 115 576 138 c 256
 576 149 575 157 569 157 c 256
 564 157 558 149 552 139 c 256
 513 76 465 23 402 23 c 256
 294 23 180 110 180 228 c 256
 180 432 326 628 519 628 c 256
 558 628 596 616 613 593 c 256
 634 565 628 523 622 493 c 256
 620 481 625 467 637 467 c 256
 644 467 653 477 655 487 c 256
 664 532 700 599 722 629 c 257
 726 634 727 645 715 645 c 256
 700 645 684 629 672 629 c 256
 662 629 610 663 529 663 c 256
 293 663 96 494 96 240 c 256
 96 90 234 -14 384 -14 c 256
EndSplineSet
Fore
Refer: 43 67 N 1 0 0 1 0 0 2
Refer: 1861 -1 N 1 0 0 1 402 0 2
PickledDataWithLists: "(dp0
Vcom.schriftgestaltung.Glyphs.glyph.leftMetricsKey
p1
VC
p2
sVcom.schriftgestaltung.Glyphs.glyph.rightMetricsKey
p3
g2
sVpublic.markColor
p4
V0.67,0.95,0.38,1
p5
s."
Substitution2: "'c2sc' Capitals to Small Capitals in Latin lookup 20 subtable" Ccedilla.sc
Comment: "+AAoA-Ccedilla+AAoA"
EndChar
